<svg width="32" height="25" fill="none" xmlns="http://www.w3.org/2000/svg"><path d="m1.592 5.984-.909-.417-.004.009.913.408Zm3.456-4.256.571.82h.002l-.573-.82Zm10.432 0-.579.815.007.005.007.005.565-.825Zm3.456 4.256-.913.408.004.009.909-.417ZM19 18.688l-.917-.4.917.4Zm-3.392 4.224.563.826-.563-.826Zm-10.656 0-.563.826.006.004.557-.83ZM1.56 18.688l.917-.4-.917.4Zm3.552-1.728-.939.344.002.005.937-.349Zm2.016 2.88-.603.798.006.004.006.005.591-.807Zm6.304 0 .6.8.003-.002-.603-.798Zm2.016-2.88.937.35.002-.006-.939-.344Zm0-9.28-.939.344.002.005.937-.349Zm-2.016-2.912-.613.79.01.008.603-.798Zm-6.304 0 .603.798-.603-.798ZM5.112 7.68l.937.35.002-.006-.939-.344Zm-3.736 4.672c0-2.322.387-4.3 1.129-5.96L.679 5.576C-.2 7.543-.624 9.81-.624 12.352h2Zm1.125-5.951c.766-1.67 1.809-2.941 3.118-3.852L4.477.907C2.842 2.044 1.58 3.61.683 5.567l1.818.834Zm3.12-3.854c1.31-.917 2.845-1.387 4.643-1.387v-2c-2.17 0-4.113.575-5.79 1.749l1.147 1.638Zm4.643-1.387c1.822 0 3.353.471 4.637 1.383l1.158-1.63C14.399-.266 12.453-.84 10.264-.84v2Zm4.65 1.393c1.327.91 2.366 2.177 3.11 3.84l1.825-.817C18.97 3.61 17.705 2.04 16.046.903l-1.131 1.65ZM18.027 6.4c.76 1.657 1.157 3.632 1.157 5.951h2c0-2.545-.435-4.815-1.34-6.785l-1.817.834Zm1.157 5.951c0 2.303-.377 4.274-1.1 5.937l1.833.798c.855-1.963 1.267-4.216 1.267-6.735h-2Zm-1.1 5.937c-.724 1.66-1.74 2.912-3.039 3.796l1.126 1.653c1.645-1.12 2.89-2.684 3.746-4.65l-1.834-.8Zm-3.039 3.796c-1.279.872-2.855 1.331-4.781 1.331v2c2.256 0 4.242-.543 5.907-1.678l-1.126-1.652Zm-4.781 1.331c-1.878 0-3.448-.457-4.755-1.334l-1.114 1.66c1.68 1.128 3.65 1.674 5.869 1.674v-2Zm-4.749-1.33c-1.3-.885-2.315-2.137-3.038-3.797l-1.834.798c.856 1.967 2.101 3.531 3.746 4.651l1.126-1.652Zm-3.038-3.797c-.724-1.663-1.101-3.634-1.101-5.937h-2c0 2.519.412 4.771 1.267 6.735l1.834-.798Zm.931-5.937c0 1.875.245 3.533.765 4.952l1.878-.688c-.419-1.141-.643-2.555-.643-4.264h-2Zm.767 4.957c.52 1.397 1.293 2.53 2.35 3.329l1.206-1.596c-.692-.523-1.264-1.31-1.682-2.431l-1.874.698Zm2.362 3.338c1.067.78 2.326 1.153 3.727 1.153v-2c-1.03 0-1.863-.268-2.545-.767l-1.182 1.614Zm3.727 1.153c1.435 0 2.712-.368 3.768-1.16l-1.2-1.6c-.65.488-1.485.76-2.568.76v2Zm3.771-1.162c1.057-.8 1.83-1.932 2.35-3.329l-1.874-.698c-.418 1.12-.99 1.908-1.682 2.431l1.206 1.596Zm2.352-3.334c.52-1.419.765-3.077.765-4.952h-2c0 1.71-.224 3.123-.643 4.264l1.878.688Zm.765-4.952c0-1.933-.243-3.617-.767-5.021l-1.874.698c.415 1.114.641 2.544.641 4.323h2Zm-.765-5.016c-.52-1.417-1.29-2.563-2.352-3.366L12.83 5.566c.688.52 1.26 1.315 1.68 2.458l1.878-.688Zm-2.342-3.358c-1.057-.82-2.339-1.202-3.781-1.202v2c1.075 0 1.905.279 2.555.782l1.226-1.58Zm-3.781-1.202c-1.409 0-2.672.387-3.74 1.194l1.207 1.596c.682-.516 1.51-.79 2.533-.79v-2ZM6.524 3.97c-1.06.803-1.832 1.95-2.35 3.366l1.877.688c.42-1.143.992-1.938 1.68-2.458L6.525 3.97ZM4.176 7.33c-.524 1.405-.767 3.089-.767 5.022h2c0-1.779.226-3.21.641-4.323l-1.874-.698ZM27.77 4.289h1v-1h-1v1Zm-5.12 0h-1v1h1v-1Zm0-3.68v-1h-1v1h1Zm9.024 0h1v-1h-1v1Zm0 23.392v1h1v-1h-1Zm-3.904 0h-1v1h1v-1Zm0-20.712h-5.12v2h5.12v-2Zm-4.12 1V.608h-2v3.68h2Zm-1-2.68h9.024v-2h-9.023v2Zm8.024-1V24h2V.608h-2Zm1 22.392H27.77v2h3.904v-2Zm-2.904 1V4.288h-2V24h2Z" fill="#FD943C"/></svg>