<svg width="39" height="25" fill="none" xmlns="http://www.w3.org/2000/svg"><path d="m1.592 5.984-.636-.292-.003.006.639.286Zm3.456-4.256.4.575.001-.002-.401-.573Zm10.432 0-.405.57.01.007.395-.577Zm3.456 4.256-.64.286.004.006.636-.292ZM19 18.688l-.642-.28.642.28Zm-3.392 4.224.394.579-.394-.579Zm-10.656 0-.394.579.004.002.39-.581ZM1.56 18.688l.642-.28-.642.28Zm3.552-1.728-.657.241.001.004.656-.245Zm2.016 2.88-.422.558.009.007.413-.565Zm6.304 0 .42.56.002-.002-.422-.558Zm2.016-2.88.656.245.001-.004-.657-.241Zm0-9.28-.657.241.001.004.656-.245Zm-2.016-2.912-.429.553.007.005.422-.558Zm-6.304 0 .422.558-.422-.558ZM5.112 7.68l.656.245.001-.004-.657-.241Zm-4.036 4.672c0-2.355.393-4.377 1.155-6.082L.953 5.698C.094 7.62-.324 9.843-.324 12.352h1.4Zm1.152-6.076c.786-1.713 1.862-3.029 3.22-3.973l-.8-1.15C3.062 2.257 1.834 3.778.956 5.693l1.272.583ZM5.45 2.3C6.815 1.346 8.41.86 10.264.86v-1.4c-2.114 0-3.996.56-5.617 1.695L5.449 2.3ZM10.264.86c1.877 0 3.47.487 4.81 1.439l.811-1.142C14.282.02 12.398-.54 10.264-.54v1.4Zm4.82 1.445c1.377.944 2.45 2.257 3.213 3.965l1.278-.572c-.858-1.919-2.09-3.443-3.7-4.547l-.79 1.154Zm3.216 3.97c.782 1.705 1.184 3.724 1.184 6.077h1.4c0-2.511-.43-4.737-1.312-6.66l-1.272.584Zm1.184 6.077c0 2.335-.382 4.349-1.126 6.057l1.284.558c.835-1.918 1.242-4.129 1.242-6.615h-1.4Zm-1.126 6.057c-.742 1.706-1.793 3.004-3.144 3.925l.788 1.157c1.593-1.085 2.804-2.603 3.64-4.524l-1.284-.558Zm-3.144 3.925c-1.337.91-2.975 1.382-4.95 1.382v1.4c2.206 0 4.13-.53 5.738-1.625l-.788-1.157Zm-4.95 1.382c-1.929 0-3.56-.47-4.922-1.385l-.78 1.162c1.624 1.09 3.535 1.623 5.702 1.623v-1.4Zm-4.918-1.383c-1.351-.92-2.402-2.218-3.144-3.924l-1.284.558c.836 1.921 2.047 3.439 3.64 4.524l.788-1.157ZM2.202 18.41c-.744-1.708-1.126-3.722-1.126-6.057h-1.4c0 2.486.407 4.697 1.242 6.615l1.284-.558Zm1.506-6.057c0 1.85.242 3.472.747 4.849l1.314-.482c-.433-1.183-.661-2.633-.661-4.367h-1.4Zm.748 4.853c.505 1.355 1.247 2.435 2.25 3.193l.844-1.116c-.747-.565-1.349-1.404-1.782-2.567l-1.312.49Zm2.259 3.2c1.009.738 2.203 1.095 3.549 1.095v-1.4c-1.086 0-1.982-.283-2.723-.825l-.826 1.13Zm3.549 1.095c1.382 0 2.593-.354 3.588-1.1l-.84-1.12c-.711.534-1.613.82-2.748.82v1.4Zm3.59-1.102c1.003-.758 1.745-1.838 2.25-3.193l-1.312-.49c-.433 1.163-1.035 2.002-1.782 2.567l.844 1.116Zm2.251-3.197c.505-1.377.747-3 .747-4.849h-1.4c0 1.734-.227 3.184-.661 4.367l1.314.482Zm.747-4.849c0-1.91-.24-3.556-.748-4.917l-1.312.49c.431 1.156.66 2.625.66 4.427h1.4Zm-.747-4.913c-.504-1.375-1.246-2.47-2.25-3.23l-.845 1.117c.744.563 1.347 1.41 1.78 2.595l1.315-.482Zm-2.244-3.224c-.996-.772-2.21-1.139-3.597-1.139v1.4c1.13 0 2.028.294 2.74.845l.857-1.106Zm-3.597-1.139c-1.35 0-2.549.37-3.558 1.134l.844 1.116c.74-.559 1.633-.85 2.714-.85v-1.4ZM6.706 4.21C5.7 4.97 4.959 6.064 4.455 7.439l1.314.482c.435-1.185 1.037-2.032 1.781-2.595L6.706 4.21Zm-2.25 3.225c-.507 1.36-.748 3.007-.748 4.917h1.4c0-1.802.229-3.27.66-4.427l-1.312-.49Zm33.589-3.563.474.515.226-.208v-.307h-.7Zm-8.448 7.776-.403.573.462.324.415-.382-.474-.515ZM26.909 9.76l-.474-.516-.64.589.711.5.403-.573ZM35.1 2.24l.66.234-1.134-.75.474.516Zm-.704 1.984v.7h.494l.165-.466-.66-.234Zm-11.2 0h-.7v.7h.7v-.7Zm0-3.616v-.7h-.7v.7h.7Zm14.848 0h.7v-.7h-.7v.7ZM26.909 12.416h-.7v.7h.7v-.7Zm0-2.656-.434-.55-.266.21v.34h.7Zm1.6-.64.111.691.011-.002.01-.002-.132-.687Zm5.024.32-.226.663.226-.663Zm2.656 1.504-.457.53.008.007.008.007.44-.544Zm1.856 2.4-.635.296.003.005.632-.301Zm-.448 7.392-.59-.376.59.376Zm-3.072 2.72-.31-.628-.003.002.313.626Zm-8.448.064-.318.624.007.003.006.003.305-.63Zm-2.912-2.688-.6.36.004.008.596-.368Zm-1.056-4.288v-.7h-.7v.7h.7Zm4.032 0h.7v-.7h-.7v.7Zm1.12 3.136-.495.495.007.007.007.007.48-.509Zm6.112-.064-.495-.495.495.495Zm0-6.016-.495.495.007.007.488-.502ZM37.57 3.357l-8.448 7.776.948 1.03 8.448-7.776-.948-1.03Zm-7.572 7.718-2.688-1.888-.805 1.146 2.688 1.888.805-1.146Zm-2.617-.8 8.192-7.52-.947-1.03-8.192 7.52.947 1.03Zm7.06-8.27-.705 1.985 1.32.468.703-1.984-1.319-.468Zm-.045 1.519h-11.2v1.4h11.2v-1.4Zm-10.5.7V.608h-1.4v3.616h1.4Zm-.7-2.916h14.848v-1.4H23.197v1.4Zm14.148-.7v3.264h1.4V.608h-1.4Zm-7.588 11.108h-2.848v1.4h2.848v-1.4Zm-2.148.7V9.76h-1.4v2.656h1.4Zm-.267-2.107c.288-.227.7-.405 1.278-.498l-.223-1.382c-.745.12-1.4.369-1.922.782l.867 1.098Zm1.3-.502a9.099 9.099 0 0 1 1.723-.179v-1.4c-.628 0-1.291.07-1.99.205l.267 1.374Zm1.723-.179c1.036 0 2.015.16 2.942.475l.451-1.326a10.462 10.462 0 0 0-3.393-.549v1.4Zm2.942.475a7.253 7.253 0 0 1 2.425 1.371l.913-1.06a8.652 8.652 0 0 0-2.887-1.637l-.45 1.326Zm2.44 1.385a5.974 5.974 0 0 1 1.663 2.152l1.27-.592a7.373 7.373 0 0 0-2.05-2.648l-.882 1.088Zm1.666 2.158c.396.83.604 1.8.604 2.93h1.4c0-1.303-.24-2.486-.74-3.534l-1.264.604Zm.604 2.93c0 1.487-.346 2.74-1.01 3.784l1.18.752c.829-1.302 1.23-2.823 1.23-4.536h-1.4Zm-1.01 3.784c-.675 1.06-1.6 1.882-2.791 2.468l.618 1.256c1.411-.694 2.535-1.686 3.353-2.972l-1.18-.752Zm-2.795 2.47c-1.173.587-2.494.886-3.975.886v1.4c1.676 0 3.214-.34 4.6-1.034l-.625-1.252Zm-3.975.886c-1.443 0-2.724-.28-3.856-.826l-.609 1.26c1.343.649 2.836.966 4.465.966v-1.4Zm-3.843-.82a6.51 6.51 0 0 1-2.634-2.432l-1.19.736a7.909 7.909 0 0 0 3.19 2.944l.634-1.248Zm-2.629-2.424c-.625-1.042-.956-2.34-.956-3.928h-1.4c0 1.783.373 3.343 1.155 4.648l1.201-.72Zm-1.656-3.228h4.032v-1.4h-4.032v1.4Zm3.332-.7c0 1.476.414 2.72 1.325 3.631l.99-.99c-.582-.582-.915-1.43-.915-2.641h-1.4Zm1.34 3.645c.921.87 2.119 1.279 3.52 1.279v-1.4c-1.117 0-1.946-.317-2.56-.897l-.96 1.018Zm3.52 1.279c1.43 0 2.644-.434 3.567-1.357l-.99-.99c-.614.614-1.447.947-2.577.947v1.4Zm3.567-1.357c.94-.94 1.389-2.163 1.389-3.599h-1.4c0 1.124-.34 1.97-.98 2.609l.99.99Zm1.389-3.599c0-1.348-.462-2.505-1.396-3.414l-.976 1.004c.644.627.972 1.412.972 2.41h1.4Zm-1.39-3.407c-.97-.97-2.387-1.389-4.11-1.389v1.4c1.52 0 2.512.37 3.12.979l.99-.99Z" fill="#FD943C"/></svg>