<svg width="42" height="25" fill="none" xmlns="http://www.w3.org/2000/svg"><path d="m1.592 5.984-.636-.292-.003.006.639.286Zm3.456-4.256.4.575.001-.002-.401-.573Zm10.432 0-.405.57.01.007.395-.577Zm3.456 4.256-.64.286.004.006.636-.292ZM19 18.688l-.642-.28.642.28Zm-3.392 4.224.394.579-.394-.579Zm-10.656 0-.394.579.004.002.39-.581ZM1.56 18.688l.642-.28-.642.28Zm3.552-1.728-.657.241.001.004.656-.245Zm2.016 2.88-.422.558.009.007.413-.565Zm6.304 0 .42.56.002-.002-.422-.558Zm2.016-2.88.656.245.001-.004-.657-.241Zm0-9.28-.657.241.001.004.656-.245Zm-2.016-2.912-.429.553.007.005.422-.558Zm-6.304 0 .422.558-.422-.558ZM5.112 7.68l.656.245.001-.004-.657-.241Zm-4.036 4.672c0-2.355.393-4.377 1.155-6.082L.953 5.698C.094 7.62-.324 9.843-.324 12.352h1.4Zm1.152-6.076c.786-1.713 1.862-3.029 3.22-3.973l-.8-1.15C3.062 2.257 1.834 3.778.956 5.693l1.272.583ZM5.45 2.3C6.815 1.346 8.41.86 10.264.86v-1.4c-2.114 0-3.996.56-5.617 1.695L5.449 2.3ZM10.264.86c1.877 0 3.47.487 4.81 1.439l.811-1.142C14.282.02 12.398-.54 10.264-.54v1.4Zm4.82 1.445c1.377.944 2.45 2.257 3.213 3.965l1.278-.572c-.858-1.919-2.09-3.443-3.7-4.547l-.79 1.154Zm3.216 3.97c.782 1.705 1.184 3.724 1.184 6.077h1.4c0-2.511-.43-4.737-1.312-6.66l-1.272.584Zm1.184 6.077c0 2.335-.382 4.349-1.126 6.057l1.284.558c.835-1.918 1.242-4.129 1.242-6.615h-1.4Zm-1.126 6.057c-.742 1.706-1.793 3.004-3.144 3.925l.788 1.157c1.593-1.085 2.804-2.603 3.64-4.524l-1.284-.558Zm-3.144 3.925c-1.337.91-2.975 1.382-4.95 1.382v1.4c2.206 0 4.13-.53 5.738-1.625l-.788-1.157Zm-4.95 1.382c-1.929 0-3.56-.47-4.922-1.385l-.78 1.162c1.624 1.09 3.535 1.623 5.702 1.623v-1.4Zm-4.918-1.383c-1.351-.92-2.402-2.218-3.144-3.924l-1.284.558c.836 1.921 2.047 3.439 3.64 4.524l.788-1.157ZM2.202 18.41c-.744-1.708-1.126-3.722-1.126-6.057h-1.4c0 2.486.407 4.697 1.242 6.615l1.284-.558Zm1.506-6.057c0 1.85.242 3.472.747 4.849l1.314-.482c-.433-1.183-.661-2.633-.661-4.367h-1.4Zm.748 4.853c.505 1.355 1.247 2.435 2.25 3.193l.844-1.116c-.747-.565-1.349-1.404-1.782-2.567l-1.312.49Zm2.259 3.2c1.009.738 2.203 1.095 3.549 1.095v-1.4c-1.086 0-1.982-.283-2.723-.825l-.826 1.13Zm3.549 1.095c1.382 0 2.593-.354 3.588-1.1l-.84-1.12c-.711.534-1.613.82-2.748.82v1.4Zm3.59-1.102c1.003-.758 1.745-1.838 2.25-3.193l-1.312-.49c-.433 1.163-1.035 2.002-1.782 2.567l.844 1.116Zm2.251-3.197c.505-1.377.747-3 .747-4.849h-1.4c0 1.734-.227 3.184-.661 4.367l1.314.482Zm.747-4.849c0-1.91-.24-3.556-.748-4.917l-1.312.49c.431 1.156.66 2.625.66 4.427h1.4Zm-.747-4.913c-.504-1.375-1.246-2.47-2.25-3.23l-.845 1.117c.744.563 1.347 1.41 1.78 2.595l1.315-.482Zm-2.244-3.224c-.996-.772-2.21-1.139-3.597-1.139v1.4c1.13 0 2.028.294 2.74.845l.857-1.106Zm-3.597-1.139c-1.35 0-2.549.37-3.558 1.134l.844 1.116c.74-.559 1.633-.85 2.714-.85v-1.4ZM6.706 4.21C5.7 4.97 4.959 6.064 4.455 7.439l1.314.482c.435-1.185 1.037-2.032 1.781-2.595L6.706 4.21Zm-2.25 3.225c-.507 1.36-.748 3.007-.748 4.917h1.4c0-1.802.229-3.27.66-4.427l-1.312-.49ZM38.202.608h.7v-.7h-.7v.7Zm0 23.392v.7h.7V24h-.7Zm-3.871 0h-.7v.7h.7V24Zm0-23.392v-.7h-.7v.7h.7Zm-11.873 15.36-.576-.397-.703 1.02 1.237.076.043-.699ZM33.052.608v-.7h-.368l-.209.303.577.397Zm4.32 0 .576.397.755-1.097h-1.331v.7ZM26.617 16.224l-.042.699.395.024.224-.326-.576-.397Zm14.433 3.328v.7h.7v-.7h-.7Zm-18.593 0h-.7v.7h.7v-.7Zm0-3.584v-.7h-.7v.7h.7Zm18.593 0h.7v-.7h-.7v.7ZM37.502.608V24h1.4V.608h-1.4Zm.7 22.692h-3.871v1.4h3.871v-1.4Zm-3.171.7V.608h-1.4V24h1.4Zm-.7-22.692h3.871v-1.4h-3.871v1.4ZM23.035 16.365l10.592-15.36-1.153-.794-10.592 15.36 1.153.794ZM33.05 1.308h4.32v-1.4h-4.32v1.4ZM36.794.211 26.042 15.827l1.153.794L37.947 1.005 36.794.211ZM26.662 15.525l-4.16-.256-.086 1.398 4.16.256.085-1.398Zm14.389 3.327H22.457v1.4h18.593v-1.4Zm-17.893.7v-3.584h-1.4v3.584h1.4Zm-.7-2.884h18.593v-1.4H22.457v1.4Zm17.892-.7v3.584h1.4v-3.584h-1.4Z" fill="#FD943C"/></svg>