<svg width="40" height="38" fill="none" xmlns="http://www.w3.org/2000/svg"><path d="M2.752 10.824h31.262a1.613 1.613 0 0 1 1.612 1.611v3.369H2.752a2.492 2.492 0 0 1-2.49-2.489 2.488 2.488 0 0 1 2.49-2.488v-.003Z" fill="#093F68"/><path d="M35.618 16.052H2.747A2.747 2.747 0 0 1 0 13.307a2.744 2.744 0 0 1 2.747-2.745h31.262a1.87 1.87 0 0 1 1.866 1.866v3.368a.257.257 0 0 1-.257.256ZM2.747 11.076a2.234 2.234 0 0 0-2.234 2.231 2.231 2.231 0 0 0 2.234 2.232H35.36v-3.111a1.352 1.352 0 0 0-1.352-1.352H2.747Z" fill="#093F68"/><path d="M27.933.267 1.516 9.809l5.123 14.167 26.417-9.542L27.933.267Z" fill="#70CC40"/><path d="M6.656 24.232a.257.257 0 0 1-.241-.17L1.28 9.894a.256.256 0 0 1 0-.195.257.257 0 0 1 .146-.133L27.848.02a.257.257 0 0 1 .198 0c.06.029.108.08.13.143l5.135 14.169a.257.257 0 0 1-.154.328L6.74 24.203a.259.259 0 0 1-.085.029ZM1.861 9.96l4.95 13.686 25.925-9.369L27.782.592 1.861 9.96Z" fill="#093F68"/><path d="M31.587 4.757 4.06 10.34l2.997 14.763 27.528-5.583-2.997-14.763Z" fill="#70CC40"/><path d="M7.053 25.359a.256.256 0 0 1-.256-.205L3.798 10.39a.257.257 0 0 1 .107-.264.257.257 0 0 1 .094-.039L31.53 4.505a.257.257 0 0 1 .303.2l2.998 14.764a.256.256 0 0 1-.038.192.257.257 0 0 1-.162.11L7.105 25.355l-.052.005ZM4.358 10.536l2.895 14.261 27.025-5.48-2.896-14.263-27.024 5.482Z" fill="#093F68"/><path d="M18.281 11.066c.049.257.1.493.146.742 0 .046.026.059.075.061.376-.006.748.082 1.08.257.35.187.617.495.752.867.039.1.07.205.103.313l-1.142.226a.79.79 0 0 0-.257-.439 3.87 3.87 0 0 0-.362-.208l-.015.02.282 1.425h.129c.321-.001.642.036.954.11a1.327 1.327 0 0 1 .994.931 1.74 1.74 0 0 1-.778 2.099c-.198.115-.408.207-.621.313l.108.554-1.053.207-.113-.57c-.223-.015-.436-.02-.644-.048a1.812 1.812 0 0 1-1.078-.513 1.761 1.761 0 0 1-.465-.923l1.127-.224a.905.905 0 0 0 .852.7l-.3-1.539c-.226-.017-.452-.033-.677-.059a1.635 1.635 0 0 1-.77-.256 1.311 1.311 0 0 1-.514-.636 1.837 1.837 0 0 1-.123-.996 1.662 1.662 0 0 1 .8-1.149c.176-.096.357-.182.542-.256l.067-.029-.151-.77 1.052-.21Zm1.132 5.71a.939.939 0 0 0 .431-.297.62.62 0 0 0-.061-.82 1.23 1.23 0 0 0-.63-.19l.26 1.308Zm-1.843-3.755a3.282 3.282 0 0 0-.362.285.571.571 0 0 0 .103.87c.16.075.335.115.513.118l-.254-1.273Z" fill="#093F68"/><path d="M6.927 19.244a4.219 4.219 0 1 0 0-8.435 4.219 4.219 0 1 0 0 8.435Z" fill="#FFBC0E"/><path d="M6.931 19.5a4.481 4.481 0 0 1-4.14-2.762 4.474 4.474 0 0 1 3.263-6.105 4.48 4.48 0 0 1 5.354 4.39A4.478 4.478 0 0 1 6.93 19.5Zm0-8.438a3.968 3.968 0 0 0-3.666 2.446 3.961 3.961 0 0 0 2.89 5.405 3.969 3.969 0 0 0 4.072-1.687 3.962 3.962 0 0 0-3.296-6.163Z" fill="#093F68"/><path d="M14.495 6.597c-.275-1.026-1.08-2.065-2.27-2.796-1.188-.731-2.492-.962-3.519-.757l-.7-.43L7.1 4.09c-.847 1.378.077 3.481 2.053 4.7 1.977 1.218 4.284 1.09 5.134-.288l.906-1.475-.698-.43Z" fill="#FFBC0E"/><path d="M11.929 9.886a5.632 5.632 0 0 1-2.898-.872C6.926 7.73 5.95 5.454 6.88 3.957l.906-1.475a.257.257 0 0 1 .354-.084l.616.38c1.127-.203 2.433.09 3.594.808 1.16.718 2.025 1.754 2.356 2.85l.616.377a.272.272 0 0 1 .116.159.256.256 0 0 1-.031.192l-.909 1.475c-.454.742-1.283 1.183-2.34 1.242l-.23.005ZM8.09 2.96l-.77 1.257c-.77 1.254.118 3.206 1.98 4.348.846.543 1.837.82 2.843.793.883-.05 1.569-.403 1.933-.996l.77-1.257-.49-.285a.257.257 0 0 1-.113-.15c-.27-.994-1.076-1.984-2.156-2.646-1.08-.662-2.328-.936-3.337-.726a.257.257 0 0 1-.188-.033l-.472-.305Z" fill="#093F68"/><path d="M15.197 7.032c.847-1.377-.077-3.482-2.063-4.7-1.986-1.22-4.282-1.09-5.129.287C7.16 3.996 8.083 6.1 10.07 7.32c1.986 1.219 4.282 1.09 5.128-.288Z" fill="#FFBC0E"/><path d="M12.83 8.402a5.6 5.6 0 0 1-2.893-.87C7.832 6.25 6.857 3.975 7.786 2.48c.929-1.496 3.38-1.663 5.483-.372 2.102 1.29 3.08 3.558 2.15 5.054-.505.82-1.473 1.241-2.59 1.241Zm-2.467-6.67c-.934 0-1.73.339-2.138 1.006-.77 1.254.118 3.207 1.979 4.348 1.86 1.142 4.007 1.052 4.777-.203.77-1.257-.118-3.206-1.98-4.36a5.151 5.151 0 0 0-2.638-.78v-.01Z" fill="#093F68"/><path d="M29.343 9.544c.274-1.026 1.08-2.053 2.269-2.797 1.188-.743 2.49-.972 3.521-.77l.701-.43.909 1.475c.844 1.378-.08 3.484-2.066 4.702-1.987 1.219-4.282 1.09-5.134-.287l-.906-1.475.706-.418Z" fill="#FFBC0E"/><path d="M31.915 12.83h-.244c-1.055-.061-1.887-.513-2.34-1.242l-.907-1.475a.256.256 0 0 1 .085-.351l.616-.38c.328-1.095 1.18-2.126 2.354-2.847 1.173-.721 2.48-1.014 3.593-.81l.616-.378a.257.257 0 0 1 .354.085l.907 1.475c.454.741.47 1.68.046 2.647A5.52 5.52 0 0 1 34.8 11.96a5.623 5.623 0 0 1-2.885.87Zm-2.929-2.77.77 1.257c.365.592 1.05.946 1.933.995a5.372 5.372 0 0 0 4.839-2.968c.354-.808.349-1.58-.016-2.173l-.77-1.257-.482.295a.257.257 0 0 1-.188.033c-1.006-.21-2.254.062-3.337.724-1.083.662-1.886 1.654-2.156 2.645a.242.242 0 0 1-.113.151l-.48.297Z" fill="#093F68"/><path d="M33.774 10.262c1.987-1.218 2.91-3.323 2.064-4.7-.846-1.378-3.142-1.507-5.129-.288-1.986 1.218-2.91 3.323-2.063 4.7.846 1.378 3.142 1.507 5.128.288Z" fill="#FFBC0E"/><path d="M31.009 11.36h-.244c-1.055-.06-1.887-.498-2.341-1.24-.454-.74-.472-1.68-.046-2.647A5.87 5.87 0 0 1 33.714 4.2c1.055.059 1.887.497 2.341 1.239.92 1.495-.046 3.763-2.148 5.053a5.625 5.625 0 0 1-2.898.868Zm2.459-6.67a5.136 5.136 0 0 0-2.629.797 5.014 5.014 0 0 0-1.991 2.176c-.357.81-.352 1.583 0 2.175.364.593 1.05.944 1.932.996a5.018 5.018 0 0 0 2.844-.793c1.864-1.144 2.752-3.094 1.98-4.361-.365-.593-1.05-.947-1.933-.998l-.203.008Z" fill="#093F68"/><path d="M37.661 17.84V35.7a2.051 2.051 0 0 1-2.053 2.053H3.883a3.631 3.631 0 0 1-3.63-3.628V13.32a2.49 2.49 0 0 0 2.493 2.491h32.872a2.054 2.054 0 0 1 2.043 2.03Z" fill="#68E1FD"/><path d="M35.62 38H3.887A3.89 3.89 0 0 1 0 34.116V13.311a.257.257 0 0 1 .513 0 2.236 2.236 0 0 0 2.236 2.235h32.872a2.31 2.31 0 0 1 2.31 2.296v17.86A2.308 2.308 0 0 1 35.62 38ZM.514 14.9v19.209a3.375 3.375 0 0 0 3.373 3.37h31.735a1.798 1.798 0 0 0 1.797-1.795V17.842a1.796 1.796 0 0 0-1.797-1.783H2.749a2.743 2.743 0 0 1-2.236-1.16Z" fill="#093F68"/><path d="M31.5 24.27h7.74v6.777H31.5a2.231 2.231 0 0 1-2.23-2.23V26.51a2.227 2.227 0 0 1 2.23-2.24Z" fill="#F56132"/><path d="M39.237 31.304h-7.74a2.493 2.493 0 0 1-2.49-2.486V26.51a2.49 2.49 0 0 1 2.49-2.486h7.74a.257.257 0 0 1 .257.257v6.778a.257.257 0 0 1-.257.246Zm-7.74-6.778a1.98 1.98 0 0 0-1.976 1.973v2.309a1.977 1.977 0 0 0 1.977 1.973h7.482v-6.255h-7.482Z" fill="#093F68"/><path d="M32.695 29.216a1.558 1.558 0 1 0 0-3.115 1.558 1.558 0 0 0 0 3.115Z" fill="#FFBC0E"/><path d="M32.694 29.467a1.815 1.815 0 0 1-1.284-3.096 1.815 1.815 0 0 1 2.566 2.564c-.34.34-.801.532-1.282.532Zm0-3.114a1.302 1.302 0 0 0-.92 2.22 1.302 1.302 0 1 0 .92-2.22ZM5.714 37.998a.257.257 0 0 1-.257-.257V15.8a.257.257 0 0 1 .513 0V37.74a.257.257 0 0 1-.256.257Z" fill="#093F68"/></svg>