<svg width="41" height="41" fill="none" xmlns="http://www.w3.org/2000/svg"><rect x=".5" y=".094" width="40" height="40" rx="8" fill="#FFF2E8"/><g clip-path="url(#a)" stroke="#303030" stroke-width="2" stroke-linecap="round" stroke-linejoin="round"><path d="M16.5 18.094a2 2 0 0 1 2-2h8a2 2 0 0 1 2 2v8a2 2 0 0 1-2 2h-8a2 2 0 0 1-2-2v-8Z"/><path d="M24.5 16.094v-2a2 2 0 0 0-2-2h-8a2 2 0 0 0-2 2v8a2 2 0 0 0 2 2h2"/></g><defs><clipPath id="a"><path fill="#fff" transform="translate(8.5 8.094)" d="M0 0h24v24H0z"/></clipPath></defs></svg>