<svg width="148" height="98" viewBox="0 0 148 98" fill="none" xmlns="http://www.w3.org/2000/svg">
<path d="M131.611 29.4521L129.723 38.5367L128.507 37.3587L126.439 38.8248L124.858 36.8746L121.314 39.4344L118.285 34.4031L114.907 36.3689L113.567 34.5344L109.277 36.9354L107.986 34.1894L110.994 19.7227L127.116 23.0292L131.611 29.4521Z" fill="#EBEBEB"/>
<path d="M127.117 23.0273L131.612 29.4503L126.02 28.3037L127.117 23.0273Z" fill="#DBDBDB"/>
<path d="M129.321 40.3531L126.552 53.6811L104.836 49.228L107.585 36.0078L108.875 38.7518L113.167 36.3508L114.505 38.1854L117.886 36.2215L120.913 41.2528L124.459 38.693L126.037 40.6413L128.107 39.1771L129.321 40.3531Z" fill="#EBEBEB"/>
<path d="M98.2388 38.7892L76.1079 40.1494L74.3496 11.9332L90.7835 10.9219L96.816 15.9493L98.2388 38.7892Z" fill="#EBEBEB"/>
<path d="M90.7832 10.9219L96.8157 15.9493L91.1167 16.3001L90.7832 10.9219Z" fill="#DBDBDB"/>
<path d="M84.6562 29.9066L84.5694 29.2696C84.3464 27.9505 84.7095 26.4746 85.8639 24.9321C86.9058 23.5601 87.4702 22.5801 87.407 21.4668C87.336 20.2124 86.4973 19.4206 84.9364 19.4833C84.0444 19.5293 83.1875 19.8437 82.4796 20.3849L81.7988 18.8698C82.5882 18.2328 83.9695 17.7624 85.2818 17.6938C88.1293 17.537 89.5146 19.2108 89.6231 21.0787C89.7178 22.7506 88.8456 24.007 87.7366 25.475C86.7183 26.8137 86.3849 27.9172 86.5289 29.1657L86.5901 29.8046L84.6562 29.9066ZM84.305 33.3777C84.2537 32.4683 84.8358 31.794 85.7021 31.747C86.5684 31.7 87.1998 32.3036 87.2511 33.215C87.2985 34.0755 86.7677 34.7693 85.8521 34.8203C84.9779 34.8693 84.3464 34.2382 84.2971 33.3777H84.305Z" fill="#DBDBDB"/>
<path d="M29.2993 25.107L27.0734 24.1055L26.7636 24.7817C26.7179 24.8783 26.6465 24.9607 26.5571 25.0201C26.4678 25.0795 26.3638 25.1136 26.2565 25.1188C26.1341 25.1228 26.0122 25.1346 25.8914 25.1541C25.7854 25.1697 25.677 25.1565 25.578 25.1157C25.4789 25.075 25.3929 25.0083 25.329 24.9228L24.8929 24.3171L22.9057 25.7323L23.3418 26.3379C23.4025 26.4253 23.4382 26.5274 23.4451 26.6334C23.4521 26.7393 23.43 26.8451 23.3813 26.9396C23.325 27.0474 23.2743 27.158 23.2294 27.2709C23.1903 27.3704 23.1246 27.4575 23.0394 27.5228C22.9542 27.588 22.8528 27.629 22.7459 27.6413L22.002 27.7138L22.2407 30.1305L22.9886 30.056C23.0959 30.0475 23.2034 30.0682 23.2998 30.1159C23.3961 30.1635 23.4775 30.2363 23.5352 30.3265C23.5668 30.3775 23.6004 30.4265 23.6359 30.4755C23.6714 30.5245 23.7069 30.5715 23.7444 30.6185C23.8125 30.7008 23.8563 30.8003 23.8709 30.9058C23.8856 31.0113 23.8705 31.1188 23.8273 31.2163L23.5155 31.8984L25.7434 32.9019L26.0532 32.2218C26.0994 32.1253 26.1712 32.0431 26.2609 31.984C26.3506 31.9249 26.4548 31.8913 26.5623 31.8867C26.6833 31.8817 26.8038 31.8699 26.9234 31.8514C27.0295 31.8358 27.1378 31.849 27.2369 31.8897C27.3359 31.9305 27.422 31.9972 27.4858 32.0827L27.922 32.6883L29.9111 31.2732L29.475 30.6675C29.4124 30.5809 29.3756 30.4786 29.3686 30.3723C29.3617 30.2659 29.3848 30.1598 29.4355 30.0658C29.4905 29.9587 29.5399 29.8488 29.5835 29.7365C29.6215 29.6363 29.6868 29.5485 29.7722 29.483C29.8576 29.4176 29.9597 29.3771 30.067 29.3661L30.8149 29.2916L30.5741 26.8749L29.8262 26.9475C29.7196 26.9568 29.6125 26.9366 29.5168 26.8892C29.421 26.8418 29.3403 26.7691 29.2836 26.6789C29.25 26.628 29.2165 26.579 29.1809 26.53C29.1454 26.481 29.1099 26.432 29.0724 26.3869C29.0048 26.3036 28.9613 26.2035 28.9467 26.0975C28.9321 25.9915 28.9469 25.8835 28.9895 25.7852L29.2993 25.107ZM28.0364 27.3434C28.2672 27.6632 28.3972 28.0439 28.4102 28.4372C28.4231 28.8304 28.3184 29.2187 28.1092 29.5528C27.8999 29.887 27.5956 30.152 27.2348 30.3143C26.8739 30.4767 26.4726 30.5291 26.0818 30.465C25.6909 30.4008 25.328 30.223 25.0389 29.9539C24.7498 29.6849 24.5475 29.3367 24.4576 28.9535C24.3677 28.5703 24.3943 28.1692 24.534 27.8009C24.6736 27.4327 24.9201 27.1139 25.2422 26.8847C25.674 26.5776 26.2109 26.4534 26.7349 26.5394C27.2589 26.6254 27.727 26.9146 28.0364 27.3434Z" fill="#EBEBEB"/>
<path d="M129.921 57.1758L128.437 58.0264L128.7 58.4772C128.739 58.5419 128.759 58.6165 128.756 58.6919C128.754 58.7674 128.729 58.8405 128.686 58.9025C128.641 58.9731 128.597 59.0456 128.558 59.1221C128.525 59.1897 128.474 59.2467 128.41 59.2863C128.346 59.3258 128.272 59.3464 128.197 59.3455H127.676V61.0487H128.201C128.276 61.0478 128.35 61.0684 128.414 61.108C128.478 61.1476 128.529 61.2046 128.562 61.2722C128.601 61.3486 128.645 61.4211 128.69 61.4917C128.733 61.5538 128.758 61.6269 128.76 61.7023C128.763 61.7778 128.743 61.8523 128.704 61.917L128.441 62.3678L129.925 63.2185L130.19 62.7657C130.228 62.7015 130.284 62.6491 130.35 62.6145C130.417 62.5799 130.492 62.5644 130.567 62.5697H130.819C130.894 62.5646 130.969 62.5802 131.036 62.6148C131.102 62.6494 131.158 62.7016 131.196 62.7657L131.461 63.2204L132.943 62.3698L132.68 61.917C132.643 61.852 132.625 61.7779 132.627 61.7031C132.63 61.6283 132.654 61.5558 132.696 61.4937C132.741 61.4231 132.785 61.3486 132.824 61.2741C132.857 61.2065 132.908 61.1495 132.972 61.11C133.036 61.0704 133.11 61.0498 133.185 61.0507H133.71V59.3475H133.181C133.106 59.3484 133.032 59.3278 132.968 59.2882C132.904 59.2486 132.853 59.1916 132.82 59.124C132.781 59.0495 132.737 58.9751 132.692 58.9045C132.65 58.8424 132.626 58.7699 132.623 58.6951C132.621 58.6203 132.639 58.5462 132.676 58.4811L132.939 58.0284L131.457 57.1777L131.192 57.6246C131.154 57.6888 131.098 57.7412 131.032 57.7758C130.965 57.8104 130.89 57.8259 130.815 57.8206H130.689H130.563C130.488 57.8256 130.412 57.81 130.346 57.7754C130.279 57.7409 130.223 57.6887 130.184 57.6246L129.921 57.1758ZM130.689 58.8026C130.967 58.8022 131.239 58.8838 131.47 59.037C131.702 59.1901 131.882 59.4081 131.989 59.6632C132.095 59.9182 132.123 60.199 132.069 60.4699C132.015 60.7408 131.881 60.9896 131.685 61.1849C131.488 61.3802 131.237 61.5131 130.965 61.5669C130.692 61.6207 130.409 61.5929 130.152 61.487C129.896 61.3812 129.676 61.202 129.522 60.9722C129.368 60.7424 129.286 60.4723 129.286 60.1961C129.286 60.013 129.322 59.8316 129.392 59.6623C129.463 59.4929 129.566 59.3391 129.696 59.2095C129.827 59.0799 129.981 58.977 130.152 58.9069C130.322 58.8367 130.505 58.8006 130.689 58.8006V58.8026Z" fill="#EBEBEB"/>
<path d="M33.8032 17.8659L32.4436 18.9008L32.7573 19.3143C32.8041 19.3733 32.8329 19.4443 32.8403 19.519C32.8476 19.5937 32.8332 19.6689 32.7988 19.7357C32.761 19.812 32.7281 19.8906 32.7001 19.9709C32.6758 20.0417 32.6321 20.1044 32.5738 20.1518C32.5156 20.1992 32.4452 20.2296 32.3706 20.2394L31.8496 20.3061L32.0706 21.9936L32.5916 21.927C32.6674 21.9165 32.7447 21.9275 32.8145 21.9587C32.8843 21.9899 32.9439 22.0401 32.9863 22.1034C33.0338 22.1716 33.0852 22.237 33.1402 22.2994C33.191 22.3549 33.2247 22.4238 33.2373 22.4978C33.2499 22.5718 33.2409 22.6478 33.2112 22.7169L33.0139 23.199L34.5925 23.8517L34.7899 23.3696C34.8192 23.3004 34.8675 23.2408 34.9293 23.1975C34.991 23.1542 35.0637 23.1289 35.1392 23.1246L35.2655 23.1108L35.3898 23.0912C35.4628 23.0776 35.5382 23.0841 35.6078 23.11C35.6774 23.1359 35.7385 23.1803 35.7844 23.2382L36.1061 23.6557L37.4657 22.6208L37.148 22.2073C37.1021 22.1475 37.0739 22.0763 37.0666 22.0015C37.0593 21.9267 37.0731 21.8513 37.1066 21.7839C37.144 21.7081 37.1769 21.6303 37.2052 21.5507C37.2296 21.4799 37.2733 21.4173 37.3315 21.3698C37.3897 21.3224 37.4601 21.292 37.5348 21.2822L38.0557 21.2155L37.8347 19.528L37.3138 19.5946C37.2381 19.6053 37.161 19.5946 37.0912 19.5638C37.0214 19.5329 36.9617 19.4831 36.9191 19.4202C36.8698 19.3496 36.8185 19.283 36.7632 19.2242C36.7172 19.1674 36.6875 19.0995 36.6771 19.0274C36.6667 18.9553 36.676 18.8818 36.704 18.8145L36.9013 18.3324L35.3227 17.6797L35.1253 18.1618C35.0956 18.2308 35.0472 18.2901 34.9856 18.3334C34.9239 18.3766 34.8514 18.402 34.7761 18.4068L34.6498 18.4186L34.5333 18.4225C34.4603 18.4362 34.3849 18.4297 34.3153 18.4038C34.2457 18.3779 34.1846 18.3335 34.1387 18.2755L33.8032 17.8659ZM34.7761 19.381C35.0509 19.3459 35.3301 19.3924 35.5784 19.5147C35.8267 19.6371 36.0329 19.8297 36.1711 20.0683C36.3093 20.3069 36.3733 20.5808 36.3549 20.8555C36.3365 21.1301 36.2367 21.3933 36.068 21.6116C35.8992 21.83 35.6692 21.9938 35.4068 22.0825C35.1444 22.1711 34.8615 22.1806 34.5937 22.1097C34.3259 22.0388 34.0852 21.8908 33.902 21.6842C33.7189 21.4776 33.6014 21.2218 33.5644 20.949C33.5398 20.7669 33.5516 20.5818 33.5992 20.4043C33.6468 20.2268 33.7293 20.0604 33.8419 19.9147C33.9545 19.769 34.095 19.6468 34.2554 19.5552C34.4157 19.4636 34.5926 19.4044 34.7761 19.381Z" fill="#EBEBEB"/>
<path d="M23.6438 62.0862C23.718 60.1915 23.6916 58.2942 23.5649 56.4022C23.2826 52.4954 22.6827 48.6177 21.7712 44.8069C21.2699 42.6626 20.6542 40.5537 20.0109 38.4467C19.9912 38.382 19.8886 38.3996 19.9064 38.4663C21.8935 45.8947 23.5235 53.5583 23.411 61.2807C23.3794 63.4367 23.1268 65.5633 22.9216 67.7114C22.9216 67.7683 23.0104 67.7918 23.0242 67.733C23.4327 65.8886 23.5669 63.9639 23.6438 62.0862Z" fill="#EBEBEB"/>
<path d="M19.9072 38.4609C19.9072 38.4609 16.8999 46.0461 17.5728 47.8219C18.2457 49.5977 19.6349 49.9779 19.6349 49.9779C19.6349 49.9779 17.7938 52.5886 19.0804 55.0367C20.367 57.4847 23.2244 57.3691 23.4217 60.1444C23.4158 60.1581 23.5737 48.553 19.9072 38.4609Z" fill="#EBEBEB"/>
<path d="M23.0889 55.3653C23.0937 55.3527 23.0937 55.3387 23.0889 55.3261C22.6942 50.1476 21.7159 45.0294 20.1723 40.0675C20.1723 40.0538 20.1427 40.0577 20.1466 40.0675C20.7426 42.2888 21.2688 44.5193 21.7253 46.7589C21.321 46.3785 20.8271 46.1049 20.2887 45.9632C20.2887 45.9632 20.2729 45.9749 20.2887 45.9788C20.8543 46.1847 21.3628 46.5205 21.7727 46.9588C21.8595 47.3998 21.9463 47.8389 22.0272 48.2799C21.3543 47.5331 20.4229 47.1627 19.4895 46.8099C19.4874 46.8108 19.4856 46.8123 19.4844 46.8142C19.4831 46.8161 19.4824 46.8184 19.4824 46.8207C19.4824 46.8229 19.4831 46.8252 19.4844 46.8271C19.4856 46.829 19.4874 46.8305 19.4895 46.8314C20.4624 47.2234 21.4293 47.7291 22.0884 48.5621C22.3173 49.8204 22.5186 51.0833 22.6923 52.3508C22.2064 51.8452 21.5833 51.4905 20.8985 51.3296C20.8768 51.3296 20.8649 51.3551 20.8866 51.361C21.5901 51.5668 22.2181 51.9713 22.6942 52.5252H22.7061C22.7653 52.9695 22.8218 53.4157 22.8758 53.8639C22.4999 53.548 22.0755 53.2939 21.6188 53.1113C21.6069 53.1113 21.599 53.125 21.6188 53.1289C22.0849 53.3295 22.5117 53.6101 22.8797 53.958C22.8797 53.958 22.8896 53.958 22.8955 53.958C22.9448 54.3833 22.9942 54.8086 23.0376 55.234C22.36 54.4203 21.4806 53.7961 20.4861 53.4229C20.4819 53.4229 20.4779 53.4246 20.4749 53.4275C20.4719 53.4304 20.4703 53.4344 20.4703 53.4386C20.4703 53.4428 20.4719 53.4467 20.4749 53.4497C20.4779 53.4526 20.4819 53.4543 20.4861 53.4543C21.4681 53.8842 22.3307 54.5439 23.0001 55.377C23.0075 55.3862 23.0174 55.3929 23.0287 55.3964C23.0399 55.3999 23.0519 55.4 23.0632 55.3966C23.1284 56.0493 23.1876 56.702 23.2349 57.3566C23.2349 57.3664 23.2507 57.3664 23.2507 57.3566C23.1994 56.6994 23.1455 56.0356 23.0889 55.3653Z" fill="white"/>
<path d="M20.671 45.2168C20.1263 44.8801 19.5042 44.6872 18.8634 44.6562C18.8603 44.6563 18.8573 44.6575 18.855 44.6597C18.8528 44.6619 18.8516 44.6649 18.8516 44.668C18.8516 44.6711 18.8528 44.6741 18.855 44.6763C18.8573 44.6785 18.8603 44.6798 18.8634 44.6798C19.4829 44.7965 20.0841 44.9942 20.6512 45.2678C20.6749 45.2736 20.6927 45.2325 20.671 45.2168Z" fill="white"/>
<path d="M21.0363 53.2497C20.6177 53.011 20.1567 52.8547 19.6786 52.7891C19.6628 52.7891 19.6608 52.8106 19.6786 52.8145C20.1455 52.9076 20.5971 53.0646 21.0205 53.281C21.0382 53.2908 21.054 53.2595 21.0363 53.2497Z" fill="white"/>
<path d="M31.5531 47.9558C30.2809 48.8293 29.1124 49.8432 28.0702 50.9781C26.9953 52.1798 26.1662 53.5778 25.6292 55.0941C24.4862 58.2533 23.8716 61.5769 23.8098 64.9333C23.7714 66.792 23.9509 68.6489 24.3445 70.4664C24.3477 70.4796 24.3559 70.4911 24.3674 70.4985C24.3789 70.5058 24.3928 70.5086 24.4062 70.506C24.4197 70.5035 24.4316 70.496 24.4396 70.4849C24.4476 70.4739 24.451 70.4602 24.4491 70.4468C23.9593 67.2395 23.9779 63.9758 24.5044 60.7742C25.0214 57.6382 25.8324 54.2239 27.8413 51.6739C28.9345 50.2843 30.2981 49.1925 31.6459 48.0636C31.7169 48.0009 31.6261 47.9048 31.5531 47.9558Z" fill="#EBEBEB"/>
<path d="M24.252 62.6713C24.9761 61.5079 25.8272 60.4273 26.7897 59.4491C28.2953 57.9536 29.5622 56.8913 29.7595 55.9034C29.9569 54.9156 28.2519 54.1865 28.2519 54.1865C28.2519 54.1865 30.3338 54.5589 30.9041 53.6906C31.4744 52.8223 31.7486 47.793 31.7486 47.793C31.7486 47.793 27.9598 50.4801 26.1937 54.2472C24.4276 58.0144 24.252 62.6713 24.252 62.6713Z" fill="#EBEBEB"/>
<path d="M30.3886 52.5086C30.1391 52.4717 29.8862 52.4632 29.6347 52.4831C29.6051 52.4831 29.6071 52.5341 29.6347 52.5361C29.8834 52.5361 30.134 52.5243 30.3826 52.5361C30.3855 52.5353 30.3881 52.5338 30.3901 52.5317C30.3921 52.5296 30.3935 52.527 30.3941 52.5242C30.3948 52.5213 30.3946 52.5183 30.3936 52.5156C30.3926 52.5129 30.3909 52.5104 30.3886 52.5086Z" fill="white"/>
<path d="M27.6682 57.3867C27.2681 57.3948 26.8726 57.4731 26.5 57.618C26.5 57.618 26.5 57.6376 26.5 57.6356C26.8947 57.5435 27.2755 57.5063 27.6662 57.4396C27.6713 57.4374 27.6757 57.4338 27.6788 57.4293C27.682 57.4247 27.6837 57.4193 27.684 57.4138C27.6842 57.4083 27.6828 57.4028 27.68 57.398C27.6772 57.3932 27.6731 57.3893 27.6682 57.3867Z" fill="white"/>
<path d="M26.8513 55.7032C26.6852 55.7019 26.5193 55.7163 26.356 55.7463C26.353 55.7474 26.3504 55.7494 26.3485 55.7521C26.3467 55.7547 26.3457 55.7578 26.3457 55.761C26.3457 55.7642 26.3467 55.7673 26.3485 55.77C26.3504 55.7726 26.353 55.7746 26.356 55.7757C26.5214 55.7852 26.6874 55.778 26.8513 55.7542C26.8581 55.7542 26.8646 55.7515 26.8694 55.7467C26.8743 55.7419 26.877 55.7354 26.877 55.7287C26.877 55.7219 26.8743 55.7154 26.8694 55.7107C26.8646 55.7059 26.8581 55.7032 26.8513 55.7032Z" fill="white"/>
<path d="M13.1445 53.2887C14.3777 53.7039 15.5594 54.2569 16.6669 54.9371C17.816 55.6624 18.8126 56.6022 19.6012 57.7046C21.2606 59.9988 22.5311 62.5471 23.3624 65.2486C23.826 66.7444 24.1121 68.2889 24.2149 69.8507C24.2127 69.8608 24.2071 69.8699 24.199 69.8764C24.191 69.8829 24.1809 69.8864 24.1705 69.8864C24.1601 69.8864 24.15 69.8829 24.1419 69.8764C24.1338 69.8699 24.1282 69.8608 24.1261 69.8507C23.7778 67.1428 23.004 64.5059 21.8331 62.0362C20.6826 59.6156 19.2322 57.0402 17.0142 55.4369C15.8065 54.5647 14.4488 53.9923 13.0951 53.3887C13.0241 53.3651 13.0734 53.2652 13.1445 53.2887Z" fill="#EBEBEB"/>
<path d="M22.4784 63.5206C21.6211 62.7458 20.6808 62.0669 19.6743 61.4959C18.1075 60.6315 16.8347 60.0631 16.446 59.3085C16.0572 58.5539 17.2669 57.5739 17.2669 57.5739C17.2669 57.5739 15.6685 58.3579 15.0054 57.7797C14.3424 57.2015 12.9492 53.2031 12.9492 53.2031C12.9492 53.2031 16.6413 54.5065 18.9442 57.1506C21.2471 59.7946 22.4784 63.5206 22.4784 63.5206Z" fill="#EBEBEB"/>
<path d="M19.4133 59.8428C19.0503 59.8176 18.6859 59.8622 18.3398 59.9741C18.3398 59.9741 18.3398 59.9917 18.3398 59.9898C18.6928 59.9296 19.0495 59.893 19.4074 59.88C19.4331 59.88 19.439 59.8447 19.4133 59.8428Z" fill="white"/>
<path d="M16.194 55.6466C16.0284 55.6332 15.8618 55.6424 15.6987 55.674C15.6809 55.674 15.6869 55.7054 15.6987 55.7034C15.8625 55.6858 16.0223 55.6917 16.1841 55.6878C16.1892 55.688 16.1941 55.6864 16.1981 55.6834C16.2021 55.6804 16.205 55.6761 16.2061 55.6712C16.2073 55.6663 16.2067 55.6612 16.2045 55.6567C16.2023 55.6523 16.1986 55.6487 16.194 55.6466Z" fill="white"/>
<path d="M27.2396 74.9053H18.9062L20.0942 66.2597L20.3981 64.043H25.7478L26.0517 66.2597L27.2396 74.9053Z" fill="#DBDBDB"/>
<path d="M26.0512 66.2597H20.0938L20.3976 64.043H25.7473L26.0512 66.2597Z" fill="#C7C7C7"/>
<path d="M26.5119 63.2773H19.6328V65.155H26.5119V63.2773Z" fill="#DBDBDB"/>
<path d="M13.6074 74.9066L28.6067 74.8596L43.606 74.8419L73.6047 74.8086L103.603 74.8419L118.603 74.8596L133.602 74.9066L118.603 74.9556L103.603 74.9713L73.6047 75.0046L43.606 74.9713L28.6067 74.9536L13.6074 74.9066Z" fill="#263238"/>
<path d="M73.9994 89.5159C105.249 89.5159 130.583 86.7587 130.583 83.3575C130.583 79.9564 105.249 77.1992 73.9994 77.1992C42.7492 77.1992 17.416 79.9564 17.416 83.3575C17.416 86.7587 42.7492 89.5159 73.9994 89.5159Z" fill="#EBEBEB"/>
<path d="M60.8281 82.3367C60.3683 82.4915 47.1845 82.5327 46.6793 82.223C46.482 82.1054 46.3695 80.1983 46.2847 77.8895C46.2669 77.3916 46.2531 76.8761 46.2412 76.3548L45.1895 69.3693L54.0043 69.3125L54.8351 76.2999L54.8016 77.8365C54.8016 77.8365 59.8572 80.0611 60.3743 80.4649C60.8913 80.8687 61.2879 82.1819 60.8281 82.3367Z" fill="#EB9481"/>
<path d="M60.827 82.3376C60.3672 82.4924 47.1834 82.5336 46.6782 82.2239C46.4454 82.0789 46.3191 79.2937 46.248 76.3557L54.8242 76.3008L54.7906 77.8374C54.7906 77.8374 59.8463 80.062 60.3633 80.4658C60.8803 80.8695 61.2868 82.1827 60.827 82.3376Z" fill="white"/>
<path d="M60.8286 82.34C60.3688 82.4948 47.185 82.536 46.6798 82.2263C46.4825 82.1087 46.37 80.2016 46.2852 77.8928L54.7843 77.8398C54.7843 77.8398 59.84 80.0644 60.357 80.4682C60.874 80.872 61.2884 82.1852 60.8286 82.34Z" fill="#A6A6A6"/>
<path d="M60.636 81.816C58.4259 81.769 49.5064 81.7905 47.318 81.9121C47.3002 81.9121 47.3002 81.9238 47.318 81.9258C49.5084 82.0179 58.4279 81.9258 60.636 81.8513C60.6834 81.8493 60.6834 81.816 60.636 81.816Z" fill="#263238"/>
<path d="M59.5127 79.9965C59.2669 79.9911 59.0227 80.0363 58.7954 80.1294C58.5682 80.2225 58.3629 80.3615 58.1925 80.5375C57.882 80.8516 57.7065 81.2733 57.7031 81.7135C57.7031 81.7272 57.7268 81.7272 57.7288 81.7135C57.8022 81.2799 58.0148 80.8814 58.3348 80.5776C58.6549 80.2738 59.0653 80.081 59.5048 80.0279C59.509 80.0289 59.5134 80.0283 59.5171 80.0261C59.5208 80.0239 59.5235 80.0203 59.5245 80.0161C59.5256 80.012 59.5249 80.0076 59.5227 80.0039C59.5205 80.0002 59.5169 79.9976 59.5127 79.9965Z" fill="#263238"/>
<path d="M55.6477 78.0549C54.7636 78.0451 53.7395 78.3587 53.1909 79.08C53.1712 79.1074 53.2106 79.1368 53.2363 79.1231C54.0087 78.7182 54.8223 78.3962 55.6635 78.1627C55.6765 78.1592 55.6877 78.151 55.6951 78.1398C55.7025 78.1286 55.7055 78.1151 55.7036 78.1019C55.7016 78.0886 55.6949 78.0765 55.6846 78.0679C55.6743 78.0592 55.6612 78.0546 55.6477 78.0549Z" fill="#263238"/>
<path d="M56.3342 78.3125C55.4481 78.3125 54.424 78.6183 53.8774 79.3376C53.8557 79.367 53.8951 79.3964 53.9228 79.3827C54.694 78.9763 55.5071 78.6536 56.348 78.4203C56.3608 78.4168 56.3719 78.4088 56.3793 78.3978C56.3867 78.3868 56.3899 78.3736 56.3882 78.3604C56.3865 78.3473 56.3801 78.3353 56.3702 78.3265C56.3603 78.3176 56.3475 78.3127 56.3342 78.3125Z" fill="#263238"/>
<path d="M57.0168 78.5781C56.1328 78.5781 55.1086 78.8819 54.56 79.6032C54.5403 79.6307 54.5798 79.6601 54.6054 79.6463C55.3778 79.2414 56.1915 78.9194 57.0326 78.6859C57.0456 78.6824 57.0569 78.6743 57.0643 78.6631C57.0716 78.6519 57.0746 78.6384 57.0727 78.6251C57.0708 78.6119 57.064 78.5998 57.0537 78.5911C57.0434 78.5825 57.0303 78.5778 57.0168 78.5781Z" fill="#263238"/>
<path d="M57.7012 78.8401C56.8151 78.8303 55.791 79.1439 55.2444 79.8651C55.2227 79.8926 55.2641 79.922 55.2898 79.9083C56.062 79.503 56.8757 79.181 57.7169 78.9479C57.73 78.9443 57.7412 78.9362 57.7486 78.925C57.756 78.9138 57.759 78.9003 57.757 78.887C57.7551 78.8738 57.7483 78.8617 57.7381 78.853C57.7278 78.8444 57.7146 78.8398 57.7012 78.8401Z" fill="#263238"/>
<path d="M47.8748 79.8242C46.8881 79.8242 46.8881 81.3628 47.8748 81.357C48.8614 81.3511 48.8693 79.8184 47.8748 79.8242Z" fill="#263238"/>
<path d="M56.5974 75.7071C56.1495 75.3386 55.5851 75.7071 55.3108 76.0854C54.8542 76.754 54.5821 77.5298 54.5215 78.3354C54.5215 78.3531 54.5353 78.3609 54.5491 78.3609C54.5526 78.3775 54.5601 78.393 54.5709 78.4061C54.5817 78.4193 54.5955 78.4296 54.6111 78.4363C54.6268 78.4431 54.6439 78.446 54.6609 78.4448C54.6779 78.4436 54.6944 78.4383 54.7089 78.4295C55.3365 77.9964 56.0627 77.6083 56.5382 76.9948C56.8086 76.6381 57.0296 76.0501 56.5974 75.7071ZM55.52 77.5769C55.2161 77.7984 54.9023 78.0042 54.6063 78.2374C54.7642 77.7984 54.9004 77.3554 55.1016 76.9321C55.1946 76.7291 55.3014 76.5326 55.4213 76.3441C55.6187 76.052 56.479 75.3151 56.5698 76.2696C56.6211 76.7929 55.8811 77.3143 55.52 77.5769Z" fill="#263238"/>
<path d="M52.3185 78.6654C53.0881 78.779 53.8833 78.5595 54.6391 78.44C54.6555 78.4357 54.6707 78.4277 54.6835 78.4166C54.6962 78.4055 54.7061 78.3915 54.7124 78.3759C54.7188 78.3603 54.7213 78.3434 54.7199 78.3266C54.7185 78.3098 54.7131 78.2936 54.7043 78.2792C54.7071 78.277 54.7094 78.2742 54.711 78.271C54.7126 78.2678 54.7135 78.2642 54.7135 78.2606C54.7135 78.257 54.7126 78.2535 54.711 78.2502C54.7094 78.247 54.7071 78.2442 54.7043 78.242C54.097 77.7041 53.3579 77.3343 52.5612 77.1699C52.0955 77.0817 51.4364 77.2091 51.3772 77.7834C51.3062 78.3243 51.8686 78.5948 52.3185 78.6654ZM51.7817 78.1675C51.1897 77.4149 52.3205 77.3502 52.6599 77.4286C52.8801 77.4833 53.0963 77.5527 53.3071 77.6364C53.7387 77.8141 54.1609 78.0136 54.572 78.2342C54.1971 78.2714 53.8281 78.338 53.4551 78.389C53.0092 78.4478 52.1133 78.5811 51.7817 78.1675Z" fill="#263238"/>
<path d="M32.2285 37.082C32.2285 37.082 42.4642 54.3771 42.7385 55.5923C43.1588 57.4582 45.3867 75.8842 45.3867 75.8842L56.0427 75.6882C56.0427 75.6882 54.2075 59.4417 52.469 54.089C51.2179 50.2336 42.184 37.4466 42.184 37.4466L32.2285 37.082Z" fill="#37474F"/>
<path d="M55.0738 74.0734C53.5445 74.0616 48.1238 74.0008 46.0873 74.189C46.0715 74.189 46.0735 74.2164 46.0873 74.2184C46.7878 74.3184 53.5425 74.1635 55.0719 74.1145C55.0751 74.1157 55.0785 74.1161 55.0819 74.1157C55.0852 74.1152 55.0885 74.1141 55.0913 74.1122C55.0941 74.1103 55.0965 74.1078 55.0981 74.1049C55.0998 74.1019 55.1008 74.0986 55.1009 74.0953C55.1011 74.0919 55.1004 74.0885 55.0991 74.0855C55.0977 74.0824 55.0956 74.0797 55.093 74.0775C55.0903 74.0754 55.0872 74.0739 55.0839 74.0732C55.0806 74.0725 55.0771 74.0725 55.0738 74.0734Z" fill="#263238"/>
<path d="M33.9742 38.6728C34.6451 39.7175 35.3555 40.7406 36.0383 41.7774C36.7211 42.8143 37.4078 43.8511 38.0846 44.886C39.4344 46.9767 40.75 49.081 42.0313 51.1991C42.6567 52.181 43.1916 53.2168 43.6297 54.294C44.0296 55.3714 44.3301 56.4828 44.5276 57.6142C44.7367 58.7491 44.8749 59.8957 45.0031 61.0423C45.1347 62.2614 45.2722 63.4812 45.4156 64.7016C45.6958 67.1986 45.9767 69.6957 46.2582 72.1927C46.2917 72.4985 46.3253 72.8042 46.3569 73.1119C46.3569 73.157 46.2799 73.1649 46.274 73.1119C45.9602 70.6325 45.6997 68.1433 45.4156 65.6639C45.2735 64.4265 45.1321 63.1898 44.9913 61.9537C44.8591 60.8031 44.7328 59.6507 44.5532 58.508C44.3884 57.3801 44.1378 56.2662 43.8034 55.176C43.4349 54.0471 42.9412 52.9624 42.3313 51.942C41.0979 49.8271 39.7916 47.7495 38.4852 45.67C37.1789 43.5904 35.837 41.4932 34.4596 39.4391C34.2899 39.1863 34.1182 38.9335 33.9406 38.6845C33.9268 38.6708 33.9623 38.6532 33.9742 38.6728Z" fill="#263238"/>
<path d="M35.583 83.3562C35.0975 83.3268 22.559 78.2817 22.2117 77.8035C22.1962 77.7753 22.1893 77.7433 22.1919 77.7113C22.1919 77.2821 23.0622 75.7847 23.7884 73.8168C23.8338 73.6914 24.1574 73.1073 24.6053 72.3213C25.8505 70.1673 28.0212 66.457 28.0212 66.457L36.2164 69.691L32.2934 75.522L31.6837 76.9332C31.6837 76.9332 35.5297 80.8826 35.8533 81.4412C36.177 81.9998 36.0665 83.3836 35.583 83.3562Z" fill="#EB9481"/>
<path d="M35.583 83.359C35.0975 83.3296 22.559 78.2846 22.2117 77.8063C22.1962 77.7782 22.1893 77.7462 22.1919 77.7142C22.1919 77.285 23.0622 75.7875 23.7884 73.8197C23.8338 73.6943 24.1574 73.1102 24.6053 72.3242L32.3013 75.5249L31.6916 76.9361C31.6916 76.9361 35.5376 80.8855 35.8612 81.4441C36.1848 82.0027 36.0665 83.3865 35.583 83.359Z" fill="white"/>
<path d="M35.5823 83.3557C35.0968 83.3263 22.5582 78.2813 22.2109 77.803C22.0768 77.6208 22.6372 75.9214 23.7896 73.8164L31.6829 76.9348C31.6829 76.9348 35.529 80.8802 35.8546 81.4428C36.1802 82.0053 36.0657 83.3832 35.5823 83.3557Z" fill="#A6A6A6"/>
<path d="M35.6026 82.8023C33.572 81.9359 25.2958 78.6314 23.2219 77.9297C23.2041 77.9297 23.2002 77.9297 23.2219 77.9414C25.2169 78.843 33.5187 82.081 35.5947 82.8414C35.6341 82.8512 35.646 82.8199 35.6026 82.8023Z" fill="#263238"/>
<path d="M35.2484 80.6959C35.0233 80.5976 34.78 80.5469 34.5341 80.5469C34.2881 80.5469 34.0449 80.5976 33.8197 80.6959C33.4149 80.8719 33.094 81.1963 32.9238 81.6014C32.9238 81.6131 32.9416 81.6229 32.9475 81.6112C33.1801 81.2354 33.5291 80.9446 33.9422 80.7824C34.3552 80.6202 34.8101 80.5953 35.2386 80.7115C35.2419 80.7106 35.2447 80.7085 35.2465 80.7056C35.2484 80.7027 35.249 80.6992 35.2484 80.6959Z" fill="#263238"/>
<path d="M32.401 77.4559C31.586 77.1169 30.5164 77.0267 29.737 77.4912C29.7074 77.5089 29.737 77.55 29.7626 77.5481C30.6315 77.4605 31.5074 77.4651 32.3753 77.5618C32.3887 77.5632 32.4021 77.5598 32.4131 77.5521C32.4241 77.5444 32.4319 77.533 32.435 77.5201C32.4382 77.5071 32.4364 77.4934 32.4302 77.4816C32.4239 77.4698 32.4135 77.4607 32.401 77.4559Z" fill="#263238"/>
<path d="M32.9342 77.952C32.1192 77.6129 31.0496 77.5228 30.2702 77.9873C30.2406 78.0049 30.2702 78.0461 30.2958 78.0441C31.1647 77.9556 32.0406 77.9602 32.9085 78.0579C32.9219 78.0593 32.9353 78.0559 32.9463 78.0482C32.9573 78.0405 32.9651 78.0291 32.9682 78.0162C32.9714 78.0032 32.9696 77.9895 32.9634 77.9777C32.9571 77.9659 32.9467 77.9568 32.9342 77.952Z" fill="#263238"/>
<path d="M33.4722 78.452C32.6552 78.1129 31.5857 78.0228 30.8082 78.4873C30.7766 78.5049 30.8082 78.5461 30.8319 78.5441C31.7008 78.4556 32.5767 78.4602 33.4446 78.5579C33.4582 78.5601 33.4722 78.5573 33.4838 78.5498C33.4954 78.5423 33.5037 78.5308 33.5072 78.5175C33.5107 78.5042 33.509 78.4901 33.5025 78.478C33.496 78.4659 33.4852 78.4566 33.4722 78.452Z" fill="#263238"/>
<path d="M34.0054 78.9484C33.1884 78.6093 32.1209 78.5192 31.3414 78.9817C31.3098 79.0013 31.3414 79.0425 31.3651 79.0405C32.234 78.952 33.1099 78.9566 33.9778 79.0542C33.9914 79.0565 34.0054 79.0536 34.017 79.0461C34.0286 79.0387 34.0369 79.0272 34.0404 79.0139C34.0439 79.0006 34.0422 78.9865 34.0357 78.9744C34.0292 78.9623 34.0184 78.953 34.0054 78.9484Z" fill="#263238"/>
<path d="M24.5235 76.1998C23.6019 75.8352 23.0297 77.2601 23.9552 77.6247C24.8807 77.9893 25.4549 76.5643 24.5235 76.1998Z" fill="#263238"/>
<path d="M34.1671 75.6311C33.8888 75.1235 33.2317 75.2489 32.8311 75.5018C32.1563 75.9508 31.612 76.5678 31.2525 77.2912C31.2509 77.2944 31.25 77.2979 31.25 77.3014C31.25 77.305 31.2507 77.3085 31.2523 77.3117C31.2538 77.3149 31.256 77.3177 31.2588 77.3199C31.2615 77.3222 31.2648 77.3237 31.2682 77.3245C31.2682 77.3892 31.3117 77.4657 31.3886 77.45C32.1365 77.2795 32.9554 77.1913 33.6264 76.7993C34.0112 76.5719 34.4295 76.1113 34.1671 75.6311ZM32.4601 76.962C32.0951 77.0541 31.728 77.1286 31.3669 77.2344C31.6656 76.8769 31.9824 76.5348 32.3161 76.2093C32.4803 76.054 32.6551 75.9099 32.839 75.7781C33.1252 75.5821 34.2065 75.2195 33.9303 76.1388C33.7783 76.6464 32.8962 76.8522 32.4601 76.962Z" fill="#263238"/>
<path d="M29.0799 76.7846C29.7509 77.1766 30.5698 77.2687 31.3157 77.4412C31.3927 77.4589 31.444 77.3824 31.4381 77.3158C31.4418 77.3154 31.4453 77.3141 31.4483 77.3119C31.4514 77.3098 31.4538 77.3069 31.4554 77.3035C31.457 77.3002 31.4577 77.2965 31.4574 77.2928C31.4571 77.2891 31.4559 77.2856 31.4539 77.2825C31.0949 76.5576 30.5505 75.9392 29.8752 75.4891C29.4805 75.2343 28.8195 75.1069 28.5392 75.6125C28.259 76.1182 28.6872 76.5553 29.0799 76.7846ZM28.7721 76.1221C28.4978 75.2029 29.5772 75.5675 29.8634 75.7654C30.0471 75.8974 30.2212 76.0422 30.3843 76.1986C30.7173 76.5248 31.0335 76.8676 31.3315 77.2256C30.9704 77.1198 30.6034 77.0433 30.2383 76.9512C29.7963 76.8336 28.9221 76.6376 28.7721 76.1221Z" fill="#263238"/>
<path d="M32.9299 75.197L23.7559 71.5181C23.7559 71.5181 35.1302 54.9071 35.213 53.6703C35.288 52.5766 30.2915 43.0471 30.0962 40.2698C29.8831 37.271 31.3354 34.9523 32.9338 33.5117L42.396 37.5082C42.396 37.5082 41.3975 39.0938 39.8306 39.9778C39.8306 39.9778 44.6831 50.993 44.4068 54.3798C44.1305 57.7667 32.9299 75.197 32.9299 75.197Z" fill="#37474F"/>
<path d="M33.3373 73.4642C32.0112 72.8978 32.4 73.0409 31.066 72.4842C30.4148 72.2138 26.1326 70.4439 25.4736 70.2969C25.4597 70.2969 25.4499 70.3165 25.4637 70.3243C26.034 70.6712 30.3516 72.3666 31.0088 72.6254C32.3526 73.1506 31.9717 72.986 33.3215 73.4956C33.3235 73.4983 33.3262 73.5004 33.3293 73.5017C33.3323 73.5031 33.3357 73.5037 33.3391 73.5034C33.3424 73.5031 33.3456 73.5019 33.3484 73.5C33.3512 73.4981 33.3534 73.4956 33.3549 73.4926C33.3564 73.4896 33.3572 73.4863 33.357 73.483C33.3568 73.4796 33.3558 73.4764 33.3541 73.4735C33.3523 73.4707 33.3498 73.4683 33.3469 73.4667C33.344 73.4651 33.3406 73.4642 33.3373 73.4642Z" fill="#263238"/>
<path d="M41.3819 39.7751C40.3968 40.0031 39.433 40.3139 38.5009 40.7041C38.4971 40.7054 38.4936 40.7074 38.4907 40.71C38.4877 40.7126 38.4853 40.7158 38.4835 40.7194C38.4818 40.7229 38.4808 40.7268 38.4805 40.7307C38.4803 40.7346 38.4808 40.7386 38.4821 40.7423C38.4834 40.7461 38.4854 40.7495 38.4881 40.7525C38.4907 40.7554 38.4939 40.7578 38.4975 40.7596C38.5011 40.7613 38.5049 40.7623 38.5089 40.7625C38.5129 40.7628 38.5168 40.7622 38.5206 40.7609C39.4875 40.4807 40.4703 40.218 41.4214 39.8868C41.4944 39.8613 41.4569 39.7594 41.3819 39.7751Z" fill="#263238"/>
<path d="M40.2557 39.3946C40.1638 39.5571 40.0827 39.7253 40.013 39.8984C39.9449 40.0297 39.9027 40.1727 39.8887 40.3198C39.8887 40.3492 39.9281 40.355 39.9459 40.3374C40.0449 40.2198 40.1248 40.0875 40.1827 39.9454C40.2636 39.7906 40.3465 39.6377 40.4234 39.4789C40.4767 39.3633 40.3169 39.2888 40.2557 39.3946Z" fill="#263238"/>
<path d="M40.3734 38.5071C40.4326 38.3621 40.4899 38.219 40.551 38.074C40.6122 37.9289 40.6892 37.78 40.7484 37.6271C40.7484 37.6036 40.7957 37.6271 40.7859 37.6447C40.7267 37.7898 40.6892 37.9426 40.6438 38.0916C40.5984 38.2406 40.5471 38.3895 40.4978 38.5385C40.405 38.8148 40.3004 39.0892 40.1722 39.3578C40.3274 39.3655 40.4825 39.3387 40.626 39.2794C40.7726 39.1862 40.8854 39.0488 40.9477 38.8874C41.0306 38.7266 41.1075 38.562 41.1924 38.4013C41.2968 38.2275 41.3847 38.0444 41.4548 37.8544C41.4548 37.8309 41.5022 37.8544 41.4923 37.8721C41.3637 38.2738 41.1951 38.6618 40.9891 39.0304C40.9003 39.1735 40.8313 39.3244 40.6694 39.3793C40.4943 39.428 40.311 39.4407 40.1307 39.4166C40.107 39.4166 40.0794 39.4166 40.0873 39.3813C40.1681 39.0854 40.2636 38.7936 40.3734 38.5071Z" fill="#263238"/>
<path d="M39.9709 40.3384C40.3083 41.046 40.6043 41.7516 40.9181 42.4572C41.2318 43.1628 41.5101 43.8449 41.7923 44.5466C42.3566 45.9617 42.8618 47.4042 43.3058 48.8586C43.5249 49.5798 43.7281 50.307 43.9097 51.04C44.1096 51.7707 44.256 52.5149 44.3477 53.2666C44.4269 54.0171 44.3599 54.7757 44.1504 55.501C43.9328 56.218 43.6535 56.915 43.3157 57.5845C43.1085 58.0078 43.0394 57.951 43.1381 57.7374C43.4203 57.1298 44.1603 55.2893 44.107 53.7429C44.0638 53.0025 43.9488 52.268 43.7636 51.5496C43.5913 50.8088 43.3973 50.0738 43.1815 49.3446C42.7612 47.906 42.2619 46.4968 41.7489 45.0895C41.4608 44.3055 41.1569 43.5215 40.8609 42.7375C40.5649 41.9535 40.2689 41.2322 39.9373 40.3659C39.9275 40.3306 39.961 40.3169 39.9709 40.3384Z" fill="#263238"/>
<path d="M33.0078 37.9973C33.1716 37.9365 33.4025 38.0365 33.5682 38.0639C33.7829 38.1001 33.9998 38.1217 34.2175 38.1286C34.4328 38.1361 34.6484 38.1289 34.8628 38.107C35.0786 38.1015 35.2902 38.0458 35.4804 37.9443C35.7926 37.7185 36.0601 37.4374 36.2697 37.1153C36.5195 36.7861 36.7258 36.4264 36.8834 36.0451C36.8834 36.0216 36.9249 36.0451 36.917 36.0608C36.8479 36.2783 36.7966 36.4979 36.7197 36.7115C36.6346 36.9122 36.5329 37.1056 36.4158 37.2897C36.2258 37.6601 35.9448 37.977 35.5988 38.2109C35.2179 38.4265 34.7286 38.4069 34.3043 38.3893C34.0582 38.375 33.8135 38.3429 33.5722 38.2932C33.3985 38.256 33.1065 38.2285 32.996 38.0776C32.9908 38.0719 32.9869 38.065 32.9847 38.0576C32.9824 38.0502 32.9819 38.0424 32.983 38.0347C32.9841 38.027 32.9869 38.0197 32.9912 38.0132C32.9955 38.0068 33.0012 38.0013 33.0078 37.9973Z" fill="#263238"/>
<path d="M26.3752 69.777C27.8828 67.5086 29.3628 65.2219 30.8152 62.917C32.2676 60.612 33.7002 58.2894 35.1131 55.9492C35.4506 55.3906 35.8393 54.8339 36.0564 54.2146C36.2932 53.5423 36.159 52.8896 35.9459 52.231C35.5434 51.0296 35.073 49.8518 34.5369 48.703C34.0081 47.5447 33.4378 46.4059 32.8773 45.2632C32.3169 44.1206 31.7308 42.9916 31.2987 41.7999C30.904 40.6612 30.7442 39.4812 31.052 38.3013C31.3598 37.1214 32.0229 36.0787 32.7155 35.0967C32.8971 34.838 33.0845 34.5812 33.2681 34.3127C33.2819 34.2931 33.3115 34.3127 33.2977 34.3362C32.534 35.3593 31.79 36.4432 31.3421 37.6447C31.1131 38.2369 30.9851 38.8629 30.9632 39.4969C30.9595 40.1405 31.0601 40.7804 31.2612 41.3922C31.6322 42.5839 32.2182 43.7109 32.7649 44.832C33.3115 45.9532 33.8956 47.1135 34.4343 48.2679C34.9901 49.4298 35.4841 50.6199 35.9143 51.8332C36.0978 52.3722 36.309 52.9366 36.2932 53.5148C36.2794 54.1479 35.9755 54.7183 35.6597 55.2514C34.2784 57.574 32.8635 59.8692 31.423 62.1506C29.9825 64.432 28.5005 66.7135 27.0007 68.9714L26.4324 69.824C26.4028 69.8593 26.3515 69.8181 26.3752 69.777Z" fill="#263238"/>
<path d="M42.9223 26.9436C43.7768 28.8056 48.0925 31.3712 50.1132 31.6476C51.5655 31.8436 55.9819 31.9142 57.4954 31.6848C59.2714 31.4144 57.9138 26.6614 56.8659 26.7848C53.9848 27.118 51.5379 27.4904 50.7683 27.4904C49.829 27.4904 44.7477 25.8715 44.1359 25.6422C42.6362 25.0875 42.4389 25.8872 42.9223 26.9436Z" fill="#EB9481"/>
<path d="M42.9504 27.4417C44.0317 29.0313 47.6252 31.6303 47.6252 31.6303L48.1244 30.5327L49.7761 26.9027C49.7761 26.9027 46.4747 25.8737 44.3021 25.4033C44.0464 25.3456 43.7864 25.3088 43.5246 25.2936C42.1373 25.2191 42.017 26.0697 42.9504 27.4417Z" fill="#FD7E14"/>
<path d="M42.9504 27.4422C44.0317 29.0318 47.6252 31.6307 47.6252 31.6307L48.1244 30.5331C46.7845 28.9867 44.7145 26.6445 43.5246 25.298C42.1373 25.2196 42.017 26.0702 42.9504 27.4422Z" fill="#263238"/>
<path d="M46.9772 30.8933C47.2515 30.2249 48.471 27.5338 48.7749 26.9733C48.7947 26.9341 48.8262 26.938 48.8085 26.9733C48.2795 28.3115 47.6774 29.6201 47.0049 30.8933C46.997 30.9168 46.9654 30.9089 46.9772 30.8933Z" fill="#263238"/>
<path d="M56.3359 26.8333C58.0883 26.6059 60.257 26.2159 62.0941 26.9901C62.3005 27.0705 62.4736 27.2175 62.5855 27.4076C63.4143 27.7408 63.5051 28.2288 63.5051 28.2288C64.1819 28.7737 64.2056 29.2872 64.2056 29.2872C64.2056 29.2872 65.1765 29.6792 65.0285 30.3103C64.8667 31.0081 63.5366 30.3103 62.5697 30.3672C60.3497 30.5044 57.2417 31.3138 56.6004 31.4158L56.3359 26.8333Z" fill="#EB9481"/>
<path d="M60.1428 28.8882C60.7919 28.8441 61.4433 28.8441 62.0925 28.8882C62.7994 28.9763 63.4986 29.1172 64.1842 29.3096C64.1887 29.3112 64.1935 29.3109 64.1978 29.3089C64.2021 29.3069 64.2053 29.3032 64.2069 29.2988C64.2085 29.2944 64.2082 29.2896 64.2062 29.2853C64.2041 29.2811 64.2005 29.2778 64.196 29.2763C62.908 28.7744 61.506 28.6333 60.1428 28.8686C60.1112 28.8647 60.1112 28.8902 60.1428 28.8882Z" fill="#263238"/>
<path d="M59.7299 26.8517C60.8133 26.9066 61.4901 27.0791 62.5794 27.4044V27.3927C61.3796 26.8948 60.8882 26.8478 59.724 26.8047C59.6865 26.8204 59.6885 26.8517 59.7299 26.8517Z" fill="#263238"/>
<path d="M59.9069 30.7031C59.6247 30.8344 59.6938 30.9814 60.2325 31.1049C60.7712 31.2284 63.011 31.2656 62.932 32.0418C62.8531 32.818 59.6938 32.72 58.8117 32.4456C57.9296 32.1712 56.6016 31.4185 56.6016 31.4185C57.2271 31.3146 58.6953 30.9207 59.9069 30.7031Z" fill="#EB9481"/>
<path d="M45.2687 29.9108C45.2549 30.2459 45.2233 30.587 45.176 30.9261C45.176 30.9123 45.176 30.9006 45.1898 30.8888C45.2549 30.7124 45.32 30.5321 45.399 30.3616C45.399 30.3616 45.4187 30.3616 45.4167 30.3616C45.3788 30.5484 45.3219 30.731 45.247 30.9065C45.2115 30.9907 45.178 31.0731 45.1405 31.1554C45.1168 31.3063 45.0892 31.4553 45.0596 31.6042C45.0004 31.8845 44.734 33.0762 44.6649 33.2781C44.653 33.3192 44.6017 33.3094 44.6057 33.2624C44.6195 33.0429 44.8425 31.8022 44.8879 31.5199C44.976 30.975 45.0939 30.4352 45.2411 29.9029C45.251 29.8931 45.2707 29.901 45.2687 29.9108Z" fill="#263238"/>
<path d="M43.2158 38.8254C42.6889 39.094 42.0101 39.5114 38.9514 38.9136C38.7541 38.8744 38.5686 38.8274 38.3752 38.7706C35.5079 37.916 32.0605 34.5664 31.873 34.3292C31.873 34.3292 36.4295 26.9929 42.2567 24.686C42.977 24.4018 44.1689 24.9506 44.8221 25.6346C45.0569 25.8796 45.568 27.6809 45.3726 29.1391C45.1773 30.5974 43.7407 38.5569 43.2158 38.8254Z" fill="#FD7E14"/>
<path d="M42.805 29.0703C42.827 29.3803 42.7833 29.6915 42.6768 29.9837C42.6517 29.6736 42.6955 29.3618 42.805 29.0703Z" fill="white"/>
<path d="M40.8192 34.0664C40.8318 34.2207 40.8265 34.3759 40.8034 34.529C40.7844 34.6832 40.7466 34.8346 40.6909 34.9798C40.6773 34.8249 40.6826 34.6689 40.7067 34.5152C40.7269 34.3619 40.7646 34.2113 40.8192 34.0664Z" fill="white"/>
<path d="M37.4417 30.2891C37.4639 30.5997 37.4202 30.9116 37.3134 31.2044C37.2886 30.8936 37.3324 30.5813 37.4417 30.2891Z" fill="white"/>
<path d="M44.1063 33.8125C44.1189 33.9674 44.1136 34.1233 44.0905 34.277C44.0715 34.4313 44.0338 34.5826 43.978 34.7278C43.9645 34.5729 43.9698 34.4169 43.9938 34.2633C44.0138 34.1092 44.0515 33.958 44.1063 33.8125Z" fill="white"/>
<path d="M39.7695 29.644C39.9248 29.6309 40.081 29.6355 40.2352 29.6577C40.3906 29.6773 40.543 29.7155 40.6891 29.7714C40.377 29.7937 40.0636 29.7503 39.7695 29.644Z" fill="white"/>
<path d="M35.9375 33.2516C36.2496 33.2297 36.5629 33.2731 36.8571 33.379C36.5449 33.4039 36.231 33.3604 35.9375 33.2516Z" fill="white"/>
<path d="M40.4531 37.158C40.7653 37.1358 41.0786 37.1792 41.3727 37.2854C41.0605 37.3099 40.7467 37.2664 40.4531 37.158Z" fill="white"/>
<path d="M34.7559 35.7399C35.068 35.718 35.3812 35.7614 35.6754 35.8673C35.3632 35.8918 35.0494 35.8483 34.7559 35.7399Z" fill="white"/>
<path d="M42.7754 25.5602C43.0875 25.5383 43.4008 25.5817 43.695 25.6876C43.3828 25.7094 43.0696 25.666 42.7754 25.5602Z" fill="white"/>
<path d="M41.6618 26.8086C41.5621 26.9277 41.4481 27.0343 41.3224 27.1261C41.2001 27.22 41.0678 27.3002 40.9277 27.3652C41.0268 27.2469 41.1394 27.1403 41.2632 27.0477C41.3866 26.9534 41.5204 26.8732 41.6618 26.8086Z" fill="white"/>
<path d="M35.5857 30.3633C35.4847 30.4814 35.3701 30.5873 35.2443 30.6788C35.1232 30.7745 34.9907 30.8549 34.8496 30.918C34.9511 30.8004 35.0656 30.6945 35.191 30.6024C35.3123 30.5071 35.4448 30.4268 35.5857 30.3633Z" fill="white"/>
<path d="M43.1716 31.9648C43.0707 32.0835 42.9561 32.1901 42.8302 32.2824C42.7089 32.3776 42.5764 32.4579 42.4355 32.5215C42.5365 32.4028 42.6511 32.2962 42.7769 32.204C42.8989 32.1096 43.0313 32.0294 43.1716 31.9648Z" fill="white"/>
<path d="M38.2595 35.0391C38.1585 35.1578 38.044 35.2643 37.9181 35.3566C37.7966 35.4516 37.6641 35.5319 37.5234 35.5957C37.6244 35.477 37.739 35.3704 37.8648 35.2782C37.9868 35.1839 38.1192 35.1036 38.2595 35.0391Z" fill="white"/>
<path d="M45.0544 27.7695C44.9535 27.8882 44.8389 27.9948 44.713 28.0871C44.5908 28.181 44.4584 28.2612 44.3184 28.3262C44.4193 28.2075 44.5339 28.1009 44.6597 28.0087C44.7813 27.9136 44.9138 27.8334 45.0544 27.7695Z" fill="white"/>
<path d="M44.953 31.3287C44.8335 31.2285 44.7262 31.1147 44.6333 30.9897C44.5373 30.8692 44.4564 30.7376 44.3926 30.5977C44.5125 30.6967 44.6199 30.8099 44.7123 30.9348C44.8065 31.0571 44.8873 31.1892 44.953 31.3287Z" fill="white"/>
<path d="M33.9999 33.7819C33.8804 33.6816 33.7731 33.5678 33.6802 33.4428C33.5852 33.3216 33.5045 33.1901 33.4395 33.0508C33.559 33.151 33.6662 33.2648 33.7591 33.3899C33.8548 33.5106 33.9356 33.6422 33.9999 33.7819Z" fill="white"/>
<path d="M43.621 36.7018C43.501 36.6027 43.3937 36.4895 43.3013 36.3647C43.2067 36.2432 43.126 36.1117 43.0605 35.9727C43.18 36.0729 43.2873 36.1867 43.3802 36.3117C43.4755 36.432 43.5562 36.5629 43.621 36.7018Z" fill="white"/>
<path d="M38.7987 28.3815C38.6792 28.2819 38.572 28.1687 38.479 28.0443C38.3849 27.9226 38.3042 27.7912 38.2383 27.6523C38.3582 27.7514 38.4656 27.8646 38.558 27.9895C38.6521 28.1112 38.7328 28.2426 38.7987 28.3815Z" fill="white"/>
<path d="M38.8846 38.3639C38.7651 38.2636 38.6579 38.1498 38.565 38.0248C38.4703 37.9034 38.3896 37.772 38.3242 37.6328C38.4441 37.7319 38.5515 37.8451 38.6439 37.9699C38.7389 38.0918 38.8196 38.224 38.8846 38.3639Z" fill="white"/>
<path d="M39.703 32.4772C39.5846 32.3763 39.478 32.2626 39.3853 32.1381C39.2889 32.0179 39.2081 31.8862 39.1445 31.7461C39.2634 31.8464 39.37 31.9602 39.4622 32.0852C39.5582 32.2057 39.639 32.3373 39.703 32.4772Z" fill="white"/>
<path d="M43.754 27.5886C43.01 27.4514 42.3115 25.9246 42.2227 24.8976C42.2227 24.827 42.57 24.2684 42.9666 23.5687C43.2074 23.1434 43.4619 22.6632 43.6652 22.2084C43.7066 22.1163 43.9493 22.428 43.9493 22.428L44.4782 22.82L46.2246 24.1508C45.8087 24.6465 45.4555 25.1908 45.1728 25.7717C45.1449 25.8347 45.1237 25.9004 45.1096 25.9677C45.1089 25.9788 45.1089 25.9899 45.1096 26.001C45.0011 26.3891 44.4703 27.72 43.754 27.5886Z" fill="#EB9481"/>
<path d="M45.1111 25.9772C45.1103 25.9883 45.1103 25.9994 45.1111 26.0105C45.0074 25.9803 44.9064 25.9416 44.8091 25.8949C42.897 25.005 43.7396 22.4609 43.7396 22.4609L44.4895 22.8294L46.2359 24.1603C45.82 24.6559 45.4668 25.2003 45.1841 25.7812C45.1528 25.8437 45.1283 25.9094 45.1111 25.9772Z" fill="#263238"/>
<path d="M48.2324 18.7344C48.2324 18.7344 49.1066 19.2851 49.1106 20.2651C49.1145 21.2451 48.7159 22.2036 48.633 22.2389C48.5501 22.2741 48.2324 18.7344 48.2324 18.7344Z" fill="#263238"/>
<path d="M43.8956 19.2447C43.3707 20.2737 43.3983 23.5175 44.0535 24.3525C45.0046 25.5637 46.8359 25.9812 47.9429 24.7837C49.0144 23.6233 48.9039 19.3976 48.1403 18.6097C47.0293 17.4454 44.6731 17.7218 43.8956 19.2447Z" fill="#EB9481"/>
<path d="M46.6801 21.8398C46.6801 21.8398 46.6623 21.8516 46.6643 21.8594C46.6761 22.0809 46.6524 22.3357 46.4531 22.4141C46.4531 22.4141 46.4531 22.4278 46.4531 22.4259C46.6998 22.3867 46.7274 22.0476 46.6801 21.8398Z" fill="#263238"/>
<path d="M46.478 21.6137C46.1189 21.5941 46.107 22.3075 46.4405 22.3252C46.774 22.3428 46.778 21.6294 46.478 21.6137Z" fill="#263238"/>
<path d="M47.8986 21.832C47.8986 21.832 47.9164 21.832 47.9164 21.8516C47.9045 22.0731 47.9302 22.3279 48.1315 22.4044C48.1315 22.4044 48.1315 22.4181 48.1315 22.4161C47.8828 22.3789 47.8532 22.0398 47.8986 21.832Z" fill="#263238"/>
<path d="M48.1023 21.6059C48.4594 21.5844 48.4772 22.2978 48.1457 22.3174C47.8142 22.337 47.8023 21.6236 48.1023 21.6059Z" fill="#263238"/>
<path d="M46.2523 21.072C46.3466 21.0453 46.4395 21.0139 46.5306 20.9779C46.6342 20.9593 46.7287 20.9068 46.799 20.8289C46.816 20.8004 46.8231 20.7671 46.8192 20.7341C46.8153 20.7012 46.8005 20.6704 46.7772 20.6467C46.7238 20.6063 46.6606 20.5809 46.594 20.573C46.5274 20.565 46.4598 20.5749 46.3984 20.6016C46.2652 20.637 46.1499 20.7201 46.0747 20.8348C46.0597 20.8621 46.0529 20.8931 46.0551 20.9241C46.0573 20.9552 46.0684 20.9849 46.0871 21.0099C46.1057 21.0349 46.1313 21.054 46.1605 21.065C46.1898 21.076 46.2217 21.0784 46.2523 21.072Z" fill="#263238"/>
<path d="M48.3465 21.3871C48.2505 21.3658 48.1557 21.3397 48.0624 21.3087C47.9584 21.2951 47.8619 21.2475 47.7881 21.1735C47.7691 21.1462 47.7599 21.1134 47.762 21.0803C47.7642 21.0472 47.7775 21.0158 47.7999 20.9912C47.8508 20.948 47.9125 20.9192 47.9784 20.9078C48.0444 20.8964 48.1123 20.9029 48.1748 20.9265C48.3098 20.9543 48.4295 21.0312 48.5103 21.1421C48.5272 21.1684 48.5361 21.199 48.5358 21.2301C48.5355 21.2613 48.5262 21.2917 48.5088 21.3177C48.4915 21.3436 48.4669 21.364 48.4381 21.3763C48.4092 21.3887 48.3774 21.3924 48.3465 21.3871Z" fill="#263238"/>
<path d="M46.1752 23.9366C46.2285 23.9896 46.2798 24.0601 46.3607 24.068C46.4437 24.0679 46.5257 24.0506 46.6015 24.017C46.6015 24.017 46.6153 24.017 46.6015 24.0288C46.5691 24.0718 46.5256 24.1054 46.4755 24.1257C46.4255 24.1461 46.3708 24.1526 46.3173 24.1444C46.2722 24.1322 46.2317 24.1071 46.2009 24.0723C46.17 24.0374 46.1501 23.9944 46.1437 23.9484C46.1421 23.9442 46.1422 23.9396 46.1441 23.9356C46.1459 23.9316 46.1493 23.9284 46.1535 23.9268C46.1577 23.9253 46.1623 23.9254 46.1664 23.9273C46.1705 23.9291 46.1737 23.9325 46.1752 23.9366Z" fill="#263238"/>
<path d="M47.466 22.9914C47.466 22.9914 47.4759 23.3207 47.466 23.4755C47.1628 23.4436 46.8566 23.4541 46.5563 23.5069C46.4853 23.5226 46.4932 23.4657 46.5741 23.4285C46.8159 23.3187 47.0853 23.2832 47.3476 23.3266C47.3634 23.2854 47.322 22.817 47.3476 22.8189C47.467 22.8422 47.5825 22.8818 47.691 22.9365C47.691 22.2466 47.5805 21.5645 47.5903 20.8746C47.5903 20.8511 47.6278 20.8472 47.6318 20.8746C47.772 21.6045 47.8381 22.3464 47.8291 23.0894C47.8311 23.1737 47.5252 23.0228 47.466 22.9914Z" fill="#263238"/>
<path d="M47.0217 23.3584C46.943 23.5639 46.7971 23.7371 46.6073 23.8503C46.3093 23.9699 46.2126 23.7014 46.5126 23.4583C46.6699 23.3793 46.846 23.3448 47.0217 23.3584Z" fill="#263238"/>
<path d="M46.7128 23.79C46.6813 23.8155 46.646 23.836 46.6082 23.8508C46.3339 23.9605 46.2254 23.743 46.4464 23.5234C46.5964 23.5352 46.7681 23.5901 46.7128 23.79Z" fill="#FF99BA"/>
<path d="M43.7448 22.0172C44.1059 22.127 44.5203 21.049 44.6387 20.6452C44.7413 20.2806 44.8597 19.1223 44.8775 19.0419C44.8953 18.9616 46.4562 20.067 47.36 19.8044C48.2637 19.5417 48.8774 18.7283 48.8913 18.35C48.9051 17.9718 47.7743 17.0114 46.7975 16.9624C45.8207 16.9134 44.4966 18.1384 44.4966 18.1384C44.6566 17.9581 44.8018 17.7654 44.9308 17.5621C44.915 17.519 44.2835 17.7699 44.1671 18.2168C44.1671 18.2168 44.2934 17.6542 44.246 17.6444C44.1987 17.6346 43.7073 18.1148 43.8178 18.4794C43.8178 18.4794 43.2495 18.9674 43.1982 19.5025C43.1469 20.0376 43.3205 21.8878 43.7448 22.0172Z" fill="#263238"/>
<path d="M48.0071 19.5987C47.7383 19.7435 47.4489 19.8466 47.1487 19.9045C46.8118 19.9343 46.4727 19.8805 46.162 19.7477C45.849 19.6276 45.5583 19.4567 45.3017 19.242C45.0747 19.0578 44.8715 18.8324 44.6288 18.6677C44.5676 18.6246 44.4985 18.7128 44.536 18.7677C44.941 19.3358 45.5195 19.7592 46.1857 19.9751C46.4952 20.0753 46.8255 20.094 47.1444 20.0294C47.4633 19.9648 47.7599 19.8191 48.0051 19.6066C48.0051 19.6066 48.0111 19.5987 48.0071 19.5987Z" fill="#263238"/>
<path d="M44.122 21.9197C44.122 21.9197 43.5616 20.7908 43.0564 20.973C42.5512 21.1553 42.8591 22.7174 43.3781 23.0036C43.4416 23.0445 43.5128 23.0721 43.5875 23.085C43.6621 23.0978 43.7385 23.0956 43.8122 23.0784C43.8859 23.0612 43.9554 23.0294 44.0164 22.9849C44.0774 22.9404 44.1288 22.8841 44.1674 22.8194L44.122 21.9197Z" fill="#EB9481"/>
<path d="M43.1576 21.418C43.1576 21.418 43.1458 21.418 43.1576 21.4336C43.5168 21.6453 43.6628 22.0216 43.7496 22.4136C43.7333 22.3722 43.708 22.3347 43.6757 22.3038C43.6433 22.273 43.6046 22.2494 43.5622 22.2349C43.5198 22.2204 43.4747 22.2151 43.43 22.2196C43.3854 22.2241 43.3423 22.2381 43.3036 22.2608C43.2918 22.2608 43.3036 22.2823 43.3036 22.2823C43.3742 22.2714 43.4465 22.2825 43.5105 22.3141C43.5744 22.3457 43.627 22.3962 43.6608 22.4587C43.7173 22.5634 43.7623 22.6738 43.795 22.788C43.8068 22.8252 43.872 22.8154 43.866 22.7743C43.9509 22.2862 43.6746 21.5473 43.1576 21.418Z" fill="#263238"/>
<path d="M40.4217 26.9624C40.0271 29.1831 42.4503 36.6644 44.0033 38.0619C46.3141 40.1395 50.5864 41.5056 52.1354 41.9506C52.8103 42.1466 54.6771 37.4288 53.9943 37.1172C52.5321 36.4567 47.9895 35.0455 47.5573 34.6927C47.1251 34.3399 44.5203 30.6022 43.36 28.4501C41.807 25.5532 40.6171 25.8394 40.4217 26.9624Z" fill="#EB9481"/>
<path d="M52.8434 36.7031C52.8434 36.7031 54.8601 37.2147 56.1605 37.6086C56.8867 37.8301 58.0984 38.3182 58.5581 38.7219C59.2449 39.3276 61.7273 42.2911 61.0169 42.9046C60.3736 43.4612 58.566 40.6447 58.566 40.6447C58.566 40.6447 60.642 43.326 59.75 43.8532C58.8581 44.3804 57.2261 40.9289 57.2261 40.9289C57.2261 40.9289 59.2962 43.7317 58.2839 44.1296C57.5182 44.4294 55.8764 41.3856 55.8764 41.3856C55.8764 41.3856 57.6405 43.8062 56.8631 44.1492C56.0066 44.5294 54.3155 41.8128 54.3155 41.8128C52.2001 42.3558 50.9608 41.754 50.1458 41.2248C49.9544 41.0955 52.8434 36.7031 52.8434 36.7031Z" fill="#EB9481"/>
<path d="M57.908 39.6673C58.1645 39.9731 58.425 40.2827 58.6519 40.6101C58.8789 40.9374 59.094 41.2745 59.2893 41.6214C59.554 42.0701 59.7659 42.5476 59.9208 43.0444C59.5814 42.182 58.7861 40.9962 58.5592 40.6689C58.3322 40.3416 58.1211 40.0025 57.8961 39.6751C57.8902 39.6673 57.9021 39.6595 57.908 39.6673Z" fill="#263238"/>
<path d="M56.7011 40.4634C57.1392 40.8083 58.0568 42.0902 58.4101 42.9506C58.4258 42.9859 58.41 42.9839 58.3844 42.9506C58.1081 42.5253 56.9873 40.8789 56.6913 40.4693C56.6854 40.4634 56.6952 40.4575 56.7011 40.4634Z" fill="#263238"/>
<path d="M55.5432 40.9643C56.0875 41.5314 56.5175 42.1967 56.8101 42.9243C56.8239 42.9596 56.7963 42.9537 56.7746 42.9243C56.3661 42.2638 56.0503 41.7483 55.5215 40.982C55.5136 40.9643 55.5314 40.9467 55.5432 40.9643Z" fill="#263238"/>
<path d="M42.6246 27.1267C40.8229 24.5964 39.7455 25.5332 40.1066 28.2812C40.446 30.8507 41.3518 33.9122 41.3518 33.9122L45.8904 31.7249C45.8904 31.7249 43.7711 28.7476 42.6246 27.1267Z" fill="#FD7E14"/>
<path d="M43.7196 28.1211C43.7794 28.264 43.8224 28.4133 43.8478 28.566C43.8755 28.7192 43.8855 28.8751 43.8774 29.0305C43.8182 28.8869 43.7759 28.7369 43.7511 28.5837C43.7218 28.4313 43.7112 28.276 43.7196 28.1211Z" fill="white"/>
<path d="M41.0293 29.6589C41.3189 29.5419 41.6306 29.4884 41.943 29.5021C41.799 29.5609 41.6487 29.603 41.495 29.6275C41.3416 29.6566 41.1852 29.6672 41.0293 29.6589Z" fill="white"/>
<path d="M41.1461 25.7227C41.0239 26.0091 40.8416 26.2664 40.6113 26.4773C40.7335 26.1908 40.9158 25.9336 41.1461 25.7227Z" fill="white"/>
<path d="M44.9918 30.8398C44.9319 30.9832 44.8558 31.1193 44.7649 31.2456C44.6764 31.3734 44.573 31.4905 44.457 31.5944C44.5792 31.308 44.7615 31.0507 44.9918 30.8398Z" fill="white"/>
<path d="M41.834 32.3749C41.6893 32.3161 41.5522 32.2404 41.4255 32.1495C41.2967 32.0617 41.1788 31.959 41.0742 31.8438C41.3626 31.9651 41.6216 32.1462 41.834 32.3749Z" fill="white"/>
<path d="M43.215 27.8867C43.4577 28.218 43.7083 28.5414 43.957 28.8667C43.8938 28.7021 43.8386 28.5355 43.7912 28.3669H43.803C43.8524 28.4963 43.9096 28.6237 43.957 28.7589L44.028 28.9549C44.0341 28.9683 44.0394 28.982 44.0438 28.9961C44.2411 29.2489 44.4385 29.5018 44.62 29.7605C44.843 30.0702 45.0581 30.3838 45.2751 30.6974C45.4922 31.011 45.7113 31.401 45.9461 31.7166C45.9678 31.744 45.5514 31.9126 45.506 31.9341C45.4606 31.9557 45.437 31.9184 45.4804 31.9047C45.5238 31.891 45.8553 31.6891 45.8593 31.6852C45.6422 31.3677 45.3916 31.0756 45.1646 30.7679C44.9377 30.4602 44.7127 30.1525 44.4937 29.8408C44.0497 29.2058 43.6432 28.5472 43.2012 27.9102L43.215 27.8867Z" fill="#263238"/>
<path d="M40.2132 30.0988C40.2823 30.2321 40.3573 30.3634 40.4106 30.5006L40.4856 30.6712C40.381 30.1831 40.2882 29.6912 40.1797 29.2031C40.3889 29.9871 40.6 30.7888 40.7934 31.5845C40.9769 32.345 41.1999 33.1133 41.3065 33.8895C41.4441 33.8295 41.5867 33.7817 41.7327 33.7464C41.5862 33.8406 41.4284 33.9163 41.263 33.9718C41.0252 33.1825 40.8276 32.3818 40.671 31.5728C40.6217 31.3532 40.5763 31.1337 40.529 30.9142C40.4777 30.7809 40.4165 30.6535 40.3553 30.5222C40.2941 30.3909 40.2389 30.2439 40.1836 30.1047C40.1955 30.0969 40.2093 30.089 40.2132 30.0988Z" fill="#263238"/>
<path d="M41.418 33.1546C42.0495 32.8018 44.6878 31.4455 45.2778 31.1946C45.3193 31.1769 45.341 31.1946 45.2995 31.222C44.0472 31.9448 42.756 32.5991 41.4318 33.182C41.416 33.1859 41.4002 33.1644 41.418 33.1546Z" fill="#263238"/>
<path d="M113.727 84.6854H53.6035L62.296 35.7148H122.42L113.727 84.6854Z" fill="#FD7E14"/>
<path d="M82.8748 30.6406H63.1987L62.2969 35.7131H83.3543L82.8748 30.6406Z" fill="#FD7E14"/>
<g opacity="0.1">
<path d="M113.727 84.6854H53.6035L62.296 35.7148H122.42L113.727 84.6854Z" fill="black"/>
<path d="M82.8748 30.6406H63.1987L62.2969 35.7131H83.3543L82.8748 30.6406Z" fill="black"/>
</g>
<path d="M61.0752 32.7091C60.9437 32.1482 60.9437 31.5648 61.0752 31.0039C61.2068 31.5648 61.2068 32.1482 61.0752 32.7091Z" fill="#263238"/>
<path d="M59.3252 33.2122C59.1243 33.0053 58.9512 32.7734 58.8102 32.5223C58.6623 32.2764 58.5463 32.013 58.4648 31.7383C58.6664 31.944 58.8395 32.1753 58.9799 32.4262C59.1274 32.6729 59.2435 32.937 59.3252 33.2122Z" fill="#263238"/>
<path d="M58.064 34.5167C57.5095 34.3492 57.0012 34.0575 56.5781 33.6641C56.8548 33.7439 57.12 33.8585 57.3675 34.0051C57.6203 34.146 57.8543 34.3179 58.064 34.5167Z" fill="#263238"/>
<path d="M57.6211 36.2699C57.0564 36.4006 56.469 36.4006 55.9043 36.2699C56.469 36.1392 57.0564 36.1392 57.6211 36.2699Z" fill="#263238"/>
<path d="M58.1343 38.0078C57.9251 38.2063 57.6918 38.3782 57.4397 38.5194C57.1923 38.6659 56.927 38.7805 56.6504 38.8604C56.8587 38.6608 57.0922 38.4889 57.345 38.3489C57.5921 38.2016 57.8574 38.0869 58.1343 38.0078Z" fill="#263238"/>
<path d="M59.4443 39.2617C59.2763 39.8133 58.9826 40.319 58.5859 40.7396C58.6663 40.4644 58.7824 40.2009 58.9313 39.9556C59.0719 39.7036 59.2443 39.4704 59.4443 39.2617Z" fill="#263238"/>
<path d="M61.2125 39.6953C61.2813 39.9743 61.3144 40.2607 61.3111 40.5479C61.3154 40.8352 61.2822 41.1217 61.2125 41.4005C61.1418 41.1219 61.1086 40.8352 61.1138 40.5479C61.1105 40.2607 61.1437 39.9743 61.2125 39.6953Z" fill="#263238"/>
<path d="M62.9609 39.2031C63.1619 39.4101 63.335 39.642 63.476 39.8931C63.6243 40.1385 63.7397 40.402 63.8193 40.6771C63.4227 40.2565 63.1289 39.7508 62.9609 39.1992V39.2031Z" fill="#263238"/>
<path d="M64.2227 37.8906C64.4996 37.9698 64.7649 38.0844 65.012 38.2317C65.2648 38.3717 65.4983 38.5437 65.7066 38.7432C65.4297 38.6641 65.1643 38.5495 64.9173 38.4022C64.6645 38.2621 64.431 38.0902 64.2227 37.8906Z" fill="#263238"/>
<path d="M64.6582 36.1331C65.2236 36.0025 65.8116 36.0025 66.377 36.1331C65.8116 36.2638 65.2236 36.2638 64.6582 36.1331Z" fill="#263238"/>
<path d="M64.1524 34.3956C64.3613 34.1972 64.5947 34.026 64.847 33.886C65.0936 33.7373 65.359 33.6219 65.6363 33.543C65.2129 33.937 64.7038 34.2287 64.1484 34.3956H64.1524Z" fill="#263238"/>
<path d="M62.8398 33.1419C62.9211 32.8674 63.0364 32.604 63.1832 32.3579C63.3242 32.1068 63.4973 31.8749 63.6982 31.668C63.6186 31.943 63.5032 32.2066 63.3549 32.452C63.2139 32.703 63.0408 32.9349 62.8398 33.1419Z" fill="#263238"/>
<path d="M113.638 84.6851H53.3865L44.8301 37.4922H105.084L113.638 84.6851Z" fill="#FD7E14"/>
<path d="M65.7092 66.3417C67.0922 66.3417 68.2134 65.2281 68.2134 63.8544C68.2134 62.4808 67.0922 61.3672 65.7092 61.3672C64.3262 61.3672 63.2051 62.4808 63.2051 63.8544C63.2051 65.2281 64.3262 66.3417 65.7092 66.3417Z" fill="#263238"/>
<path d="M85.5061 66.3417C86.8891 66.3417 88.0103 65.2281 88.0103 63.8544C88.0103 62.4808 86.8891 61.3672 85.5061 61.3672C84.1231 61.3672 83.002 62.4808 83.002 63.8544C83.002 65.2281 84.1231 66.3417 85.5061 66.3417Z" fill="#263238"/>
<path d="M79.2055 66.736L79.0674 66.4753C79.0555 66.4518 77.761 64.0763 75.1582 64.0763C72.7902 64.0763 72.1982 66.3126 72.1824 66.4087L72.1114 66.6929L71.5371 66.5557L71.6062 66.2695C71.6062 66.2421 72.3126 63.4883 75.1582 63.4883C78.1182 63.4883 79.5331 66.0912 79.5923 66.2029L79.7304 66.4616L79.2055 66.736Z" fill="#263238"/>
<path d="M109.661 63.6612L109.619 63.4652C109.747 63.4377 109.874 63.4083 110 63.375L110.049 63.571C109.915 63.6043 109.791 63.6337 109.661 63.6612Z" fill="#263238"/>
<path d="M110.812 63.3437L110.749 63.1595C110.996 63.0752 111.243 62.9831 111.481 62.8831L111.558 63.0634C111.316 63.1653 111.065 63.2594 110.812 63.3437ZM112.282 62.7185L112.194 62.546C112.425 62.4264 112.655 62.2971 112.874 62.154L112.977 62.3206C112.752 62.4754 112.517 62.6067 112.282 62.7185ZM113.64 61.8894L113.524 61.7306C113.737 61.5758 113.942 61.4131 114.135 61.2465L114.266 61.3935C114.058 61.5718 113.861 61.7385 113.638 61.8972L113.64 61.8894ZM114.844 60.8467L114.7 60.7114C114.881 60.5154 115.053 60.3194 115.211 60.1234L115.367 60.243C115.203 60.4586 115.027 60.6604 114.848 60.8545L114.844 60.8467ZM115.821 59.5923L115.653 59.4884C115.789 59.2694 115.911 59.0415 116.016 58.8063L116.198 58.8867C116.086 59.1319 115.959 59.3702 115.819 59.6001L115.821 59.5923ZM116.474 58.1379L116.277 58.0831C116.349 57.8371 116.402 57.5862 116.436 57.3324L116.634 57.3579C116.601 57.6244 116.547 57.8878 116.472 58.1458L116.474 58.1379ZM116.693 56.5699H116.496V56.5131C116.496 56.2759 116.482 56.0349 116.458 55.7977L116.655 55.7781C116.681 56.0223 116.695 56.2676 116.695 56.5131L116.693 56.5699ZM116.338 55.0353C116.285 54.7826 116.219 54.5327 116.14 54.2865L116.338 54.2277C116.419 54.4825 116.488 54.7413 116.535 54.9941L116.338 55.0353ZM115.87 53.5594C115.775 53.3281 115.673 53.0909 115.546 52.8518L115.724 52.7636C115.844 53.0067 115.955 53.2497 116.052 53.4849L115.87 53.5594ZM115.179 52.1619C115.057 51.9483 114.923 51.7229 114.785 51.4916L114.952 51.3877C115.096 51.6209 115.233 51.8483 115.347 52.0659L115.179 52.1619ZM114.354 50.8311C114.21 50.6155 114.064 50.3979 113.914 50.1803L114.078 50.0706C114.228 50.2881 114.374 50.5057 114.518 50.7252L114.354 50.8311ZM113.466 49.5335C113.318 49.3179 113.169 49.1004 113.022 48.8848L113.186 48.775C113.332 48.9906 113.48 49.2082 113.628 49.4218L113.466 49.5335ZM112.584 48.2282C112.44 48.0087 112.3 47.7852 112.162 47.5618L112.33 47.4599C112.468 47.6833 112.608 47.9028 112.75 48.1223L112.584 48.2282ZM111.762 46.8817C111.627 46.6445 111.503 46.4093 111.391 46.1839L111.568 46.0957C111.679 46.3191 111.803 46.5504 111.933 46.7856L111.762 46.8817ZM111.061 45.4705C110.956 45.2255 110.864 44.9765 110.777 44.7335L110.974 44.6708C111.057 44.9079 111.15 45.1529 111.252 45.394L111.061 45.4705ZM110.548 43.975C110.483 43.7202 110.426 43.4595 110.382 43.191L110.58 43.1596C110.623 43.4105 110.676 43.6653 110.741 43.9162L110.548 43.975ZM110.284 42.407C110.264 42.1659 110.254 41.9229 110.254 41.6798V41.6151H110.451V41.6779C110.451 41.915 110.451 42.1541 110.481 42.3893L110.284 42.407ZM110.481 40.839L110.284 40.8194C110.284 40.7665 110.293 40.7116 110.299 40.6547C110.323 40.445 110.353 40.2353 110.388 40.0354L110.585 40.0687C110.552 40.2647 110.522 40.4705 110.499 40.6763C110.507 40.7371 110.506 40.79 110.491 40.8449L110.481 40.839ZM110.755 39.3141L110.558 39.2612C110.631 39.0025 110.716 38.7496 110.81 38.5085L110.994 38.5791C110.904 38.8218 110.828 39.0691 110.765 39.32L110.755 39.3141ZM120.588 38.1714C120.478 38.1714 120.363 38.1557 120.251 38.1401C120.097 38.1185 119.943 38.093 119.791 38.0636L119.83 37.8676C119.977 37.8951 120.128 37.9205 120.278 37.9421C120.385 37.9558 120.494 37.9656 120.598 37.9715L120.588 38.1714ZM121.399 38.1107L121.358 37.9147C121.606 37.8639 121.843 37.7725 122.06 37.6442L122.163 37.8108C121.931 37.9536 121.676 38.057 121.409 38.1165L121.399 38.1107ZM111.323 37.8774L111.148 37.7853C111.273 37.5515 111.413 37.3251 111.564 37.1071L111.726 37.2189C111.582 37.4323 111.451 37.6542 111.333 37.8833L111.323 37.8774ZM119.019 37.8657C118.765 37.7854 118.514 37.6918 118.27 37.5854L118.35 37.4051C118.588 37.5097 118.831 37.6007 119.079 37.6775L119.019 37.8657ZM122.769 37.2541L122.605 37.1444C122.746 36.9419 122.829 36.7057 122.846 36.4603L123.043 36.4741C123.026 36.7552 122.934 37.0267 122.775 37.26L122.769 37.2541ZM117.559 37.2247C117.328 37.0914 117.105 36.9455 116.89 36.7877L117.007 36.6309C117.216 36.7839 117.433 36.9253 117.658 37.0542L117.559 37.2247ZM112.211 36.6132L112.065 36.4819C112.244 36.2845 112.435 36.098 112.636 35.9233L112.766 36.0703C112.572 36.2423 112.389 36.4256 112.217 36.6191L112.211 36.6132ZM116.275 36.282C116.078 36.1021 115.892 35.9117 115.716 35.7116L115.864 35.5823C116.035 35.7766 116.216 35.9618 116.407 36.1369L116.275 36.282ZM122.698 35.7508C122.585 35.5268 122.428 35.327 122.238 35.1628L122.368 35.0158C122.578 35.196 122.75 35.415 122.875 35.6607L122.698 35.7508ZM113.38 35.596L113.267 35.4353C113.488 35.2856 113.717 35.1475 113.952 35.0217L114.045 35.1942C113.818 35.3186 113.598 35.4547 113.386 35.6019L113.38 35.596ZM115.223 35.0864C115.148 34.9805 115.075 34.8727 115.006 34.761L114.749 34.861L114.674 34.6807L114.901 34.5905C114.866 34.5317 114.83 34.4729 114.797 34.4141L114.968 34.3181C115.008 34.3867 115.047 34.4553 115.089 34.5141C115.199 34.4749 115.312 34.4376 115.426 34.4023L115.483 34.5983C115.387 34.6277 115.286 34.6591 115.195 34.6924C115.256 34.7885 115.319 34.8884 115.392 34.9727L115.223 35.0864ZM121.603 34.7493C121.412 34.6547 121.214 34.5748 121.011 34.5101L120.88 34.469L120.938 34.273L121.072 34.3161C121.283 34.383 121.489 34.4662 121.687 34.565L121.603 34.7493ZM116.239 34.3984L116.198 34.2024C116.452 34.1456 116.717 34.0985 116.987 34.0613L117.017 34.2573C116.756 34.2985 116.498 34.3475 116.245 34.4043L116.239 34.3984ZM120.126 34.2926C119.88 34.2495 119.619 34.2161 119.353 34.1926L119.369 33.9966C119.643 34.0201 119.909 34.0535 120.158 34.0985L120.126 34.2926ZM117.788 34.1789L117.774 33.9829C118.009 33.9692 118.244 33.9613 118.477 33.9613H118.573V34.1573H118.479C118.256 34.1632 118.023 34.1691 117.794 34.1848L117.788 34.1789ZM114.453 33.7105C114.347 33.4713 114.256 33.2224 114.167 32.9696L114.364 32.9088C114.447 33.1558 114.54 33.3988 114.643 33.6321L114.453 33.7105ZM113.954 32.2052C113.895 31.9523 113.845 31.6897 113.808 31.4212L114.005 31.3937C114.043 31.6525 114.09 31.9092 114.147 32.1581L113.954 32.2052ZM113.733 30.6372C113.723 30.4608 113.717 30.2805 113.717 30.1001C113.717 30.0159 113.717 29.9296 113.717 29.8453H113.914C113.914 29.9296 113.914 30.0119 113.914 30.0962C113.914 30.2726 113.914 30.451 113.928 30.6215L113.733 30.6372ZM113.968 29.0692L113.77 29.0496C113.798 28.7909 113.836 28.5263 113.881 28.2656L114.078 28.2989C114.025 28.5596 113.987 28.8105 113.962 29.0731L113.968 29.0692ZM114.238 27.5384L114.041 27.4914C114.104 27.2385 114.177 26.9837 114.258 26.7289L114.455 26.7897C114.366 27.0465 114.293 27.2954 114.232 27.5423L114.238 27.5384ZM114.712 26.0547L114.528 25.9841C114.625 25.7391 114.725 25.4941 114.846 25.257L115.023 25.3432C114.905 25.5784 114.8 25.8175 114.706 26.0665L114.712 26.0547ZM115.39 24.6572L115.219 24.5573C115.353 24.3319 115.497 24.1065 115.647 23.8909L115.809 24.0026C115.655 24.2182 115.515 24.4377 115.385 24.6611L115.39 24.6572ZM116.28 23.3813L116.127 23.2578C116.292 23.0618 116.47 22.854 116.653 22.6698L116.796 22.805C116.61 22.9893 116.436 23.1853 116.275 23.3852L116.28 23.3813ZM117.354 22.2523L117.222 22.1073C117.419 21.9328 117.616 21.7603 117.828 21.5937L117.95 21.7486C117.739 21.9152 117.537 22.0857 117.348 22.2562L117.354 22.2523ZM118.579 21.2841L118.467 21.1214C118.682 20.9744 118.907 20.8293 119.136 20.6921L119.237 20.8587C119.008 20.9979 118.794 21.141 118.573 21.288L118.579 21.2841ZM119.919 20.4746L119.827 20.3021C120.059 20.1786 120.3 20.061 120.541 19.9513L120.624 20.1296C120.373 20.2413 120.142 20.3589 119.913 20.4785L119.919 20.4746ZM121.346 19.8239L121.273 19.6396C121.522 19.5436 121.772 19.4436 122.021 19.3711L122.084 19.5671C121.833 19.6416 121.585 19.7317 121.34 19.8278L121.346 19.8239Z" fill="#263238"/>
<path d="M122.868 19.3291L122.818 19.1331C123.063 19.0704 123.213 19.043 123.213 19.043L123.249 19.239C123.249 19.239 123.106 19.2684 122.868 19.3291Z" fill="#263238"/>
<path d="M126.358 18.0647C125.855 16.5163 122.484 17.0729 123.141 19.0976C123.798 21.1223 126.861 19.615 126.358 18.0647Z" fill="#263238"/>
<path d="M121.307 17.4439C121.333 16.7638 122.284 16.2405 123.63 16.4815C124.976 16.7226 126.241 17.6242 126.241 17.6242C126.241 17.6242 124.912 18.4239 123.553 18.5709C122.193 18.7179 121.282 18.1221 121.307 17.4439Z" fill="#EBEBEB"/>
<path d="M126.24 17.6216C125.542 17.6216 124.845 17.602 124.148 17.5805C123.452 17.5589 122.753 17.5236 122.057 17.4688C122.755 17.4688 123.454 17.4864 124.15 17.5079C124.847 17.5295 125.545 17.5648 126.24 17.6216Z" fill="#263238"/>
<path d="M122.658 16.8398C123.055 17.0283 123.429 17.2604 123.773 17.5317C123.575 17.4392 123.382 17.3345 123.197 17.2181C123.01 17.1026 122.83 16.9763 122.658 16.8398Z" fill="#263238"/>
<path d="M124.488 17.5547C124.131 17.842 123.744 18.0904 123.334 18.2956C123.693 18.0079 124.082 17.7595 124.494 17.5547H124.488Z" fill="#263238"/>
<path d="M124.691 17.1719C124.891 17.2668 125.065 17.4064 125.201 17.5796C125.101 17.5329 125.008 17.4743 124.922 17.4051C124.837 17.3364 124.759 17.2581 124.691 17.1719Z" fill="#263238"/>
<path d="M122.59 21.4735C123.01 22.0105 124.089 21.8811 125.039 20.9051C125.988 19.929 126.491 18.4609 126.491 18.4609C126.491 18.4609 124.936 18.5785 123.75 19.2449C122.564 19.9113 122.167 20.9345 122.59 21.4735Z" fill="#EBEBEB"/>
<path d="M126.491 18.4609C125.923 18.8529 125.37 19.2881 124.816 19.7095C124.261 20.1309 123.718 20.566 123.188 21.0148C123.756 20.6228 124.308 20.1897 124.861 19.7683C125.413 19.3469 125.952 18.9117 126.491 18.4609Z" fill="#263238"/>
<path d="M124.041 21.1683C124.147 20.9779 124.241 20.7816 124.323 20.5803C124.407 20.3785 124.478 20.1716 124.536 19.9609C124.431 20.1512 124.336 20.3475 124.254 20.5489C124.171 20.7511 124.1 20.9579 124.041 21.1683Z" fill="#263238"/>
<path d="M125.11 19.5288C124.648 19.5043 124.185 19.5286 123.729 19.6013C123.959 19.615 124.189 19.615 124.419 19.6013C124.651 19.5901 124.881 19.5659 125.11 19.5288Z" fill="#263238"/>
<path d="M125.49 19.7229C125.543 19.6261 125.584 19.5235 125.613 19.4172C125.642 19.3116 125.659 19.2031 125.664 19.0938C125.559 19.2878 125.5 19.5029 125.49 19.7229Z" fill="#263238"/>
<path d="M126.357 18.0613C126.245 18.0973 126.126 18.0995 126.013 18.0679C125.9 18.0362 125.799 17.972 125.723 17.8835C125.647 17.7949 125.6 17.6859 125.586 17.5703C125.572 17.4547 125.594 17.3377 125.647 17.2341C125.7 17.1305 125.784 17.045 125.886 16.9884C125.988 16.9317 126.105 16.9066 126.222 16.916C126.339 16.9255 126.45 16.9691 126.542 17.0415C126.634 17.1138 126.702 17.2116 126.738 17.3224C126.786 17.4706 126.772 17.6315 126.701 17.77C126.63 17.9085 126.506 18.0133 126.357 18.0613Z" fill="#455A64"/>
<path d="M126.72 19.1826C126.608 19.2184 126.489 19.2206 126.376 19.1889C126.263 19.1572 126.163 19.0931 126.087 19.0046C126.011 18.9161 125.963 18.8072 125.949 18.6917C125.936 18.5762 125.957 18.4593 126.01 18.3558C126.063 18.2522 126.146 18.1667 126.248 18.1099C126.351 18.0532 126.467 18.0278 126.584 18.037C126.701 18.0462 126.812 18.0896 126.904 18.1616C126.996 18.2336 127.064 18.3311 127.1 18.4417C127.124 18.5152 127.134 18.5927 127.127 18.6697C127.121 18.7467 127.1 18.8217 127.065 18.8905C127.029 18.9593 126.981 19.0206 126.921 19.0707C126.862 19.1208 126.794 19.1588 126.72 19.1826Z" fill="#455A64"/>
<path d="M62.0234 18.6811C61.9289 19.5814 61.5843 20.4378 61.0282 21.1549C60.4721 21.872 59.7263 22.4215 58.8741 22.7421C58.0218 23.0626 57.0967 23.1417 56.2019 22.9704C55.307 22.7991 54.4777 22.3842 53.8065 21.7721L51.3457 22.1307L52.5771 20.0179C52.2955 19.3304 52.1753 18.5882 52.2258 17.8477C52.2762 17.1071 52.4959 16.3878 52.8681 15.7442C53.2404 15.1006 53.7554 14.5498 54.374 14.1335C54.9927 13.7172 55.6987 13.4465 56.4385 13.3418C57.1783 13.2371 57.9324 13.3013 58.6435 13.5294C59.3545 13.7575 60.0039 14.1436 60.5423 14.6583C61.0807 15.173 61.4939 15.8028 61.7505 16.4998C62.0072 17.1969 62.1005 17.9429 62.0234 18.6811Z" fill="white"/>
<path d="M62.0231 18.6827C61.9305 19.5825 61.589 20.4392 61.0364 21.1581C60.7664 21.5217 60.4408 21.8412 60.0715 22.1048C59.7101 22.3784 59.3115 22.5995 58.8875 22.7614C58.4632 22.9274 58.0174 23.033 57.5633 23.075C57.3363 23.0953 57.1082 23.0998 56.8806 23.0887C56.6521 23.0829 56.4245 23.0593 56.1998 23.0182C55.2929 22.8524 54.4504 22.4391 53.7666 21.8245L53.8239 21.8422L51.3671 22.2165L51.1875 22.244L51.2783 22.0872L52.5017 19.9704V20.0547C52.213 19.3545 52.0903 18.5977 52.143 17.8429C52.1957 17.0881 52.4224 16.3554 52.8056 15.7015C53.1884 15.0496 53.7146 14.4922 54.3448 14.0708C54.9741 13.655 55.6899 13.3861 56.4387 13.2842C57.1875 13.1824 57.9498 13.2503 58.6684 13.4828C59.3794 13.723 60.0273 14.1181 60.5648 14.6392C61.101 15.1589 61.5111 15.7932 61.7637 16.4938C62.0164 17.1944 62.1051 17.9429 62.0231 18.6827ZM62.0231 18.6827C62.1028 17.9466 62.0112 17.2021 61.7552 16.5068C61.4993 15.8115 61.0859 15.1839 60.547 14.6725C60.008 14.1611 59.358 13.7795 58.647 13.5572C57.936 13.335 57.1831 13.278 56.4464 13.3907C55.7171 13.4979 55.0224 13.7701 54.4159 14.1864C53.8146 14.606 53.3122 15.1504 52.9438 15.7819C52.581 16.4148 52.3671 17.121 52.3182 17.8477C52.2702 18.5793 52.3889 19.3122 52.6655 19.9919L52.6833 20.0351L52.6596 20.0762L51.4204 22.1852L51.3335 22.0558L53.7962 21.7128H53.8298L53.8535 21.7344C54.5118 22.343 55.3276 22.7576 56.2096 22.9319C56.4294 22.9764 56.6525 23.0033 56.8766 23.0123C57.1006 23.028 57.3255 23.028 57.5495 23.0123C57.9988 22.9763 58.441 22.8794 58.8638 22.7242C59.2875 22.571 59.6864 22.357 60.0478 22.0891C60.4156 21.8276 60.7416 21.5124 61.0147 21.1542C61.5744 20.4388 61.9235 19.5833 62.0231 18.6827Z" fill="#263238"/>
<path d="M54.7274 20.4533C54.7236 20.3884 54.7333 20.3234 54.7558 20.2624C54.7783 20.2014 54.8133 20.1456 54.8584 20.0985C54.9036 20.0515 54.958 20.0142 55.0183 19.9889C55.0785 19.9636 55.1434 19.9508 55.2089 19.9515C55.3428 19.9515 55.4713 20.0044 55.5661 20.0985C55.6608 20.1926 55.714 20.3202 55.714 20.4533C55.714 20.5863 55.6608 20.714 55.5661 20.808C55.4713 20.9021 55.3428 20.955 55.2089 20.955C55.1434 20.9557 55.0785 20.9429 55.0183 20.9176C54.958 20.8923 54.9036 20.855 54.8584 20.808C54.8133 20.7609 54.7783 20.7051 54.7558 20.6441C54.7333 20.5831 54.7236 20.5181 54.7274 20.4533ZM54.9247 19.2949L54.8102 15.4062H55.5996L55.4851 19.2949H54.9247Z" fill="#FD7E14"/>
<path d="M56.6043 20.4533C56.6005 20.3885 56.6102 20.3237 56.6326 20.2628C56.655 20.202 56.6898 20.1463 56.7347 20.0993C56.7796 20.0522 56.8338 20.0149 56.8939 19.9894C56.9539 19.964 57.0186 19.9511 57.0838 19.9515C57.2178 19.9515 57.3463 20.0044 57.441 20.0985C57.5358 20.1926 57.589 20.3202 57.589 20.4533C57.589 20.5863 57.5358 20.714 57.441 20.808C57.3463 20.9021 57.2178 20.955 57.0838 20.955C57.0186 20.9554 56.9539 20.9425 56.8939 20.9171C56.8338 20.8916 56.7796 20.8543 56.7347 20.8072C56.6898 20.7602 56.655 20.7046 56.6326 20.6437C56.6102 20.5828 56.6005 20.518 56.6043 20.4533ZM56.8016 19.2949L56.6931 15.4062H57.4824L57.368 19.2949H56.8016Z" fill="#FD7E14"/>
<path d="M58.4793 20.4533C58.4755 20.3884 58.4852 20.3234 58.5078 20.2624C58.5303 20.2014 58.5652 20.1456 58.6104 20.0985C58.6555 20.0515 58.7099 20.0142 58.7702 19.9889C58.8305 19.9636 58.8954 19.9508 58.9608 19.9515C59.0948 19.9515 59.2233 20.0044 59.318 20.0985C59.4128 20.1926 59.466 20.3202 59.466 20.4533C59.466 20.5863 59.4128 20.714 59.318 20.808C59.2233 20.9021 59.0948 20.955 58.9608 20.955C58.8954 20.9557 58.8305 20.9429 58.7702 20.9176C58.7099 20.8923 58.6555 20.855 58.6104 20.808C58.5652 20.7609 58.5303 20.7051 58.5078 20.6441C58.4852 20.5831 58.4755 20.5181 58.4793 20.4533ZM58.6767 19.2949L58.5622 15.4062H59.3515L59.2391 19.2949H58.6767Z" fill="#FD7E14"/>
</svg>
