<svg width="148" height="98" fill="none" xmlns="http://www.w3.org/2000/svg"><path d="m131.611 29.452-1.888 9.085-1.216-1.178-2.068 1.466-1.581-1.95-3.544 2.56-3.029-5.032-3.378 1.966-1.34-1.835-4.29 2.401-1.291-2.746 3.008-14.466 16.122 3.306 4.495 6.423Z" fill="#EBEBEB"/><path d="m127.117 23.027 4.495 6.423-5.592-1.146 1.097-5.277Z" fill="#DBDBDB"/><path d="m129.321 40.353-2.769 13.328-21.716-4.453 2.749-13.22 1.29 2.744 4.292-2.401 1.338 1.834 3.381-1.964 3.027 5.032 3.546-2.56 1.578 1.948 2.07-1.464 1.214 1.176ZM98.239 38.79l-22.131 1.36-1.758-28.217 16.434-1.011 6.032 5.027 1.423 22.84Z" fill="#EBEBEB"/><path d="m90.783 10.922 6.033 5.027-5.7.351-.333-5.378ZM84.656 29.907l-.087-.637c-.223-1.32.14-2.795 1.295-4.338 1.042-1.372 1.606-2.352 1.543-3.465-.071-1.255-.91-2.046-2.47-1.984a4.42 4.42 0 0 0-2.457.902l-.681-1.515c.79-.637 2.17-1.108 3.483-1.176 2.847-.157 4.233 1.517 4.341 3.385.095 1.672-.777 2.928-1.886 4.396-1.019 1.339-1.352 2.442-1.208 3.69l.061.64-1.934.102Zm-.351 3.47c-.051-.909.53-1.583 1.397-1.63.866-.047 1.498.557 1.55 1.468.047.86-.484 1.554-1.4 1.605-.874.05-1.506-.582-1.555-1.442h.008Z" fill="#DBDBDB"/><path d="m29.3 25.107-2.227-1.002-.31.677a.589.589 0 0 1-.507.337 2.881 2.881 0 0 0-.365.035.595.595 0 0 1-.562-.231l-.436-.606-1.987 1.415.436.606a.584.584 0 0 1 .04.602 3.548 3.548 0 0 0-.153.33.589.589 0 0 1-.483.371l-.744.073.239 2.417.748-.075a.596.596 0 0 1 .546.27c.032.052.065.1.1.15.036.049.072.096.11.143a.574.574 0 0 1 .082.597l-.312.682 2.228 1.004.31-.68a.59.59 0 0 1 .51-.335c.12-.005.24-.017.36-.036a.597.597 0 0 1 .563.232l.436.605 1.99-1.415-.437-.605a.567.567 0 0 1-.04-.602 3.47 3.47 0 0 0 .149-.33.578.578 0 0 1 .483-.37l.748-.074-.24-2.417-.749.073a.583.583 0 0 1-.542-.27c-.034-.05-.067-.099-.103-.148-.036-.049-.071-.098-.109-.143a.586.586 0 0 1-.082-.602l.31-.678Zm-1.264 2.236a1.98 1.98 0 0 1-.801 2.971 2.016 2.016 0 0 1-2.196-.36 1.987 1.987 0 0 1-.505-2.153c.14-.368.386-.687.708-.916a2.014 2.014 0 0 1 2.794.458ZM129.921 57.176l-1.484.85.263.451a.387.387 0 0 1-.014.426c-.045.07-.089.143-.128.22a.398.398 0 0 1-.361.223h-.521v1.703h.525a.396.396 0 0 1 .361.223c.039.077.083.15.128.22a.389.389 0 0 1 .014.425l-.263.45 1.484.852.265-.453a.404.404 0 0 1 .377-.196h.252a.412.412 0 0 1 .377.196l.265.454 1.482-.85-.263-.453a.403.403 0 0 1 .016-.423c.045-.07.089-.145.128-.22a.397.397 0 0 1 .361-.223h.525v-1.704h-.529a.396.396 0 0 1-.361-.223 3.012 3.012 0 0 0-.128-.22.403.403 0 0 1-.016-.423l.263-.453-1.482-.85-.265.447a.404.404 0 0 1-.377.196h-.252a.411.411 0 0 1-.379-.196l-.263-.45Zm.768 1.627a1.41 1.41 0 0 1 1.3.86 1.393 1.393 0 0 1-1.024 1.904 1.416 1.416 0 0 1-1.443-.595 1.394 1.394 0 0 1 1.167-2.171v.002ZM33.803 17.866l-1.36 1.035.314.413a.391.391 0 0 1 .042.422 2.05 2.05 0 0 0-.099.235.4.4 0 0 1-.33.268l-.52.067.22 1.688.522-.067a.409.409 0 0 1 .394.176c.048.069.1.134.154.196a.391.391 0 0 1 .071.418l-.197.482 1.578.653.198-.482a.401.401 0 0 1 .35-.245l.126-.014.124-.02a.41.41 0 0 1 .394.147l.322.418 1.36-1.035-.318-.414a.402.402 0 0 1-.041-.423c.037-.076.07-.154.098-.233a.403.403 0 0 1 .33-.269l.52-.067-.22-1.687-.521.067a.41.41 0 0 1-.395-.175c-.05-.07-.1-.137-.156-.196a.404.404 0 0 1-.059-.41l.197-.482-1.578-.652-.198.482a.406.406 0 0 1-.349.245l-.126.012-.117.003a.409.409 0 0 1-.394-.146l-.336-.41Zm.973 1.515a1.412 1.412 0 0 1 1.395.687 1.386 1.386 0 0 1-.103 1.544 1.403 1.403 0 0 1-1.474.498 1.39 1.39 0 0 1 .182-2.729ZM23.644 62.086a53.648 53.648 0 0 0-.08-5.684 72.218 72.218 0 0 0-1.793-11.595c-.501-2.144-1.117-4.253-1.76-6.36-.02-.065-.122-.047-.105.02 1.988 7.428 3.617 15.091 3.505 22.814-.032 2.156-.284 4.282-.49 6.43 0 .057.09.08.103.022.409-1.844.543-3.77.62-5.647Z" fill="#EBEBEB"/><path d="M19.907 38.46s-3.007 7.586-2.334 9.362c.673 1.776 2.062 2.156 2.062 2.156s-1.841 2.61-.555 5.059c1.287 2.448 4.144 2.332 4.342 5.107-.006.014.152-11.591-3.515-21.683Z" fill="#EBEBEB"/><path d="M23.089 55.365a.055.055 0 0 0 0-.039 69.025 69.025 0 0 0-2.917-15.258c0-.014-.03-.01-.025 0a112.587 112.587 0 0 1 1.578 6.69 3.335 3.335 0 0 0-1.436-.795s-.016.012 0 .016a3.821 3.821 0 0 1 1.484.98c.087.44.173.88.254 1.32-.673-.746-1.604-1.116-2.538-1.47a.011.011 0 0 0-.005.005.012.012 0 0 0 0 .013.011.011 0 0 0 .006.004c.972.392 1.94.898 2.598 1.731.23 1.258.43 2.521.604 3.789a3.643 3.643 0 0 0-1.794-1.021c-.021 0-.033.025-.011.031.703.206 1.331.61 1.807 1.164h.012c.06.444.116.89.17 1.339a4.62 4.62 0 0 0-1.257-.753c-.012 0-.02.014 0 .018.466.2.893.481 1.26.829h.016c.05.425.1.85.143 1.276a6.116 6.116 0 0 0-2.552-1.811.016.016 0 0 0-.011.005.015.015 0 0 0-.005.01c0 .005.002.009.005.012A6.64 6.64 0 0 1 23 55.377a.059.059 0 0 0 .063.02 71.7 71.7 0 0 1 .172 1.96c0 .01.016.01.016 0-.052-.658-.106-1.321-.162-1.992Z" fill="#fff"/><path d="M20.671 45.217a3.786 3.786 0 0 0-1.808-.56.013.013 0 0 0-.008.003.012.012 0 0 0-.003.008.012.012 0 0 0 .011.012c.62.117 1.221.314 1.788.588.024.006.042-.035.02-.051ZM21.036 53.25a3.778 3.778 0 0 0-1.357-.46c-.016 0-.018.02 0 .025.466.093.918.25 1.341.466.018.01.034-.021.016-.031Z" fill="#fff"/><path d="M31.553 47.956a20.424 20.424 0 0 0-3.483 3.022 12.367 12.367 0 0 0-2.44 4.116 30.572 30.572 0 0 0-1.82 9.84 23.817 23.817 0 0 0 .535 5.532.053.053 0 0 0 .061.04.053.053 0 0 0 .043-.06 30.877 30.877 0 0 1 .055-9.672c.517-3.136 1.328-6.55 3.337-9.1 1.093-1.39 2.457-2.481 3.805-3.61.07-.063-.02-.16-.093-.108Z" fill="#EBEBEB"/><path d="M24.252 62.671a18.632 18.632 0 0 1 2.538-3.222c1.505-1.495 2.772-2.558 2.97-3.546.197-.987-1.508-1.716-1.508-1.716s2.082.372 2.652-.496c.57-.869.845-5.898.845-5.898s-3.79 2.687-5.555 6.454c-1.766 3.767-1.942 8.424-1.942 8.424Z" fill="#EBEBEB"/><path d="M30.389 52.509a3.348 3.348 0 0 0-.754-.026c-.03 0-.028.051 0 .053.248 0 .499-.012.748 0a.016.016 0 0 0 .006-.027ZM27.668 57.387c-.4.008-.795.086-1.168.231v.018c.395-.093.776-.13 1.166-.196a.03.03 0 0 0 .018-.026.03.03 0 0 0-.016-.027ZM26.851 55.703a2.628 2.628 0 0 0-.495.043.016.016 0 0 0-.01.015c0 .003 0 .006.003.009a.016.016 0 0 0 .007.006c.165.01.331.002.495-.022a.026.026 0 0 0 .018-.043.026.026 0 0 0-.018-.008Z" fill="#fff"/><path d="M13.145 53.289c1.233.415 2.414.968 3.522 1.648a10.493 10.493 0 0 1 2.934 2.768 25.84 25.84 0 0 1 3.761 7.544c.464 1.495.75 3.04.853 4.602a.045.045 0 0 1-.073.025.045.045 0 0 1-.016-.025 25.976 25.976 0 0 0-2.293-7.815c-1.15-2.42-2.6-4.996-4.819-6.6-1.207-.871-2.565-1.444-3.919-2.047-.07-.024-.022-.124.05-.1Z" fill="#EBEBEB"/><path d="M22.478 63.52a15.835 15.835 0 0 0-2.804-2.024c-1.566-.864-2.84-1.433-3.228-2.188-.389-.754.82-1.734.82-1.734s-1.597.784-2.26.206c-.664-.578-2.057-4.577-2.057-4.577s3.692 1.303 5.995 3.948c2.303 2.644 3.534 6.37 3.534 6.37Z" fill="#EBEBEB"/><path d="M19.413 59.843a2.848 2.848 0 0 0-1.073.131v.016a8.1 8.1 0 0 1 1.067-.11c.026 0 .032-.035.006-.037ZM16.194 55.647a1.828 1.828 0 0 0-.495.027c-.018 0-.012.031 0 .03.164-.018.323-.012.485-.016a.022.022 0 0 0 .022-.017.021.021 0 0 0-.012-.024Z" fill="#fff"/><path d="M27.24 74.905h-8.334l1.188-8.645.304-2.217h5.35l.304 2.217 1.188 8.645Z" fill="#DBDBDB"/><path d="M26.051 66.26h-5.957l.304-2.217h5.35l.303 2.217Z" fill="#C7C7C7"/><path d="M26.512 63.277h-6.88v1.878h6.88v-1.878Z" fill="#DBDBDB"/><path d="m13.607 74.907 15-.047 14.999-.018 29.999-.033 29.998.033 15 .018 14.999.047-14.999.049-15 .015-29.998.034-29.999-.034-15-.017-14.999-.047Z" fill="#263238"/><path d="M74 89.516c31.249 0 56.583-2.757 56.583-6.159 0-3.4-25.334-6.158-56.584-6.158-31.25 0-56.583 2.757-56.583 6.159 0 3.4 25.333 6.158 56.583 6.158Z" fill="#EBEBEB"/><path d="M60.828 82.337c-.46.154-13.644.196-14.149-.114-.197-.118-.31-2.025-.394-4.334a119.75 119.75 0 0 1-.044-1.534l-1.051-6.986 8.814-.056.831 6.987-.033 1.537s5.055 2.224 5.572 2.628c.517.404.914 1.717.454 1.872Z" fill="#EB9481"/><path d="M60.827 82.338c-.46.154-13.644.196-14.149-.114-.233-.145-.359-2.93-.43-5.868l8.576-.055-.033 1.536s5.055 2.225 5.572 2.629c.517.404.924 1.717.464 1.872Z" fill="#fff"/><path d="M60.829 82.34c-.46.155-13.644.196-14.15-.114-.197-.117-.309-2.024-.394-4.333l8.5-.053s5.055 2.224 5.572 2.628c.517.404.931 1.717.472 1.872Z" fill="#A6A6A6"/><path d="M60.636 81.816c-2.21-.047-11.13-.026-13.318.096-.018 0-.018.012 0 .014 2.19.092 11.11 0 13.318-.075.047-.002.047-.035 0-.035ZM59.513 79.996a1.789 1.789 0 0 0-1.32.541c-.311.315-.486.736-.49 1.176 0 .014.024.014.026 0 .073-.433.286-.832.606-1.135a2.058 2.058 0 0 1 1.182-.552.016.016 0 0 0 .008-.01.016.016 0 0 0-.002-.012.016.016 0 0 0-.01-.008ZM55.648 78.055c-.884-.01-1.909.304-2.457 1.025-.02.027.02.057.045.043a12.332 12.332 0 0 1 2.428-.96.055.055 0 0 0 .04-.061.055.055 0 0 0-.056-.047ZM56.334 78.313c-.886 0-1.91.305-2.457 1.025-.021.029.018.058.046.045.771-.407 1.584-.73 2.425-.963a.055.055 0 0 0 .04-.06.055.055 0 0 0-.054-.047ZM57.017 78.578c-.884 0-1.908.304-2.457 1.025-.02.028.02.057.045.043a12.335 12.335 0 0 1 2.428-.96.055.055 0 0 0 .04-.06.055.055 0 0 0-.056-.048ZM57.701 78.84c-.886-.01-1.91.304-2.457 1.025-.021.028.02.057.046.043a12.277 12.277 0 0 1 2.427-.96.055.055 0 0 0 .032-.023.055.055 0 0 0-.047-.085ZM47.875 79.824c-.987 0-.987 1.539 0 1.533.986-.006.994-1.539 0-1.533Z" fill="#263238"/><path d="M56.597 75.707c-.447-.368-1.012 0-1.286.378a4.601 4.601 0 0 0-.79 2.25c0 .018.014.026.028.026a.105.105 0 0 0 .062.075.106.106 0 0 0 .098-.007c.627-.433 1.354-.82 1.83-1.434.27-.357.49-.945.058-1.288Zm-1.077 1.87c-.304.221-.618.427-.914.66.158-.439.294-.882.496-1.305.093-.203.2-.4.32-.588.197-.292 1.057-1.029 1.148-.074.051.523-.689 1.044-1.05 1.307Z" fill="#263238"/><path d="M52.319 78.665c.77.114 1.564-.106 2.32-.225a.108.108 0 0 0 .065-.16.024.024 0 0 0 .01-.02.024.024 0 0 0-.01-.018 4.65 4.65 0 0 0-2.143-1.072c-.465-.088-1.125.04-1.184.613-.07.541.492.812.941.882Zm-.537-.498c-.592-.752.539-.817.878-.738.22.054.436.124.647.207.432.178.854.378 1.265.598-.375.037-.744.104-1.117.155-.446.059-1.342.192-1.673-.221Z" fill="#263238"/><path d="M32.228 37.082s10.236 17.295 10.51 18.51c.42 1.866 2.649 20.292 2.649 20.292l10.656-.196s-1.835-16.246-3.574-21.599c-1.251-3.855-10.285-16.642-10.285-16.642l-9.956-.365Z" fill="#37474F"/><path d="M55.074 74.073c-1.53-.011-6.95-.072-8.987.116-.016 0-.014.027 0 .03.7.1 7.455-.055 8.985-.104h.01a.022.022 0 1 0-.008-.042ZM33.974 38.673c.671 1.044 1.382 2.068 2.064 3.104.683 1.037 1.37 2.074 2.047 3.109 1.35 2.09 2.665 4.195 3.946 6.313.626.982 1.16 2.018 1.599 3.095.4 1.077.7 2.189.898 3.32.209 1.135.347 2.282.475 3.428.132 1.22.27 2.44.413 3.66.28 2.497.56 4.994.842 7.49.034.307.067.612.099.92 0 .045-.077.053-.083 0-.314-2.48-.574-4.969-.858-7.448l-.425-3.71c-.132-1.15-.258-2.303-.438-3.446a22.412 22.412 0 0 0-.75-3.332 15.952 15.952 0 0 0-1.472-3.234c-1.233-2.115-2.54-4.193-3.846-6.272a249.382 249.382 0 0 0-4.025-6.23c-.17-.254-.342-.506-.52-.755-.013-.014.022-.032.034-.012Z" fill="#263238"/><path d="M35.583 83.356c-.486-.03-13.024-5.074-13.371-5.552a.164.164 0 0 1-.02-.093c0-.429.87-1.926 1.596-3.894.046-.126.37-.71.817-1.496 1.245-2.154 3.416-5.864 3.416-5.864l8.195 3.234-3.923 5.831-.61 1.411s3.847 3.95 4.17 4.508c.324.559.213 1.943-.27 1.915Z" fill="#EB9481"/><path d="M35.583 83.359c-.486-.03-13.024-5.074-13.371-5.553a.163.163 0 0 1-.02-.092c0-.429.87-1.927 1.596-3.894.046-.126.37-.71.817-1.496l7.696 3.2-.61 1.412s3.847 3.95 4.17 4.508c.324.559.206 1.942-.278 1.915Z" fill="#fff"/><path d="M35.582 83.356c-.485-.03-13.024-5.075-13.371-5.553-.134-.182.426-1.882 1.579-3.987l7.893 3.119s3.846 3.945 4.172 4.508c.325.562.21 1.94-.273 1.913Z" fill="#A6A6A6"/><path d="M35.603 82.802c-2.031-.866-10.307-4.17-12.381-4.872-.018 0-.022 0 0 .011 1.995.902 10.297 4.14 12.373 4.9.04.01.051-.021.008-.039ZM35.248 80.696a1.785 1.785 0 0 0-1.428 0 1.71 1.71 0 0 0-.896.905c0 .012.018.022.023.01a2.05 2.05 0 0 1 .995-.829 2.067 2.067 0 0 1 1.297-.07.013.013 0 0 0 .008-.006c.001-.003.002-.007.001-.01ZM32.401 77.456c-.815-.34-1.885-.43-2.664.035-.03.018 0 .059.026.057a12.38 12.38 0 0 1 2.612.014.056.056 0 0 0 .06-.042.055.055 0 0 0-.034-.064ZM32.934 77.952c-.815-.34-1.884-.43-2.664.035-.03.018 0 .06.026.057a12.255 12.255 0 0 1 2.612.014.056.056 0 0 0 .06-.042.055.055 0 0 0-.034-.064ZM33.472 78.452c-.817-.34-1.886-.43-2.664.035-.031.018 0 .06.024.057a12.255 12.255 0 0 1 2.613.014.055.055 0 0 0 .058-.08.055.055 0 0 0-.03-.026ZM34.005 78.948c-.817-.339-1.884-.429-2.664.034-.031.02 0 .06.024.058a12.262 12.262 0 0 1 2.613.014.055.055 0 0 0 .062-.04.055.055 0 0 0-.035-.066ZM24.523 76.2c-.921-.365-1.493 1.06-.568 1.425.926.364 1.5-1.06.569-1.425Z" fill="#263238"/><path d="M34.167 75.631c-.278-.507-.935-.382-1.336-.13a4.62 4.62 0 0 0-1.581 1.8c0 .004 0 .007.002.01a.023.023 0 0 0 .007.009.022.022 0 0 0 .01.005c0 .064.043.14.12.125.747-.17 1.566-.259 2.237-.65.385-.228.803-.689.541-1.169Zm-1.707 1.331c-.365.092-.732.167-1.093.272.299-.357.615-.7.95-1.025a5 5 0 0 1 .522-.43c.286-.197 1.367-.56 1.091.36-.152.507-1.034.713-1.47.823Z" fill="#263238"/><path d="M29.08 76.785c.67.392 1.49.484 2.236.656.077.018.128-.059.122-.125a.02.02 0 0 0 .01-.004.02.02 0 0 0 .007-.008.02.02 0 0 0 .002-.011 4.62 4.62 0 0 0-1.582-1.804c-.395-.255-1.055-.382-1.336.123-.28.506.148.943.54 1.173Zm-.308-.663c-.274-.92.805-.555 1.091-.357.184.132.358.277.521.434.333.326.65.669.947 1.027-.36-.106-.728-.183-1.093-.275-.442-.117-1.316-.313-1.466-.829Z" fill="#263238"/><path d="m32.93 75.197-9.174-3.679S35.13 54.908 35.213 53.67c.075-1.093-4.922-10.623-5.117-13.4-.213-2.999 1.24-5.318 2.838-6.758l9.462 3.996s-.998 1.586-2.565 2.47c0 0 4.852 11.015 4.576 14.402-.276 3.387-11.477 20.817-11.477 20.817Z" fill="#37474F"/><path d="M33.337 73.464c-1.326-.566-.937-.423-2.271-.98-.651-.27-4.933-2.04-5.592-2.187-.014 0-.024.02-.01.027.57.347 4.888 2.043 5.545 2.301 1.344.526.963.361 2.313.87a.019.019 0 0 0 .007.007.02.02 0 0 0 .02-.002.02.02 0 0 0 .008-.017.021.021 0 0 0-.003-.01.02.02 0 0 0-.017-.01ZM41.382 39.775a17.932 17.932 0 0 0-2.891.935.03.03 0 0 0-.009.032.03.03 0 0 0 .006.01.03.03 0 0 0 .032.008c.968-.28 1.95-.542 2.901-.873.073-.026.036-.128-.04-.112Z" fill="#263238"/><path d="M40.256 39.395c-.092.162-.173.33-.243.503-.068.132-.11.275-.124.422 0 .03.04.035.057.017a1.47 1.47 0 0 0 .237-.392c.08-.154.163-.307.24-.466.054-.116-.106-.19-.167-.084Z" fill="#263238"/><path d="M40.373 38.507c.06-.145.117-.288.178-.433.061-.145.138-.294.197-.447 0-.023.048 0 .038.018-.06.145-.097.298-.142.447-.046.149-.097.297-.146.447-.093.276-.198.55-.326.819.155.008.31-.02.454-.079a.81.81 0 0 0 .322-.392c.083-.16.16-.325.244-.486a3.24 3.24 0 0 0 .263-.547c0-.023.047 0 .037.018-.128.402-.297.79-.503 1.158-.089.143-.158.294-.32.35a1.345 1.345 0 0 1-.538.037c-.024 0-.052 0-.044-.036.081-.296.177-.587.286-.874ZM39.97 40.338c.338.708.634 1.414.948 2.12.314.705.592 1.387.874 2.089a55.043 55.043 0 0 1 1.514 4.312c.219.72.422 1.448.604 2.181.2.73.346 1.475.438 2.227.079.75.012 1.509-.198 2.234a13.017 13.017 0 0 1-.834 2.084c-.208.423-.277.366-.178.152.282-.607 1.022-2.448.969-3.994a11.46 11.46 0 0 0-.343-2.193 38.516 38.516 0 0 0-.583-2.205c-.42-1.439-.92-2.848-1.432-4.255-.288-.785-.592-1.569-.888-2.353-.296-.784-.592-1.505-.924-2.371-.01-.035.024-.05.034-.028ZM33.008 37.997c.164-.06.395.04.56.067a4.824 4.824 0 0 0 1.295.043c.216-.005.427-.061.617-.163a3.13 3.13 0 0 0 .79-.829c.25-.329.456-.689.613-1.07 0-.023.042 0 .034.016-.07.217-.12.437-.197.65-.085.201-.187.395-.304.579-.19.37-.471.687-.817.92-.381.216-.87.197-1.295.18a5.094 5.094 0 0 1-.732-.097c-.174-.037-.466-.065-.576-.215a.052.052 0 0 1-.013-.043.052.052 0 0 1 .025-.038Z" fill="#263238"/><path d="M26.375 69.777a336.369 336.369 0 0 0 4.44-6.86 428.828 428.828 0 0 0 4.298-6.968c.338-.558.726-1.115.943-1.734.237-.673.103-1.325-.11-1.984a33.532 33.532 0 0 0-1.41-3.528c-.528-1.158-1.098-2.297-1.659-3.44-.56-1.142-1.146-2.271-1.578-3.463-.395-1.139-.555-2.319-.247-3.499.308-1.18.97-2.222 1.663-3.204.182-.259.37-.516.553-.784.014-.02.044 0 .03.023-.764 1.023-1.508 2.107-1.956 3.309a5.679 5.679 0 0 0-.379 1.852 5.96 5.96 0 0 0 .298 1.895c.371 1.192.957 2.319 1.504 3.44s1.13 2.282 1.67 3.436a36.628 36.628 0 0 1 1.48 3.565c.183.54.394 1.104.378 1.682-.014.633-.318 1.203-.633 1.736a303.45 303.45 0 0 1-4.237 6.9 352.204 352.204 0 0 1-4.422 6.82l-.569.853c-.03.035-.08-.006-.057-.047Z" fill="#263238"/><path d="M42.922 26.944c.855 1.862 5.17 4.427 7.191 4.704 1.453.196 5.869.266 7.382.037 1.776-.27.419-5.024-.63-4.9-2.88.333-5.327.705-6.097.705-.939 0-6.02-1.618-6.632-1.848-1.5-.555-1.697.245-1.214 1.302Z" fill="#EB9481"/><path d="M42.95 27.442c1.082 1.59 4.675 4.188 4.675 4.188l.5-1.097 1.651-3.63s-3.301-1.03-5.474-1.5a4.795 4.795 0 0 0-.777-.11c-1.388-.074-1.508.777-.575 2.149Z" fill="#FD7E14"/><path d="M42.95 27.442c1.082 1.59 4.675 4.189 4.675 4.189l.5-1.098c-1.34-1.546-3.41-3.889-4.6-5.235-1.388-.078-1.508.772-.575 2.144Z" fill="#263238"/><path d="M46.977 30.893c.275-.668 1.494-3.36 1.798-3.92.02-.039.051-.035.034 0a39.428 39.428 0 0 1-1.804 3.92c-.008.024-.04.016-.028 0Z" fill="#263238"/><path d="M56.336 26.833c1.752-.227 3.921-.617 5.758.157.206.08.38.228.492.418.828.333.92.82.92.82.676.546.7 1.06.7 1.06s.97.391.822 1.022c-.161.698-1.491 0-2.458.057-2.22.137-5.328.947-5.97 1.049l-.264-4.583Z" fill="#EB9481"/><path d="M60.143 28.888c.649-.044 1.3-.044 1.95 0 .706.088 1.406.23 2.091.422a.018.018 0 0 0 .023-.011.018.018 0 0 0-.011-.023 7.604 7.604 0 0 0-4.053-.407c-.032-.004-.032.021 0 .02ZM59.73 26.852c1.083.055 1.76.227 2.85.552v-.011c-1.2-.498-1.692-.545-2.856-.588-.037.015-.035.047.006.047Z" fill="#263238"/><path d="M59.907 30.703c-.282.131-.213.278.326.402.538.123 2.778.16 2.699.937-.079.776-3.238.678-4.12.404-.882-.275-2.21-1.027-2.21-1.027.625-.104 2.093-.498 3.305-.716Z" fill="#EB9481"/><path d="M45.269 29.91c-.014.336-.046.677-.093 1.016 0-.014 0-.025.014-.037.065-.177.13-.357.209-.527h.018c-.038.186-.095.369-.17.545-.035.084-.069.166-.106.248-.024.151-.052.3-.081.45-.06.28-.326 1.471-.395 1.673-.012.041-.063.031-.06-.016.015-.22.238-1.46.283-1.742.088-.545.206-1.085.353-1.617.01-.01.03-.002.028.008Z" fill="#263238"/><path d="M43.216 38.825c-.527.269-1.206.686-4.265.089a6.523 6.523 0 0 1-.576-.143c-2.867-.855-6.315-4.205-6.502-4.442 0 0 4.556-7.336 10.384-9.643.72-.284 1.912.265 2.565.949.235.245.746 2.046.55 3.504-.195 1.458-1.631 9.418-2.156 9.686Z" fill="#FD7E14"/><path d="M42.805 29.07a2.21 2.21 0 0 1-.128.914c-.025-.31.019-.622.128-.914ZM40.82 34.066c.012.155.007.31-.017.463a1.911 1.911 0 0 1-.112.45 1.917 1.917 0 0 1 .016-.464c.02-.153.058-.304.112-.449ZM37.442 30.29c.022.31-.022.622-.129.914-.024-.31.02-.623.129-.915ZM44.106 33.813c.013.154.008.31-.016.464a1.905 1.905 0 0 1-.112.45 1.926 1.926 0 0 1 .016-.464c.02-.154.057-.305.112-.45ZM39.77 29.644c.155-.013.311-.008.465.014.156.02.308.057.454.113a2.237 2.237 0 0 1-.92-.127ZM35.938 33.252a2.25 2.25 0 0 1 .92.127 2.153 2.153 0 0 1-.92-.127ZM40.453 37.158a2.24 2.24 0 0 1 .92.127 2.166 2.166 0 0 1-.92-.127ZM34.756 35.74a2.25 2.25 0 0 1 .92.127 2.165 2.165 0 0 1-.92-.127ZM42.775 25.56a2.25 2.25 0 0 1 .92.128 2.254 2.254 0 0 1-.92-.128ZM41.662 26.809c-.1.119-.214.225-.34.317a2.098 2.098 0 0 1-.394.24 2.08 2.08 0 0 1 .734-.557ZM35.586 30.363a1.987 1.987 0 0 1-.342.316 1.864 1.864 0 0 1-.394.239c.101-.118.216-.223.341-.316.121-.095.254-.175.395-.239ZM43.172 31.965a2 2 0 0 1-.342.317 1.916 1.916 0 0 1-.395.24c.101-.12.216-.226.342-.318.122-.094.254-.175.395-.24ZM38.26 35.04a2.003 2.003 0 0 1-.342.317 1.945 1.945 0 0 1-.395.239c.101-.119.216-.226.342-.318.122-.094.254-.174.395-.239ZM45.054 27.77a2 2 0 0 1-.341.317 2.097 2.097 0 0 1-.395.24c.101-.12.216-.226.342-.318a1.95 1.95 0 0 1 .394-.24ZM44.953 31.329c-.12-.1-.227-.214-.32-.34a1.883 1.883 0 0 1-.24-.391c.12.099.227.212.32.337.093.122.174.254.24.394ZM34 33.782c-.12-.1-.227-.214-.32-.34a2.02 2.02 0 0 1-.24-.391c.119.1.226.214.32.339.095.12.176.252.24.392ZM43.621 36.702c-.12-.1-.227-.212-.32-.337a2.084 2.084 0 0 1-.24-.392c.119.1.226.214.32.339.094.12.175.25.24.39ZM38.799 28.381a1.99 1.99 0 0 1-.32-.337 2.142 2.142 0 0 1-.24-.392c.12.1.227.213.319.337.094.122.175.254.24.392ZM38.885 38.364a2 2 0 0 1-.32-.34 2.064 2.064 0 0 1-.24-.391c.12.099.226.212.319.337.095.122.176.254.24.394ZM39.703 32.477a2.07 2.07 0 0 1-.318-.339 1.846 1.846 0 0 1-.24-.392c.118.1.225.214.317.34.096.12.177.251.241.391Z" fill="#fff"/><path d="M43.754 27.589c-.744-.138-1.442-1.664-1.531-2.691 0-.071.347-.63.744-1.33.24-.425.495-.905.698-1.36.042-.092.284.22.284.22l.53.392 1.746 1.33a7.9 7.9 0 0 0-1.052 1.622.98.98 0 0 0-.063.196V26c-.109.388-.64 1.719-1.356 1.588Z" fill="#EB9481"/><path d="M45.111 25.977v.034a1.973 1.973 0 0 1-.302-.116c-1.912-.89-1.07-3.434-1.07-3.434l.75.368 1.747 1.331a7.898 7.898 0 0 0-1.052 1.621.97.97 0 0 0-.073.196ZM48.232 18.734s.875.551.879 1.531c.004.98-.395 1.939-.478 1.974-.083.035-.4-3.505-.4-3.505Z" fill="#263238"/><path d="M43.896 19.245c-.525 1.029-.498 4.272.157 5.107.952 1.212 2.783 1.63 3.89.432 1.071-1.16.96-5.386.197-6.174-1.11-1.165-3.467-.888-4.244.635Z" fill="#EB9481"/><path d="M46.68 21.84s-.018.012-.016.02c.012.22-.012.476-.21.554v.012c.246-.04.273-.378.226-.586Z" fill="#263238"/><path d="M46.478 21.614c-.36-.02-.371.694-.038.711.334.018.338-.696.038-.711ZM47.899 21.832s.017 0 .017.02c-.011.221.014.476.216.552v.012c-.25-.037-.279-.376-.233-.584Z" fill="#263238"/><path d="M48.102 21.606c.357-.022.375.692.044.711-.332.02-.344-.693-.044-.711ZM46.252 21.072c.095-.027.188-.058.279-.094a.475.475 0 0 0 .268-.15.15.15 0 0 0-.022-.181.377.377 0 0 0-.379-.045.558.558 0 0 0-.323.233.162.162 0 0 0 .085.23c.03.011.062.013.092.007ZM48.346 21.387a2.877 2.877 0 0 1-.284-.078.474.474 0 0 1-.274-.136.147.147 0 0 1 .012-.182.375.375 0 0 1 .375-.064.553.553 0 0 1 .335.215.16.16 0 0 1-.072.234.163.163 0 0 1-.092.011ZM46.175 23.937c.053.053.105.123.186.131a.596.596 0 0 0 .24-.051s.014 0 0 .012a.298.298 0 0 1-.284.115.239.239 0 0 1-.173-.196.016.016 0 0 1 0-.012.017.017 0 0 1 .01-.01.017.017 0 0 1 .021.01ZM47.466 22.991s.01.33 0 .485a3.275 3.275 0 0 0-.91.03c-.07.017-.063-.04.018-.078.242-.11.511-.145.774-.101.015-.042-.026-.51 0-.508.119.023.235.063.343.117 0-.69-.11-1.372-.1-2.061 0-.024.037-.028.04 0 .141.73.207 1.471.198 2.214.002.085-.304-.066-.363-.098Z" fill="#263238"/><path d="M47.022 23.358a.982.982 0 0 1-.415.492c-.298.12-.394-.149-.094-.392a.968.968 0 0 1 .509-.1Z" fill="#263238"/><path d="M46.713 23.79a.395.395 0 0 1-.105.06c-.274.11-.383-.107-.162-.327.15.012.322.067.267.267Z" fill="#FF99BA"/><path d="M43.745 22.017c.36.11.775-.968.894-1.372.102-.364.22-1.523.238-1.603.018-.08 1.58 1.025 2.483.762.904-.262 1.517-1.076 1.531-1.454.014-.378-1.117-1.339-2.093-1.388-.977-.049-2.301 1.176-2.301 1.176.16-.18.305-.373.434-.576-.016-.043-.648.208-.764.655 0 0 .126-.563.079-.573-.047-.01-.539.47-.428.835 0 0-.569.488-.62 1.024-.051.535.123 2.385.547 2.514Z" fill="#263238"/><path d="M48.007 19.599a3.013 3.013 0 0 1-.858.305 2.051 2.051 0 0 1-.987-.156 3.035 3.035 0 0 1-.86-.506c-.227-.184-.43-.41-.673-.574-.061-.043-.13.045-.093.1a3.26 3.26 0 0 0 1.65 1.207 1.893 1.893 0 0 0 1.82-.368s.005-.008.001-.008Z" fill="#263238"/><path d="M44.122 21.92s-.56-1.13-1.066-.947c-.505.182-.197 1.744.322 2.03a.564.564 0 0 0 .79-.184l-.046-.9Z" fill="#EB9481"/><path d="M43.158 21.418s-.012 0 0 .016c.359.211.505.588.592.98a.309.309 0 0 0-.446-.153c-.012 0 0 .021 0 .021a.348.348 0 0 1 .357.177c.056.104.101.215.134.329.012.037.077.027.071-.014.085-.488-.191-1.227-.708-1.356Z" fill="#263238"/><path d="M40.422 26.962c-.395 2.221 2.028 9.702 3.581 11.1 2.311 2.078 6.583 3.444 8.132 3.889.675.196 2.542-4.522 1.86-4.834-1.463-.66-6.005-2.072-6.438-2.424-.432-.353-3.037-4.09-4.197-6.243-1.553-2.897-2.743-2.61-2.938-1.488Z" fill="#EB9481"/><path d="M52.843 36.703s2.017.512 3.317.906c.727.221 1.938.71 2.398 1.113.687.606 3.17 3.57 2.459 4.183-.643.556-2.451-2.26-2.451-2.26s2.076 2.681 1.184 3.208c-.892.527-2.524-2.924-2.524-2.924s2.07 2.803 1.058 3.2c-.766.3-2.408-2.743-2.408-2.743s1.765 2.42.987 2.763c-.856.38-2.547-2.336-2.547-2.336-2.116.543-3.355-.059-4.17-.588-.192-.13 2.697-4.522 2.697-4.522Z" fill="#EB9481"/><path d="M57.908 39.667c.256.306.517.616.744.943.227.327.442.665.637 1.011.265.45.477.927.632 1.423-.34-.862-1.135-2.048-1.362-2.375-.227-.327-.438-.666-.663-.994-.006-.008.006-.015.012-.008ZM56.701 40.463c.438.345 1.356 1.627 1.71 2.488.015.035-.001.033-.027 0a119.734 119.734 0 0 0-1.693-2.482c-.006-.006.004-.011.01-.006ZM55.543 40.964a6.138 6.138 0 0 1 1.267 1.96c.014.036-.014.03-.035 0-.409-.66-.725-1.176-1.253-1.942-.008-.018.01-.035.021-.018Z" fill="#263238"/><path d="M42.625 27.127c-1.802-2.53-2.88-1.594-2.518 1.154.339 2.57 1.245 5.631 1.245 5.631l4.538-2.187s-2.119-2.977-3.265-4.598Z" fill="#FD7E14"/><path d="M43.72 28.121c.06.143.102.292.128.445.028.153.038.31.03.465a2.019 2.019 0 0 1-.127-.447 1.904 1.904 0 0 1-.031-.463ZM41.03 29.659c.289-.117.6-.17.913-.157a2.03 2.03 0 0 1-.448.126c-.153.029-.31.04-.466.03ZM41.146 25.723a2.187 2.187 0 0 1-.535.754c.123-.286.305-.543.535-.754ZM44.992 30.84c-.06.143-.136.28-.227.406a1.987 1.987 0 0 1-.308.348c.122-.286.304-.543.535-.754ZM41.834 32.375a1.979 1.979 0 0 1-.409-.225 1.984 1.984 0 0 1-.35-.306c.288.121.547.302.759.53Z" fill="#fff"/><path d="M43.215 27.887c.243.331.493.654.742.98a5.689 5.689 0 0 1-.166-.5h.012c.05.13.107.257.154.392l.071.196a.353.353 0 0 1 .016.041c.197.253.395.506.576.765.223.31.438.623.655.936.217.314.436.704.671 1.02.022.027-.395.196-.44.217-.045.022-.069-.016-.026-.03.044-.013.375-.215.38-.219-.218-.317-.468-.61-.695-.917a49.92 49.92 0 0 1-.671-.927c-.444-.635-.85-1.294-1.293-1.93l.014-.024ZM40.213 30.099c.07.133.144.264.198.402l.075.17c-.105-.488-.198-.98-.306-1.468.209.784.42 1.586.613 2.381.184.761.407 1.53.514 2.305.137-.06.28-.107.426-.143-.147.095-.305.17-.47.226-.238-.79-.435-1.59-.592-2.4-.05-.219-.095-.438-.142-.658-.051-.133-.113-.26-.174-.392-.06-.131-.116-.278-.171-.417.012-.008.025-.016.03-.006Z" fill="#263238"/><path d="M41.418 33.155c.632-.353 3.27-1.71 3.86-1.96.041-.018.063 0 .022.027a39.872 39.872 0 0 1-3.868 1.96c-.016.004-.032-.018-.014-.027Z" fill="#263238"/><path d="M113.727 84.685H53.603l8.693-48.97h60.124l-8.693 48.97ZM82.875 30.64H63.199l-.902 5.073h21.057l-.48-5.072Z" fill="#FD7E14"/><g opacity=".1" fill="#000"><path d="M113.727 84.685H53.603l8.693-48.97h60.124l-8.693 48.97ZM82.875 30.64H63.199l-.902 5.073h21.057l-.48-5.072Z"/></g><path d="M61.075 32.71a3.735 3.735 0 0 1 0-1.706c.132.56.132 1.144 0 1.705ZM59.325 33.212a3.333 3.333 0 0 1-.515-.69 3.394 3.394 0 0 1-.345-.784c.201.206.374.437.515.688.147.247.264.511.345.786ZM58.064 34.517a3.792 3.792 0 0 1-1.486-.853c.277.08.542.194.79.341.252.141.486.313.696.512ZM57.621 36.27c-.565.13-1.152.13-1.717 0a3.807 3.807 0 0 1 1.717 0ZM58.134 38.008a3.48 3.48 0 0 1-.694.511 3.402 3.402 0 0 1-.79.341c.209-.2.442-.371.695-.511.247-.147.512-.262.79-.341ZM59.444 39.262a3.744 3.744 0 0 1-.858 1.478c.08-.276.196-.54.345-.784a3.39 3.39 0 0 1 .513-.694ZM61.212 39.695c.07.28.102.566.1.853a3.31 3.31 0 0 1-.1.852 3.229 3.229 0 0 1-.098-.852c-.003-.287.03-.574.099-.853ZM62.96 39.203c.202.207.375.439.516.69.148.245.264.509.343.784a3.745 3.745 0 0 1-.858-1.478v.004ZM64.223 37.89c.277.08.542.194.789.342.253.14.486.312.695.511a3.323 3.323 0 0 1-.79-.34 3.353 3.353 0 0 1-.694-.512ZM64.658 36.133a3.82 3.82 0 0 1 1.719 0c-.565.13-1.153.13-1.719 0ZM64.152 34.396c.21-.199.443-.37.695-.51.247-.149.512-.264.79-.343a3.781 3.781 0 0 1-1.489.853h.004ZM62.84 33.142c.081-.275.196-.538.343-.784.141-.251.314-.483.515-.69-.08.275-.195.539-.343.784a3.335 3.335 0 0 1-.515.69Z" fill="#263238"/><path d="M113.638 84.685H53.386L44.83 37.492h60.254l8.554 47.193Z" fill="#FD7E14"/><path d="M65.71 66.342a2.496 2.496 0 0 0 2.503-2.488 2.496 2.496 0 0 0-2.504-2.487 2.496 2.496 0 0 0-2.504 2.487 2.496 2.496 0 0 0 2.504 2.488ZM85.506 66.342a2.496 2.496 0 0 0 2.504-2.488 2.496 2.496 0 0 0-2.504-2.487 2.496 2.496 0 0 0-2.504 2.487 2.496 2.496 0 0 0 2.504 2.488ZM79.206 66.736l-.139-.26c-.011-.024-1.306-2.4-3.909-2.4-2.368 0-2.96 2.237-2.976 2.333l-.07.284-.575-.137.07-.287c0-.027.706-2.78 3.551-2.78 2.96 0 4.375 2.602 4.434 2.714l.138.259-.525.274ZM109.661 63.661l-.042-.196c.128-.027.255-.057.381-.09l.049.196a11.15 11.15 0 0 1-.388.09ZM110.812 63.344l-.063-.184c.247-.085.494-.177.732-.277l.077.18a10.41 10.41 0 0 1-.746.28Zm1.47-.626-.088-.172c.231-.12.461-.249.68-.392l.103.167c-.225.154-.46.286-.695.398Zm1.358-.829-.116-.158c.213-.155.418-.318.611-.485l.131.148a8.76 8.76 0 0 1-.628.503l.002-.008Zm1.204-1.042-.144-.136c.181-.196.353-.392.511-.588l.156.12c-.164.216-.34.417-.519.611l-.004-.007Zm.977-1.255-.168-.104c.136-.219.258-.447.363-.682l.182.08a6.824 6.824 0 0 1-.379.714l.002-.008Zm.653-1.454-.197-.055c.072-.246.125-.497.159-.75l.198.025c-.033.266-.087.53-.162.788l.002-.008Zm.219-1.568h-.197v-.057c0-.237-.014-.478-.038-.715l.197-.02c.026.244.04.49.04.735l-.002.057Zm-.355-1.535a7.467 7.467 0 0 0-.198-.748l.198-.06c.081.256.15.514.197.767l-.197.041Zm-.468-1.476a7.813 7.813 0 0 0-.324-.707l.178-.088c.12.243.231.486.328.72l-.182.075Zm-.691-1.397a41.75 41.75 0 0 0-.394-.67l.167-.104c.144.233.281.46.395.678l-.168.096Zm-.825-1.33c-.144-.217-.29-.434-.44-.652l.164-.11c.15.218.296.436.44.655l-.164.106Zm-.888-1.299a249.61 249.61 0 0 1-.444-.648l.164-.11c.146.216.294.433.442.647l-.162.111Zm-.882-1.305c-.144-.22-.284-.443-.422-.666l.168-.102c.138.223.278.443.42.662l-.166.106Zm-.822-1.346a14.094 14.094 0 0 1-.371-.698l.177-.088c.111.223.235.454.365.69l-.171.096Zm-.701-1.411a12.936 12.936 0 0 1-.284-.737l.197-.063c.083.237.176.482.278.723l-.191.077Zm-.513-1.496a9.159 9.159 0 0 1-.166-.784l.198-.031c.043.25.096.505.161.756l-.193.059Zm-.264-1.568a8.804 8.804 0 0 1-.03-.727v-.065h.197v.063c0 .237 0 .476.03.711l-.197.018Zm.197-1.568-.197-.02c0-.053.009-.107.015-.164.024-.21.054-.42.089-.62l.197.034c-.033.196-.063.401-.086.607a.413.413 0 0 1-.008.169l-.01-.006Zm.274-1.525-.197-.053a8.24 8.24 0 0 1 .252-.753l.184.071a7.11 7.11 0 0 0-.229.741l-.01-.006Zm9.833-1.143a2.49 2.49 0 0 1-.337-.03 9.037 9.037 0 0 1-.46-.077l.039-.196c.147.027.298.052.448.074.107.014.216.024.32.03l-.01.2Zm.811-.06-.041-.196c.248-.051.485-.142.702-.27l.103.166a2.46 2.46 0 0 1-.754.306l-.01-.006Zm-10.076-.234-.175-.092c.125-.233.265-.46.416-.678l.162.112a6.546 6.546 0 0 0-.393.664l-.01-.006Zm7.696-.011a7.633 7.633 0 0 1-.749-.28l.08-.18c.238.104.481.195.729.272l-.06.188Zm3.75-.612-.164-.11c.141-.202.224-.438.241-.684l.197.014a1.562 1.562 0 0 1-.268.786l-.006-.006Zm-5.21-.03a7.28 7.28 0 0 1-.669-.436l.117-.157c.209.153.426.294.651.423l-.099.17Zm-5.348-.61-.146-.132c.179-.197.37-.384.571-.559l.13.147a6.536 6.536 0 0 0-.549.55l-.006-.007Zm4.064-.332a7.302 7.302 0 0 1-.559-.57l.148-.13c.171.195.352.38.543.555l-.132.145Zm6.423-.531a1.924 1.924 0 0 0-.46-.588l.13-.147c.21.18.382.399.507.645l-.177.09Zm-9.318-.155-.113-.16c.221-.15.45-.288.685-.414l.093.172c-.227.125-.447.26-.659.408l-.006-.006Zm1.843-.51a6.213 6.213 0 0 1-.217-.325l-.257.1-.075-.18.227-.09c-.035-.06-.071-.118-.104-.177l.171-.096c.04.069.079.137.121.196.11-.04.223-.076.337-.112l.057.196c-.096.03-.197.061-.288.094.061.096.124.196.197.28l-.169.114Zm6.38-.337a4.224 4.224 0 0 0-.592-.239l-.131-.041.058-.196.134.043c.211.067.417.15.615.249l-.084.184Zm-5.364-.35-.041-.197c.254-.056.519-.103.789-.14l.03.195c-.261.041-.519.09-.772.147l-.006-.006Zm3.887-.106a9.205 9.205 0 0 0-.773-.1l.016-.196c.274.023.54.056.789.102l-.032.194Zm-2.338-.114-.014-.196c.235-.014.47-.022.703-.022h.096v.196h-.094c-.223.006-.456.012-.685.028l-.006-.006Zm-3.335-.468c-.106-.24-.197-.489-.286-.741l.197-.061c.083.247.176.49.279.723l-.19.079Zm-.499-1.506a8.662 8.662 0 0 1-.146-.784l.197-.027c.038.259.085.515.142.764l-.193.047Zm-.221-1.568a9.517 9.517 0 0 1-.016-.537v-.255h.197v.251c0 .177 0 .355.014.526l-.195.015Zm.235-1.568-.198-.02c.028-.258.066-.523.111-.783l.197.033c-.053.26-.091.512-.116.774l.006-.004Zm.27-1.53-.197-.048c.063-.253.136-.507.217-.762l.197.06a8.548 8.548 0 0 0-.223.753l.006-.004Zm.474-1.484-.184-.07a8.35 8.35 0 0 1 .318-.728l.177.086a7.559 7.559 0 0 0-.317.724l.006-.012Zm.678-1.398-.171-.1c.134-.225.278-.45.428-.666l.162.112a8.383 8.383 0 0 0-.424.658l.005-.004Zm.89-1.276-.153-.123c.165-.196.343-.404.526-.588l.143.135c-.186.184-.36.38-.521.58l.005-.004Zm1.074-1.129-.132-.145c.197-.174.394-.347.606-.513l.122.155c-.211.166-.413.337-.602.507l.006-.004Zm1.225-.968-.112-.163c.215-.147.44-.292.669-.429l.101.167c-.229.139-.443.282-.664.429l.006-.004Zm1.34-.81-.092-.172c.232-.123.473-.241.714-.35l.083.178c-.251.111-.482.229-.711.349l.006-.004Zm1.427-.65-.073-.184c.249-.096.499-.196.748-.269l.063.196a9.266 9.266 0 0 0-.744.26l.006-.003ZM122.868 19.33l-.05-.197c.245-.063.395-.09.395-.09l.036.196s-.143.03-.381.09Z" fill="#263238"/><path d="M126.358 18.065c-.503-1.549-3.874-.992-3.217 1.033.657 2.024 3.72.517 3.217-1.033Z" fill="#263238"/><path d="M121.307 17.444c.026-.68.977-1.203 2.323-.962 1.346.24 2.611 1.142 2.611 1.142s-1.329.8-2.688.947c-1.36.147-2.271-.449-2.246-1.127Z" fill="#EBEBEB"/><path d="M126.24 17.622c-.698 0-1.395-.02-2.092-.041a44.093 44.093 0 0 1-2.091-.112c.698 0 1.397.017 2.093.039.697.021 1.395.057 2.09.114Z" fill="#263238"/><path d="M122.658 16.84c.397.188.771.42 1.115.692a5.275 5.275 0 0 1-.576-.314 5.606 5.606 0 0 1-.539-.378ZM124.488 17.555a6.433 6.433 0 0 1-1.154.74 6.437 6.437 0 0 1 1.16-.74h-.006ZM124.691 17.172c.2.095.374.234.51.408a1.367 1.367 0 0 1-.279-.175 1.477 1.477 0 0 1-.231-.233Z" fill="#263238"/><path d="M122.59 21.474c.42.537 1.499.407 2.449-.569.949-.976 1.452-2.444 1.452-2.444s-1.555.117-2.741.784c-1.186.666-1.583 1.69-1.16 2.229Z" fill="#EBEBEB"/><path d="M126.491 18.46c-.568.393-1.121.828-1.675 1.25-.555.42-1.098.856-1.628 1.305.568-.392 1.12-.825 1.673-1.247a46.85 46.85 0 0 0 1.63-1.307Z" fill="#263238"/><path d="M124.041 21.168c.106-.19.2-.386.282-.588.084-.201.155-.408.213-.62a5.556 5.556 0 0 0-.495 1.208ZM125.11 19.529c-.462-.025-.925 0-1.381.072.23.014.46.014.69 0 .232-.01.462-.035.691-.072ZM125.49 19.723a1.476 1.476 0 0 0 .174-.63 1.46 1.46 0 0 0-.174.63Z" fill="#263238"/><path d="M126.357 18.061a.596.596 0 0 1-.634-.177.589.589 0 0 1 .819-.843.588.588 0 0 1 .159.729.59.59 0 0 1-.344.291Z" fill="#455A64"/><path d="M126.72 19.183a.597.597 0 0 1-.633-.178.59.59 0 0 1-.077-.65.589.589 0 0 1 .574-.318.594.594 0 0 1 .516.405.587.587 0 0 1-.38.74Z" fill="#455A64"/><path d="M62.023 18.681c-.094.9-.439 1.757-.995 2.474a4.915 4.915 0 0 1-2.154 1.587 4.95 4.95 0 0 1-5.068-.97l-2.46.359 1.231-2.113a4.854 4.854 0 0 1 .291-4.274 4.899 4.899 0 0 1 1.506-1.61 4.937 4.937 0 0 1 4.27-.605c.71.229 1.36.615 1.898 1.13a4.88 4.88 0 0 1 1.209 1.84c.256.698.35 1.444.272 2.182Z" fill="#fff"/><path d="M62.023 18.683a4.882 4.882 0 0 1-.987 2.475c-.27.364-.595.683-.965.947-.36.273-.76.494-1.183.656a4.864 4.864 0 0 1-2.007.328 4.405 4.405 0 0 1-.681-.07 4.98 4.98 0 0 1-2.433-1.194l.057.017-2.457.375-.18.027.091-.157 1.224-2.117v.085a4.905 4.905 0 0 1 .304-4.354 5.02 5.02 0 0 1 1.539-1.63 5.028 5.028 0 0 1 4.323-.588c.711.24 1.36.635 1.897 1.156.536.52.946 1.154 1.199 1.855.252.7.341 1.449.26 2.189Zm0 0a4.801 4.801 0 0 0-.268-2.176 4.828 4.828 0 0 0-1.208-1.835 4.896 4.896 0 0 0-4.1-1.282c-.73.108-1.425.38-2.031.796a5.048 5.048 0 0 0-1.472 1.596 4.802 4.802 0 0 0-.279 4.21l.018.043-.023.041-1.24 2.11-.087-.13 2.463-.343h.034l.023.021a4.858 4.858 0 0 0 2.357 1.198c.22.044.443.071.667.08.224.016.448.016.672 0 .45-.036.892-.133 1.315-.288a4.635 4.635 0 0 0 1.184-.635 4.48 4.48 0 0 0 .967-.935c.56-.715.908-1.57 1.008-2.471Z" fill="#263238"/><path d="M54.727 20.453a.472.472 0 0 1 .291-.464.507.507 0 0 1 .696.464.5.5 0 0 1-.505.502.479.479 0 0 1-.482-.502Zm.198-1.158-.115-3.889h.79l-.115 3.889h-.56ZM56.604 20.453a.472.472 0 0 1 .29-.464.507.507 0 0 1 .695.464.5.5 0 0 1-.505.502.48.48 0 0 1-.451-.311.471.471 0 0 1-.029-.19Zm.198-1.158-.109-3.889h.79l-.115 3.889h-.566ZM58.48 20.453a.47.47 0 0 1 .29-.464.507.507 0 0 1 .696.464.5.5 0 0 1-.505.502.48.48 0 0 1-.453-.31.47.47 0 0 1-.029-.192Zm.197-1.158-.115-3.889h.79l-.113 3.889h-.562Z" fill="#FD7E14"/></svg>