<svg width="148" height="98" viewBox="0 0 148 98" fill="none" xmlns="http://www.w3.org/2000/svg">
<path d="M43.391 23.965L21.25 38.6758L43.0587 71.0576L65.1997 56.3468L43.391 23.965Z" fill="#F5F5F5"/>
<path d="M53.7579 54.8141L53.5073 56.3586L42.5 54.7828L42.7506 53.2383L53.7579 54.8141Z" fill="#E0E0E0"/>
<path d="M48.2152 49.3047L49.7939 49.5301L48.0435 60.2944L46.4629 60.067L48.2152 49.3047Z" fill="#E0E0E0"/>
<path d="M38.0865 35.6214C38.1023 35.6429 35.8843 37.1463 33.1315 38.973C30.3787 40.7997 28.135 42.2658 28.1192 42.2423C28.1034 42.2187 30.3215 40.7174 33.0743 38.8887C35.8271 37.06 38.0609 35.5979 38.0865 35.6214Z" fill="#E0E0E0"/>
<path d="M46.2202 33.5939C46.236 33.6174 42.5459 36.0949 37.9796 39.129C33.4133 42.163 29.6916 44.6032 29.6797 44.5817C29.6679 44.5601 33.3501 42.0788 37.9223 39.0447C42.4945 36.0106 46.2044 33.5704 46.2202 33.5939Z" fill="#E0E0E0"/>
<path d="M47.853 36.0158C47.8688 36.0393 44.1787 38.5187 39.6124 41.5528C35.0461 44.5869 31.3244 47.0271 31.3125 47.0036C31.3007 46.98 34.9869 44.5026 39.5551 41.4666C44.1234 38.4305 47.8372 35.9923 47.853 36.0158Z" fill="#E0E0E0"/>
<path d="M49.4837 38.4377C49.4995 38.4612 45.8094 40.9406 41.2431 43.9727C36.6768 47.0048 32.9551 49.4489 32.9551 49.4254C32.9551 49.4019 36.6275 46.9225 41.1957 43.8884C45.764 40.8543 49.4679 38.4141 49.4837 38.4377Z" fill="#E0E0E0"/>
<path d="M51.1108 40.8634C51.1266 40.887 47.4364 43.3644 42.8702 46.3985C38.3039 49.4326 34.5822 51.8728 34.5723 51.8493C34.5624 51.8257 38.2506 49.3483 42.8228 46.3142C47.395 43.2801 51.1108 40.8399 51.1108 40.8634Z" fill="#E0E0E0"/>
<path d="M117.427 45.6609L98.832 58.0156L117.147 85.2104L135.742 72.8556L117.427 45.6609Z" fill="#F5F5F5"/>
<path d="M126.136 71.5769L125.925 72.8744L116.68 71.5514L116.893 70.2539L126.136 71.5769Z" fill="#E0E0E0"/>
<path d="M121.482 66.9492L122.808 67.1393L121.338 76.1789L120.01 75.9887L121.482 66.9492Z" fill="#E0E0E0"/>
<path d="M112.967 55.4694C112.982 55.4929 111.122 56.7571 108.809 58.2918C106.496 59.8265 104.61 61.0534 104.594 61.0358C104.578 61.0182 106.441 59.75 108.752 58.2134C111.062 56.6768 112.951 55.4361 112.967 55.4694Z" fill="#E0E0E0"/>
<path d="M119.804 53.7541C119.82 53.7776 116.724 55.8631 112.898 58.4091C109.071 60.9551 105.94 63.0053 105.924 62.9818C105.908 62.9583 109.004 60.8728 112.831 58.3248C116.657 55.7768 119.783 53.7306 119.804 53.7541Z" fill="#E0E0E0"/>
<path d="M121.175 55.7892C121.191 55.8128 118.095 57.8982 114.269 60.4462C110.442 62.9942 107.311 65.0404 107.295 65.0169C107.279 64.9934 110.365 62.9178 114.202 60.3698C118.038 57.8217 121.164 55.7677 121.175 55.7892Z" fill="#E0E0E0"/>
<path d="M122.545 57.8205C122.56 57.844 119.462 59.9294 115.638 62.4774C111.814 65.0254 108.68 67.0716 108.664 67.0481C108.648 67.0246 111.744 64.9411 115.571 62.3912C119.397 59.8412 122.531 57.8009 122.545 57.8205Z" fill="#E0E0E0"/>
<path d="M123.925 59.8596C123.941 59.8831 120.845 61.9666 117.019 64.5146C113.192 67.0626 110.061 69.1088 110.045 69.0873C110.029 69.0657 113.125 66.9783 116.952 64.4303C120.778 61.8823 123.9 59.8361 123.925 59.8596Z" fill="#E0E0E0"/>
<path d="M88.01 25.1534L67.7207 14.375L51.7419 44.0486L72.0312 54.827L88.01 25.1534Z" fill="#F5F5F5"/>
<path d="M68.5584 45.5432L67.2717 45.9803L64.0039 37.0094L65.2925 36.5703L68.5584 45.5432Z" fill="#E0E0E0"/>
<path d="M70.5313 39.1094L71.001 40.3971L62.0302 43.4488L61.5605 42.1611L70.5313 39.1094Z" fill="#E0E0E0"/>
<path d="M76.9061 25.8711C76.8904 25.9005 74.8341 24.8382 72.3102 23.4995C69.7863 22.1608 67.7558 21.0495 67.7716 21.0201C67.7874 20.9907 69.8456 22.053 72.3694 23.3917C74.8933 24.7304 76.9219 25.8398 76.9061 25.8711Z" fill="#E0E0E0"/>
<path d="M81.7763 31.2083C81.7606 31.2377 78.3546 29.458 74.1691 27.2354C69.9837 25.0127 66.6054 23.186 66.6211 23.1566C66.6369 23.1272 70.0409 24.9049 74.2264 27.1295C78.4118 29.3541 81.7921 31.1789 81.7763 31.2083Z" fill="#E0E0E0"/>
<path d="M80.5791 33.4309C80.5633 33.4603 77.1573 31.6826 72.9719 29.458C68.7864 27.2334 65.4081 25.4087 65.4239 25.3793C65.4397 25.3499 68.8437 27.1295 73.0291 29.3522C77.2145 31.5748 80.5949 33.4015 80.5791 33.4309Z" fill="#E0E0E0"/>
<path d="M79.3838 35.6518C79.368 35.6812 75.962 33.9035 71.7766 31.6808C67.5911 29.4582 64.2128 27.6374 64.2286 27.6021C64.2444 27.5668 67.6484 29.3504 71.8338 31.573C76.0192 33.7957 79.3996 35.6224 79.3838 35.6518Z" fill="#E0E0E0"/>
<path d="M78.1885 37.8704C78.1727 37.8998 74.7667 36.1221 70.5813 33.8994C66.3958 31.6768 63.0155 29.8501 63.0333 29.8207C63.051 29.7913 66.4531 31.569 70.6385 33.7916C74.8239 36.0143 78.2043 37.841 78.1885 37.8704Z" fill="#E0E0E0"/>
<path opacity="0.2" d="M78.2923 0H77.7832V8.62008H78.2923V0Z" fill="black"/>
<path d="M66.1523 19.0502H89.9231C89.9231 19.0502 87.7288 8.625 77.8582 8.625C69.0788 8.625 66.1523 19.0502 66.1523 19.0502Z" fill="#FD7E14"/>
<path d="M78.2923 0H77.7832V8.62008H78.2923V0Z" fill="#FD7E14"/>
<path d="M130.964 86.2072C130.964 86.2346 105.458 86.2582 74.0013 86.2582C42.5444 86.2582 17.0352 86.2405 17.0352 86.2072C17.0352 86.1739 42.5365 86.1562 74.0013 86.1562C105.466 86.1562 130.964 86.1778 130.964 86.2072Z" fill="#263238"/>
<path d="M23.3418 73.9316C23.6754 73.9556 24.0008 74.046 24.2985 74.1975C24.5961 74.349 24.86 74.5586 25.0744 74.8136C25.5006 75.3268 25.8024 75.9303 25.9565 76.5776C26.29 77.8164 26.0847 79.2805 25.7295 80.5133C24.3798 80.0331 23.5451 78.6023 23.1642 77.8497C22.5722 76.6619 22.219 74.1531 23.3359 73.9297" fill="#FD7E14"/>
<path d="M27.6741 82.0181C27.4714 81.7059 27.3555 81.3459 27.3382 80.9748C27.3209 80.6038 27.4027 80.2347 27.5755 79.9052C27.7536 79.5788 27.9954 79.291 28.2868 79.0584C28.5782 78.8259 28.9133 78.6533 29.2725 78.5509C29.6021 78.4489 29.9849 78.4078 30.271 78.5979C30.4 78.6948 30.5005 78.8243 30.5619 78.9729C30.6233 79.1214 30.6435 79.2837 30.6203 79.4426C30.5685 79.7611 30.4323 80.0601 30.2256 80.309C29.5685 81.1929 28.7713 81.9279 27.6603 82.0181" fill="#FD7E14"/>
<path d="M27.8242 86.1585C27.7949 86.0752 27.7744 85.9892 27.763 85.9017C27.7275 85.7175 27.6801 85.4803 27.6229 85.1961C27.4458 84.4179 27.3965 83.6164 27.4769 82.8225C27.5699 82.0248 27.8758 81.2663 28.3629 80.6254C28.5117 80.4337 28.6834 80.2606 28.874 80.1099C28.9258 80.0691 28.9798 80.0311 29.0358 79.9962C29.0536 79.9815 29.0736 79.9696 29.095 79.9609C28.8454 80.1727 28.6174 80.4084 28.4142 80.6646C27.9528 81.3061 27.6623 82.0532 27.5696 82.8363C27.4434 83.7496 27.5992 84.5865 27.69 85.1883C27.7374 85.4881 27.7768 85.7312 27.7985 85.8997C27.8141 85.9852 27.8227 86.0717 27.8242 86.1585Z" fill="#263238"/>
<path d="M23.7754 75.8203C23.7979 75.8512 23.8165 75.8848 23.8306 75.9203C23.8662 75.9987 23.9135 76.0967 23.9688 76.2202C24.0892 76.4808 24.2569 76.8591 24.4601 77.3276C24.8666 78.2664 25.4113 79.5718 25.9796 81.0261C26.5479 82.4804 27.0314 83.8073 27.3609 84.7736C27.5306 85.2558 27.6629 85.6478 27.7556 85.9202C27.797 86.0496 27.8286 86.1534 27.8543 86.2338C27.8684 86.2698 27.8783 86.3073 27.8839 86.3455C27.8639 86.3123 27.848 86.2767 27.8365 86.2397C27.8069 86.1613 27.7694 86.0594 27.7201 85.932L27.3037 84.7952C26.9505 83.8367 26.4572 82.5118 25.8908 81.0594C25.3245 79.607 24.7877 78.2978 24.397 77.353C24.1997 76.8885 24.0477 76.5102 23.9352 76.2339C23.8839 76.1084 23.8425 76.0085 23.8109 75.9281C23.7961 75.8932 23.7842 75.8572 23.7754 75.8203Z" fill="#263238"/>
<path d="M26.2192 83.4181C25.8132 82.7467 25.252 82.1809 24.5822 81.7675C23.9124 81.354 23.1532 81.1049 22.3673 81.0407C21.9726 81.0132 21.4871 81.0799 21.3095 81.4327C21.1319 81.7855 21.3687 82.2167 21.6411 82.5028C22.2197 83.104 22.9645 83.5216 23.7817 83.703C24.5989 83.8844 25.4518 83.8214 26.233 83.522" fill="#FD7E14"/>
<path d="M22.9746 82.1033C23.0583 82.0992 23.1422 82.1024 23.2252 82.1131C23.3225 82.1183 23.4194 82.1294 23.5153 82.1464C23.6278 82.168 23.76 82.1797 23.8981 82.2189C24.0525 82.2514 24.2048 82.2933 24.354 82.3444C24.5268 82.3995 24.6962 82.465 24.8611 82.5404C25.2405 82.7092 25.5993 82.9202 25.9307 83.1695C26.2582 83.4247 26.5549 83.7167 26.8147 84.0398C26.9269 84.1804 27.0304 84.3276 27.1245 84.4808C27.2096 84.613 27.2874 84.7497 27.3574 84.8904C27.4167 85.0049 27.4694 85.1227 27.5153 85.2432C27.5548 85.3324 27.5884 85.424 27.6159 85.5176C27.6451 85.5958 27.6669 85.6765 27.681 85.7587C27.6593 85.7587 27.5646 85.4216 27.2982 84.9198C27.2256 84.785 27.1459 84.6542 27.0594 84.5278C26.9633 84.3793 26.8592 84.236 26.7476 84.0986C26.2315 83.4651 25.5733 82.9603 24.8256 82.6246C24.6539 82.5502 24.4901 82.4796 24.3303 82.4286C24.1836 82.3755 24.034 82.3304 23.8824 82.2934C23.3298 82.1425 22.9726 82.1248 22.9746 82.1033Z" fill="#263238"/>
<path d="M112.55 20.6733C111.97 20.8046 111.688 21.4691 111.633 22.0571C111.577 22.6451 111.652 23.2683 111.404 23.8054C111.123 24.4091 110.454 24.8559 110.433 25.5204C110.419 25.9261 110.662 26.3044 110.65 26.714C110.63 27.3804 109.947 27.89 109.91 28.5486C109.884 29.0288 110.206 29.4874 110.129 29.9617C110.07 30.3302 109.78 30.6203 109.657 30.9731C109.415 31.6787 109.902 32.4529 110.535 32.8488C110.89 33.0704 111.29 33.2124 111.705 33.2648C112.121 33.3172 112.544 33.2788 112.943 33.1522C113.342 33.0257 113.709 32.8141 114.017 32.5321C114.326 32.2502 114.569 31.9047 114.729 31.5199C115.08 30.6732 115.003 29.7187 114.926 28.8073C114.689 25.964 114.513 23.1168 114.397 20.2656" fill="#263238"/>
<path d="M110.865 30.7063C110.985 30.6326 111.078 30.5236 111.132 30.3947C111.189 30.2413 111.211 30.0775 111.199 29.9145C111.177 29.6984 111.129 29.4857 111.055 29.2814C110.96 29.0245 110.925 28.7499 110.952 28.4778C111.001 28.172 111.222 27.9211 111.422 27.6742C111.529 27.5533 111.619 27.4181 111.688 27.2724C111.758 27.1251 111.769 26.9572 111.72 26.802C111.617 26.4825 111.301 26.2473 111.157 25.8769C111.09 25.6935 111.079 25.4942 111.126 25.3045C111.17 25.1267 111.237 24.955 111.323 24.793C111.49 24.5012 111.622 24.1915 111.718 23.8698C111.856 23.2485 111.791 22.6546 111.885 22.1666C111.938 21.7757 112.113 21.411 112.385 21.1239C112.462 21.0465 112.549 20.9805 112.645 20.9279C112.678 20.9108 112.713 20.8982 112.75 20.8906C112.626 20.9583 112.513 21.0427 112.412 21.1415C112.16 21.4315 112.001 21.79 111.956 22.1705C111.922 22.4305 111.903 22.6923 111.901 22.9545C111.901 23.2631 111.87 23.5709 111.81 23.8737C111.716 24.2028 111.584 24.5199 111.416 24.8185C111.268 25.1262 111.132 25.4868 111.262 25.8239C111.392 26.1611 111.706 26.3943 111.826 26.7549C111.881 26.9331 111.867 27.1249 111.789 27.2939C111.712 27.4543 111.612 27.6028 111.493 27.7349C111.295 27.9819 111.08 28.2171 111.033 28.4915C111.005 28.7518 111.036 29.0149 111.124 29.2618C111.194 29.4725 111.238 29.6911 111.254 29.9125C111.264 30.083 111.233 30.2535 111.165 30.4103C111.123 30.5087 111.055 30.5939 110.968 30.6573C110.937 30.6798 110.902 30.6964 110.865 30.7063Z" fill="#455A64"/>
<path d="M109.322 35.3516L107.546 40.4476L100.118 40.8396L98.8789 43.5836L106.634 44.3676C107.001 44.517 107.394 44.591 107.79 44.5853C108.186 44.5796 108.576 44.4942 108.938 44.3343C109.3 44.1743 109.626 43.9432 109.895 43.6548C110.164 43.3665 110.372 43.0268 110.506 42.6565L112.576 36.9176L109.322 35.3516Z" fill="#B78876"/>
<path d="M124.676 83.4389C124.676 83.4389 119.234 66.2654 119.118 65.7087C119.013 65.203 121.091 52.8452 121.355 49.6367L114.001 49.9092V49.9817L110.875 50.1542L113.673 85.2617H117.057L116.722 73.6095C118.81 79.1739 121.801 84.8462 121.801 84.8462L124.676 83.4389Z" fill="#B78876"/>
<path d="M116.86 77.787C116.86 77.6812 116.818 73.8827 116.818 73.8827C116.777 74.11 115.522 70.586 115.551 70.3723C115.567 70.2606 116.86 77.787 116.86 77.787Z" fill="#A36957"/>
<path d="M115.411 68.7031C115.393 68.773 115.386 68.8449 115.389 68.9168C115.378 69.1126 115.378 69.3089 115.389 69.5048C115.389 69.6282 115.407 69.7615 115.423 69.9066C115.438 70.0516 115.46 70.2045 115.494 70.3632C115.564 70.7099 115.657 71.0517 115.772 71.3864C116.017 72.0978 116.289 72.7192 116.48 73.17C116.571 73.366 116.65 73.5522 116.717 73.7011C116.741 73.7704 116.774 73.8363 116.816 73.8971C116.805 73.8294 116.785 73.7634 116.757 73.7011C116.711 73.5718 116.642 73.3856 116.559 73.1562C116.386 72.6976 116.125 72.0704 115.882 71.3668C115.768 71.037 115.673 70.7006 115.6 70.3593C115.565 70.2025 115.541 70.0516 115.519 69.9105C115.498 69.7694 115.482 69.6361 115.472 69.5185C115.448 69.2754 115.438 69.0794 115.432 68.9422C115.436 68.8619 115.429 68.7815 115.411 68.7031Z" fill="#A36957"/>
<path d="M113.611 85.4391V85.1236L117.078 84.9727L117.088 86.2761L116.875 86.2898C115.922 86.3447 112.03 86.5054 111.395 86.3153C110.683 86.1036 113.611 85.4391 113.611 85.4391Z" fill="#455A64"/>
<path d="M117.132 86.1953C117.112 86.1966 117.093 86.1966 117.073 86.1953L116.903 86.2071L116.276 86.2345C115.747 86.2561 115.015 86.2757 114.208 86.2796C113.401 86.2835 112.667 86.2698 112.136 86.2541L111.51 86.2286H111.338H111.279C111.299 86.227 111.319 86.227 111.338 86.2286H111.51L112.138 86.2404C112.667 86.2404 113.399 86.2561 114.206 86.2522C115.013 86.2482 115.747 86.2345 116.276 86.2208L116.903 86.2051H117.132V86.1953Z" fill="#263238"/>
<path d="M112.48 86.3066C112.451 86.204 112.411 86.1048 112.362 86.0106C112.299 85.9237 112.227 85.8442 112.146 85.7734C112.254 85.8117 112.344 85.8886 112.397 85.989C112.462 86.0815 112.492 86.1943 112.48 86.3066Z" fill="#263238"/>
<path d="M113.502 85.7924C113.502 85.7924 113.444 85.7395 113.393 85.6611C113.342 85.5827 113.31 85.5141 113.32 85.5082C113.33 85.5024 113.377 85.5592 113.429 85.6376C113.48 85.716 113.512 85.7865 113.502 85.7924Z" fill="#263238"/>
<path d="M113.782 85.6521C113.782 85.6619 113.719 85.6247 113.66 85.5718C113.601 85.5189 113.557 85.4699 113.565 85.462C113.573 85.4542 113.629 85.4895 113.688 85.5424C113.747 85.5953 113.79 85.6345 113.782 85.6521Z" fill="#263238"/>
<path d="M113.957 85.3181C113.899 85.3392 113.837 85.3473 113.775 85.3416C113.715 85.3496 113.653 85.3436 113.596 85.324C113.653 85.303 113.714 85.2949 113.775 85.3005C113.836 85.2922 113.899 85.2982 113.957 85.3181Z" fill="#263238"/>
<path d="M114.016 85.09C113.957 85.1279 113.889 85.1483 113.818 85.1488C113.751 85.1576 113.683 85.1481 113.621 85.1213C113.686 85.1104 113.752 85.1052 113.818 85.1057C113.884 85.0941 113.95 85.0889 114.016 85.09Z" fill="#263238"/>
<path d="M113.386 85.4909C113.312 85.5046 113.236 85.5046 113.163 85.4909C113.083 85.4813 113.004 85.4642 112.928 85.4399C112.88 85.4269 112.835 85.4085 112.792 85.3851C112.765 85.3697 112.746 85.3453 112.736 85.3165C112.733 85.3001 112.734 85.2831 112.74 85.2674C112.746 85.2517 112.756 85.2381 112.77 85.2283C112.825 85.202 112.884 85.1881 112.945 85.1875C113.006 85.187 113.066 85.1998 113.121 85.2251C113.176 85.2504 113.225 85.2876 113.264 85.3339C113.303 85.3802 113.331 85.4345 113.346 85.4929C113.35 85.5123 113.35 85.5323 113.346 85.5517C113.324 85.4808 113.289 85.4145 113.244 85.3557C113.191 85.297 113.123 85.2547 113.046 85.2341C112.959 85.2061 112.864 85.2131 112.782 85.2537C112.748 85.2792 112.762 85.3204 112.8 85.3439C112.84 85.3655 112.882 85.3833 112.926 85.3968C113 85.4211 113.076 85.44 113.153 85.4537C113.301 85.485 113.386 85.485 113.386 85.4909Z" fill="#263238"/>
<path d="M113.329 85.5015C113.3 85.456 113.29 85.4012 113.301 85.3486C113.308 85.291 113.329 85.2359 113.362 85.1879C113.381 85.1552 113.407 85.1276 113.44 85.1077C113.472 85.0878 113.508 85.0763 113.546 85.0742C113.568 85.0794 113.588 85.0928 113.601 85.1117C113.614 85.1306 113.619 85.1536 113.615 85.1761C113.61 85.2112 113.597 85.2447 113.578 85.2741C113.548 85.3227 113.513 85.3681 113.473 85.4094C113.439 85.4485 113.395 85.4787 113.347 85.4976C113.347 85.4976 113.39 85.4584 113.451 85.3878C113.487 85.3474 113.518 85.3034 113.544 85.2565C113.574 85.2095 113.595 85.1252 113.544 85.1154C113.493 85.1056 113.433 85.1663 113.4 85.2095C113.369 85.252 113.347 85.3008 113.337 85.3525C113.329 85.4018 113.326 85.4517 113.329 85.5015Z" fill="#263238"/>
<path d="M117.059 85.2618C117.059 85.2618 116.96 85.2618 116.804 85.2716C116.601 85.2957 116.409 85.3759 116.25 85.5031C116.09 85.6302 115.97 85.7992 115.903 85.9909C115.851 86.1379 115.847 86.2379 115.839 86.2359C115.832 86.2339 115.839 86.2104 115.839 86.1673C115.844 86.1042 115.856 86.0417 115.875 85.9811C115.938 85.7805 116.059 85.6026 116.222 85.4695C116.388 85.3389 116.589 85.2605 116.8 85.2441C116.866 85.2363 116.932 85.2363 116.998 85.2441C117.019 85.2474 117.039 85.2533 117.059 85.2618Z" fill="#263238"/>
<path d="M115.401 85.922C115.235 85.9603 115.066 85.9768 114.896 85.971C114.727 85.9794 114.558 85.9649 114.393 85.9279C114.393 85.9161 114.618 85.9279 114.896 85.9279C115.174 85.9279 115.399 85.9103 115.401 85.922Z" fill="#263238"/>
<path d="M116.075 85.9159C116.075 85.9159 116.058 85.963 116.034 86.0139C116.01 86.0649 115.998 86.1119 115.986 86.11C115.975 86.108 115.969 86.057 115.996 85.9963C116.024 85.9355 116.067 85.9061 116.075 85.9159Z" fill="#263238"/>
<path d="M116.33 85.6C116.33 85.6 116.316 85.6431 116.28 85.6784C116.245 85.7137 116.209 85.7372 116.2 85.7294C116.19 85.7215 116.213 85.6863 116.249 85.649C116.284 85.6118 116.32 85.5902 116.33 85.6Z" fill="#263238"/>
<path d="M116.693 85.457C116.693 85.4687 116.646 85.4687 116.595 85.4864C116.543 85.504 116.508 85.5314 116.498 85.5236C116.488 85.5158 116.518 85.4687 116.581 85.4472C116.644 85.4256 116.697 85.4452 116.693 85.457Z" fill="#263238"/>
<path d="M116.951 85.3863C116.951 85.398 116.937 85.4157 116.907 85.4255C116.878 85.4353 116.852 85.4372 116.848 85.4255C116.844 85.4137 116.864 85.3961 116.892 85.3863C116.919 85.3765 116.947 85.3765 116.951 85.3863Z" fill="#263238"/>
<path d="M121.733 85.1353L121.603 84.8472L124.703 83.3008L125.249 84.4768L125.052 84.5767C124.205 85.0138 120.723 86.7425 120.063 86.8288C119.335 86.9327 121.733 85.1353 121.733 85.1353Z" fill="#455A64"/>
<path d="M125.262 84.3906L125.21 84.422L125.058 84.5004L124.498 84.7826C124.024 85.0159 123.365 85.3314 122.629 85.6646C121.893 85.9978 121.218 86.282 120.729 86.4839L120.147 86.7171L119.989 86.7779C119.971 86.7863 119.951 86.7922 119.932 86.7955L119.985 86.7701L120.141 86.7015L120.717 86.4565C121.204 86.2487 121.875 85.9586 122.611 85.6254C123.347 85.2922 124.009 84.9825 124.486 84.7552L125.05 84.4867L125.206 84.4141L125.262 84.3906Z" fill="#263238"/>
<path d="M121.068 86.3841C120.999 86.3014 120.922 86.2264 120.837 86.1607C120.744 86.1062 120.646 86.0628 120.543 86.0313C120.656 86.0298 120.767 86.0628 120.861 86.1259C120.955 86.1889 121.027 86.2791 121.068 86.3841Z" fill="#263238"/>
<path d="M121.781 85.4985C121.781 85.4985 121.706 85.4749 121.627 85.424C121.548 85.373 121.491 85.324 121.497 85.3142C121.502 85.3044 121.571 85.3377 121.65 85.3887C121.729 85.4397 121.787 85.4887 121.781 85.4985Z" fill="#263238"/>
<path d="M121.974 85.2614C121.974 85.2712 121.906 85.2614 121.83 85.2378C121.753 85.2143 121.695 85.1849 121.697 85.1732C121.747 85.1685 121.797 85.1766 121.843 85.1967C121.918 85.2143 121.978 85.2418 121.974 85.2614Z" fill="#263238"/>
<path d="M122.001 84.8828C122.001 84.8946 121.936 84.9357 121.846 84.9789C121.793 85.0101 121.735 85.0295 121.674 85.0357C121.674 85.0239 121.739 84.9828 121.828 84.9397C121.881 84.9086 121.94 84.8892 122.001 84.8828Z" fill="#263238"/>
<path d="M121.961 84.6535C121.961 84.6535 121.903 84.7319 121.801 84.7887C121.743 84.8279 121.674 84.8485 121.604 84.8475C121.66 84.8098 121.72 84.7776 121.783 84.7515C121.88 84.6986 121.951 84.6437 121.961 84.6535Z" fill="#263238"/>
<path d="M121.556 85.2776C121.496 85.3186 121.429 85.3491 121.359 85.3677C121.281 85.3902 121.202 85.4066 121.122 85.4167C121.073 85.4227 121.024 85.4227 120.976 85.4167C120.945 85.4145 120.917 85.4004 120.897 85.3775C120.888 85.3635 120.883 85.3472 120.883 85.3305C120.883 85.3138 120.888 85.2975 120.897 85.2835C120.957 85.2113 121.04 85.162 121.133 85.1442C121.225 85.1263 121.321 85.1409 121.404 85.1855C121.453 85.2109 121.496 85.2463 121.53 85.2894C121.554 85.3207 121.564 85.3403 121.562 85.3423C121.513 85.2884 121.455 85.2439 121.39 85.2109C121.321 85.1785 121.243 85.167 121.167 85.1776C121.122 85.1823 121.078 85.1958 121.038 85.2173C120.998 85.2388 120.963 85.268 120.934 85.3031C120.913 85.3403 120.934 85.3717 120.988 85.3775C121.033 85.3814 121.078 85.3814 121.124 85.3775C121.202 85.3697 121.28 85.3559 121.357 85.3364C121.469 85.305 121.556 85.2717 121.556 85.2776Z" fill="#263238"/>
<path d="M121.502 85.308C121.458 85.277 121.427 85.2309 121.415 85.1787C121.398 85.1235 121.394 85.0651 121.403 85.0081C121.407 84.9705 121.42 84.9344 121.441 84.9032C121.463 84.8719 121.492 84.8467 121.526 84.8298C121.575 84.8141 121.69 84.9141 121.698 84.9513C121.705 84.9885 121.64 84.9689 121.636 85.0003C121.63 85.0559 121.617 85.1106 121.597 85.163C121.583 85.2134 121.555 85.2593 121.518 85.2963C121.518 85.2963 121.542 85.2433 121.569 85.1551C121.583 85.1031 121.593 85.05 121.599 84.9964C121.599 84.9415 121.599 84.8572 121.536 84.8709C121.473 84.8847 121.455 84.9611 121.441 85.016C121.429 85.0669 121.429 85.1199 121.441 85.1708C121.457 85.2182 121.478 85.2642 121.502 85.308Z" fill="#263238"/>
<path d="M124.806 83.5664C124.806 83.5664 124.712 83.5997 124.577 83.6801C124.402 83.7843 124.259 83.935 124.165 84.1152C124.074 84.2972 124.035 84.5007 124.053 84.7032C124.064 84.86 124.102 84.9502 124.094 84.9541C124.081 84.9347 124.071 84.9135 124.064 84.8914C124.045 84.8314 124.031 84.7697 124.023 84.7071C123.995 84.4984 124.031 84.2861 124.127 84.0984C124.224 83.9107 124.375 83.7566 124.562 83.6566C124.618 83.6259 124.676 83.6009 124.737 83.5821C124.759 83.5735 124.783 83.5682 124.806 83.5664Z" fill="#263238"/>
<path d="M123.566 84.8482C123.288 85.0404 122.977 85.1811 122.648 85.2637C122.648 85.252 122.856 85.1736 123.108 85.0677C123.361 84.9619 123.56 84.8384 123.566 84.8482Z" fill="#263238"/>
<path d="M124.18 84.5669C124.19 84.5669 124.18 84.6159 124.18 84.6727C124.18 84.7296 124.18 84.7766 124.18 84.7805C124.18 84.7845 124.141 84.7374 124.141 84.6727C124.141 84.6081 124.17 84.561 124.18 84.5669Z" fill="#263238"/>
<path d="M124.28 84.1761C124.29 84.1761 124.28 84.2212 124.268 84.2682C124.256 84.3152 124.227 84.3505 124.217 84.3466C124.207 84.3427 124.217 84.3015 124.229 84.2545C124.241 84.2074 124.268 84.1722 124.28 84.1761Z" fill="#263238"/>
<path d="M124.552 83.8876C124.552 83.8994 124.512 83.917 124.473 83.9543C124.434 83.9915 124.412 84.0307 124.402 84.0268C124.392 84.0229 124.402 83.968 124.445 83.9229C124.489 83.8778 124.55 83.8876 124.552 83.8876Z" fill="#263238"/>
<path d="M124.76 83.729C124.76 83.729 124.76 83.7604 124.736 83.7819C124.712 83.8035 124.691 83.8152 124.683 83.8074C124.675 83.7996 124.683 83.776 124.706 83.7545C124.73 83.7329 124.752 83.7212 124.76 83.729Z" fill="#263238"/>
<path d="M120.879 43.8353L120.303 36.8381L123.263 36.891C123.263 36.891 123.399 35.8581 122.963 33.5962C122.694 32.2085 121.765 31.3579 120.721 30.8522V30.8326L120.63 30.8091C119.771 30.4259 118.853 30.1881 117.915 30.1055L114.274 30.1466C114.274 30.1466 111.494 29.7938 109.96 31.7715C109.368 32.53 107.531 37.722 107.531 37.722L111.902 39.8114L111.494 36.9321C111.494 36.9321 111.577 39.0195 111.845 39.6761C111.993 40.0446 112.437 41.1893 112.437 41.1893L112.38 44.6428L120.879 43.8353Z" fill="#FD7E14"/>
<path d="M118.871 35.8218L118.33 38.1072H123.427L123.092 34.2734L118.871 35.8218Z" fill="#FD7E14"/>
<path d="M123.428 38.1083C123.205 38.0675 122.98 38.0452 122.753 38.0416C122.335 38.0181 121.767 37.9965 121.119 38.0005C120.472 38.0044 119.902 38.0318 119.483 38.0632C119.257 38.071 119.032 38.0986 118.811 38.1455C119.036 38.1634 119.263 38.1634 119.489 38.1455C119.906 38.1318 120.476 38.1161 121.119 38.1141C121.763 38.1122 122.333 38.1141 122.751 38.1239C122.977 38.1365 123.203 38.1313 123.428 38.1083Z" fill="#263238"/>
<path d="M118.65 34.2539C118.626 34.4489 118.621 34.6459 118.634 34.8419C118.634 35.2006 118.65 35.6945 118.672 36.2413C118.694 36.7882 118.719 37.2841 118.743 37.6408C118.744 37.8384 118.765 38.0354 118.806 38.2288C118.83 38.0337 118.836 37.8368 118.822 37.6408C118.822 37.2821 118.806 36.7862 118.784 36.2394C118.763 35.6925 118.737 35.1986 118.713 34.8399C118.713 34.643 118.691 34.4466 118.65 34.2539Z" fill="#263238"/>
<g opacity="0.3">
<path d="M114.014 36.2344C114.014 36.2344 115.146 44.5781 118.331 44.3566C118.331 44.3566 119.766 44.3409 120.226 43.3943V43.0219L114.014 36.2344Z" fill="black"/>
</g>
<g opacity="0.3">
<path d="M118.651 34.7461L118.041 38.8366L118.436 39.554L119.087 38.1506L118.811 38.1428L118.651 34.7461Z" fill="black"/>
</g>
<path d="M112.419 41.1924C112.381 41.1313 112.352 41.0654 112.332 40.9964C112.283 40.869 112.217 40.6828 112.135 40.4496C111.937 39.8418 111.774 39.2234 111.647 38.5974C111.52 37.9709 111.44 37.3362 111.406 36.6981C111.395 36.4531 111.391 36.2552 111.395 36.1101C111.389 36.0393 111.394 35.9681 111.408 35.8984C111.424 35.8984 111.436 36.2003 111.477 36.6824C111.533 37.3147 111.623 37.9435 111.748 38.566C111.894 39.2951 112.069 39.9478 112.204 40.4162C112.267 40.6338 112.32 40.82 112.363 40.9729C112.391 41.0436 112.409 41.1173 112.419 41.1924Z" fill="#263238"/>
<path d="M113.705 43.5888C113.678 43.5888 113.599 43.4183 113.53 43.1968C113.47 43.0611 113.444 42.9134 113.453 42.7656C113.54 42.8854 113.6 43.0225 113.628 43.1674C113.685 43.3005 113.711 43.4444 113.705 43.5888Z" fill="#263238"/>
<path d="M114.144 43.559C113.995 43.1658 113.989 42.7332 114.126 42.3359C114.142 42.5395 114.142 42.7439 114.126 42.9475C114.148 43.1506 114.154 43.355 114.144 43.559Z" fill="#263238"/>
<path d="M111.99 39.9053C111.976 39.9288 110.959 39.4506 109.718 38.8351C108.477 38.2197 107.48 37.6983 107.492 37.6728C107.504 37.6474 108.522 38.1276 109.764 38.743C111.005 39.3584 112.001 39.8798 111.99 39.9053Z" fill="#263238"/>
<path d="M113.782 30.8215C113.804 29.8297 113.809 28.787 113.809 28.787C113.809 28.787 112.529 28.542 112.306 26.8681C112.093 25.2727 112.689 21.5271 112.689 21.5271C114.559 20.8255 116.503 21.4625 117.784 22.9677L117.466 31.0175C117.429 31.9524 116.59 32.6658 115.584 32.6188C114.565 32.5698 113.76 31.7662 113.782 30.8215Z" fill="#B78876"/>
<path d="M112.59 24.5205C112.588 24.5754 112.608 24.629 112.644 24.6701C112.681 24.7113 112.732 24.737 112.787 24.742C112.815 24.7446 112.844 24.7416 112.87 24.7331C112.897 24.7246 112.922 24.7107 112.943 24.6924C112.964 24.6741 112.982 24.6516 112.994 24.6264C113.006 24.6013 113.013 24.5739 113.014 24.546C113.016 24.4912 112.996 24.4379 112.96 24.3971C112.923 24.3562 112.872 24.3309 112.817 24.3264C112.789 24.3222 112.76 24.324 112.733 24.3319C112.705 24.3397 112.68 24.3533 112.659 24.3717C112.637 24.3901 112.62 24.4129 112.608 24.4386C112.596 24.4643 112.59 24.4922 112.59 24.5205Z" fill="#263238"/>
<path d="M112.511 24.2414C112.537 24.2688 112.709 24.1532 112.936 24.161C113.163 24.1689 113.33 24.2865 113.358 24.259C113.386 24.2316 113.346 24.1963 113.273 24.1395C113.174 24.0684 113.056 24.0293 112.934 24.0277C112.813 24.0232 112.695 24.0576 112.596 24.1257C112.523 24.1787 112.498 24.2277 112.511 24.2414Z" fill="#263238"/>
<path d="M114.94 24.665C114.937 24.7201 114.957 24.7739 114.993 24.8151C115.03 24.8564 115.082 24.882 115.137 24.8865C115.165 24.8908 115.194 24.8889 115.222 24.8809C115.249 24.873 115.274 24.8593 115.296 24.8406C115.318 24.822 115.335 24.7989 115.347 24.773C115.358 24.747 115.364 24.7189 115.364 24.6905C115.366 24.6356 115.347 24.5821 115.31 24.5411C115.273 24.5001 115.222 24.475 115.167 24.471C115.138 24.4667 115.11 24.4686 115.082 24.4764C115.055 24.4842 115.03 24.4978 115.008 24.5162C114.987 24.5346 114.969 24.5575 114.958 24.5832C114.946 24.6088 114.94 24.6368 114.94 24.665Z" fill="#263238"/>
<path d="M114.925 24.3858C114.95 24.4152 115.122 24.2995 115.349 24.3054C115.576 24.3113 115.744 24.4309 115.773 24.4034C115.803 24.376 115.759 24.3407 115.686 24.2858C115.589 24.2128 115.471 24.173 115.349 24.1721C115.228 24.1685 115.109 24.2028 115.01 24.2701C114.938 24.3231 114.913 24.3721 114.925 24.3858Z" fill="#263238"/>
<path d="M114.04 26.0692C113.918 26.0278 113.792 26.0022 113.665 25.9928C113.605 25.9928 113.55 25.9712 113.542 25.932C113.538 25.8707 113.553 25.8096 113.586 25.7576L113.771 25.3166C113.944 24.9418 114.086 24.5537 114.196 24.1562C113.993 24.5164 113.821 24.8919 113.679 25.2793C113.617 25.4342 113.556 25.5831 113.499 25.7243C113.461 25.7943 113.448 25.8754 113.463 25.9536C113.471 25.9748 113.484 25.994 113.5 26.0096C113.517 26.0253 113.536 26.0369 113.558 26.0437C113.591 26.0531 113.625 26.0584 113.659 26.0594C113.785 26.0787 113.913 26.082 114.04 26.0692Z" fill="#263238"/>
<path d="M113.809 28.7851C114.598 28.8165 115.381 28.6299 116.07 28.2461C116.07 28.2461 115.496 29.377 113.82 29.1791L113.809 28.7851Z" fill="#A36957"/>
<path d="M115.666 23.7179C115.619 23.7904 115.442 23.759 115.244 23.7179C115.047 23.6767 114.873 23.6434 114.85 23.5591C114.826 23.4748 115.033 23.3631 115.297 23.416C115.562 23.469 115.714 23.6552 115.666 23.7179Z" fill="#263238"/>
<path d="M113.363 23.3843C113.345 23.4686 113.156 23.4999 112.938 23.5097C112.721 23.5195 112.53 23.5097 112.504 23.4235C112.479 23.3373 112.662 23.2157 112.925 23.204C113.187 23.1922 113.38 23.3039 113.363 23.3843Z" fill="#263238"/>
<path d="M114.043 26.62C114.019 26.6142 113.992 26.6168 113.969 26.6274C113.946 26.6381 113.927 26.6562 113.915 26.6788C113.904 26.6988 113.898 26.7214 113.898 26.7443C113.899 26.7672 113.905 26.7896 113.917 26.8093C113.928 26.8291 113.945 26.8454 113.965 26.8568C113.985 26.8682 114.008 26.8742 114.031 26.8742C114.054 26.8742 114.076 26.8682 114.096 26.8568C114.116 26.8454 114.133 26.8291 114.145 26.8093C114.156 26.7896 114.163 26.7672 114.163 26.7443C114.163 26.7214 114.157 26.6988 114.146 26.6788C114.132 26.6525 114.109 26.6318 114.082 26.62C114.054 26.6082 114.023 26.6062 113.994 26.6141" fill="#A36957"/>
<path d="M114.098 26.6437C114.098 26.6339 114.06 26.577 113.96 26.5986C113.93 26.6064 113.902 26.6219 113.88 26.6436C113.858 26.6652 113.842 26.6923 113.833 26.7221C113.823 26.7596 113.824 26.7994 113.836 26.8364C113.848 26.8734 113.872 26.9059 113.903 26.9298C113.935 26.9522 113.974 26.9641 114.014 26.9641C114.054 26.9641 114.093 26.9522 114.126 26.9298C114.152 26.9123 114.172 26.8876 114.185 26.8588C114.198 26.83 114.202 26.7982 114.197 26.7672C114.177 26.6633 114.1 26.6476 114.096 26.6613C114.092 26.675 114.124 26.7103 114.118 26.7711C114.116 26.7861 114.111 26.8005 114.103 26.8132C114.095 26.8258 114.084 26.8363 114.07 26.8436C114.055 26.8524 114.038 26.857 114.02 26.857C114.002 26.857 113.985 26.8524 113.97 26.8436C113.956 26.832 113.945 26.817 113.939 26.8002C113.933 26.7834 113.931 26.7652 113.934 26.7476C113.936 26.7321 113.942 26.7174 113.952 26.7047C113.961 26.6921 113.973 26.6819 113.987 26.675C114.043 26.6417 114.092 26.6574 114.098 26.6437Z" fill="#263238"/>
<path d="M117.018 24.9332C116.821 25.3919 116.331 25.7466 116.398 26.2425C116.442 26.562 116.649 26.8599 116.609 27.1814C116.558 27.5734 116.138 27.8634 116.077 28.2652C116.004 28.7572 116.487 29.1394 116.679 29.598C116.961 30.2684 116.602 31.021 116.592 31.754C116.603 32.3106 116.818 32.8441 117.195 33.2556C117.572 33.6672 118.087 33.9289 118.644 33.9924C119.094 34.0296 119.601 33.8944 119.828 33.5102C120.025 33.1927 119.982 32.7889 120.096 32.4381C120.27 31.9128 120.773 31.5286 120.886 30.9877C121.083 30.0077 119.879 29.1845 119.958 28.181C119.992 27.7517 120.258 27.3793 120.371 26.9638C120.442 26.6907 120.448 26.4047 120.387 26.1291C120.326 25.8535 120.2 25.5962 120.019 25.3782C119.721 25.0273 119.291 24.7902 119.033 24.4138C118.747 23.9807 118.737 23.4338 118.638 22.9223C118.506 22.3005 118.217 21.7222 117.798 21.2415C117.379 20.7608 116.845 20.3933 116.244 20.1735C115.644 19.9536 114.997 19.8886 114.365 19.9843C113.732 20.0801 113.134 20.3336 112.627 20.7212C112.627 20.7212 112.341 22.0128 113.677 22.2304C115.013 22.448 115.631 22.1971 115.781 22.7282C115.745 22.9471 115.763 23.1711 115.831 23.382C115.9 23.5928 116.018 23.7846 116.175 23.9415C116.72 24.5256 117.239 24.4001 117.018 24.9332Z" fill="#263238"/>
<path d="M119.14 33.8918C119.099 33.8932 119.058 33.8892 119.017 33.88C118.902 33.8596 118.788 33.8288 118.678 33.7879C118.271 33.6327 117.913 33.3705 117.644 33.0294C117.455 32.7939 117.307 32.529 117.206 32.2454C117.091 31.9223 117.03 31.5826 117.026 31.2399C117.022 30.8621 117.07 30.4856 117.168 30.1207C117.222 29.928 117.288 29.7388 117.366 29.5543C117.447 29.3706 117.519 29.1828 117.581 28.9918C117.635 28.8035 117.635 28.6038 117.581 28.4155C117.523 28.2301 117.449 28.0504 117.358 27.8785C117.266 27.708 117.189 27.5303 117.127 27.3473C117.066 27.1662 117.052 26.9728 117.086 26.7848C117.165 26.4163 117.389 26.1419 117.524 25.8616C117.651 25.6022 117.713 25.3153 117.701 25.0267C117.683 24.6043 117.529 24.1989 117.261 23.8703C117.157 23.7552 117.046 23.6471 116.928 23.5469C117.066 23.6241 117.19 23.7249 117.293 23.8448C117.58 24.1729 117.75 24.5866 117.774 25.0208C117.791 25.322 117.731 25.6225 117.601 25.895C117.464 26.185 117.245 26.4614 117.178 26.7985C117.111 27.1356 117.271 27.4904 117.447 27.8314C117.543 28.0083 117.621 28.1941 117.68 28.3861C117.738 28.5912 117.738 28.8083 117.68 29.0133C117.614 29.211 117.538 29.4053 117.453 29.5954C117.375 29.776 117.309 29.9612 117.255 30.1501C117.157 30.5058 117.109 30.8731 117.111 31.2418C117.105 31.8698 117.309 32.482 117.691 32.9823C117.947 33.3192 118.287 33.5835 118.678 33.7487C118.972 33.8624 119.142 33.88 119.14 33.8918Z" fill="#455A64"/>
<path d="M118.943 24.0024C118.847 24.0271 118.748 24.0416 118.649 24.0455C118.378 24.0743 118.105 24.067 117.836 24.024C117.632 23.994 117.436 23.924 117.26 23.8179C117.084 23.7119 116.931 23.5721 116.81 23.4066C116.697 23.1972 116.607 22.9764 116.541 22.748C116.457 22.5199 116.299 22.3261 116.091 22.1973C115.659 21.9248 115.152 21.8915 114.71 21.8386C114.302 21.8184 113.906 21.6956 113.56 21.4818C113.327 21.329 113.159 21.0967 113.088 20.8292C113.071 20.7567 113.066 20.6818 113.074 20.6077C113.074 20.5567 113.086 20.5312 113.09 20.5312C113.092 20.6283 113.105 20.7249 113.127 20.8194C113.209 21.0695 113.377 21.2832 113.601 21.4231C113.942 21.6204 114.326 21.7308 114.72 21.7445C115.162 21.7955 115.687 21.8209 116.149 22.111C116.375 22.252 116.547 22.4637 116.638 22.7127C116.7 22.9353 116.785 23.1508 116.893 23.3556C117.122 23.6688 117.467 23.8799 117.852 23.9436C118.112 23.9916 118.377 24.0094 118.641 23.9965C118.742 23.9909 118.843 23.9929 118.943 24.0024Z" fill="#455A64"/>
<path d="M118.453 22.4078C118.378 22.4325 118.3 22.4438 118.222 22.4411C117.854 22.4436 117.5 22.3029 117.235 22.0491C117.114 21.9289 117.011 21.7923 116.929 21.6434C116.752 21.3455 116.58 20.979 116.211 20.8261C115.855 20.7076 115.477 20.6747 115.106 20.7301C114.793 20.7737 114.476 20.7737 114.163 20.7301C113.945 20.7001 113.74 20.6105 113.571 20.4713C113.527 20.4334 113.488 20.3899 113.456 20.342C113.433 20.308 113.423 20.2904 113.427 20.2891C113.427 20.2891 113.482 20.3518 113.596 20.44C113.765 20.5592 113.961 20.6346 114.167 20.6595C114.474 20.6939 114.784 20.6886 115.09 20.6438C115.477 20.581 115.874 20.6147 116.245 20.7418C116.435 20.8269 116.598 20.9625 116.716 21.1338C116.82 21.2866 116.916 21.445 117.002 21.6081C117.08 21.7506 117.176 21.8824 117.288 22.0001C117.387 22.0997 117.501 22.1837 117.626 22.2491C117.809 22.3443 118.011 22.3997 118.218 22.4117C118.37 22.4098 118.451 22.398 118.453 22.4078Z" fill="#455A64"/>
<path d="M119.727 33.4704C119.717 33.4704 119.78 33.341 119.853 33.098C119.952 32.7568 119.996 32.4022 119.984 32.0474C119.969 31.5222 119.825 31.0086 119.563 30.5519C119.419 30.2952 119.2 30.0658 119.021 29.7836C118.926 29.6398 118.859 29.4796 118.823 29.3112C118.792 29.134 118.807 28.9519 118.867 28.782C118.977 28.443 119.175 28.1588 119.218 27.8471C119.261 27.5355 119.111 27.2591 118.962 26.9984C118.884 26.8716 118.814 26.7407 118.75 26.6064C118.693 26.4762 118.655 26.3381 118.638 26.1968C118.619 25.9477 118.627 25.6974 118.662 25.45C118.725 25.1003 118.692 24.7402 118.567 24.4073C118.511 24.2907 118.432 24.1867 118.334 24.1016C118.334 24.1016 118.344 24.1016 118.358 24.1133C118.381 24.1249 118.402 24.1401 118.421 24.1584C118.498 24.2223 118.561 24.3018 118.604 24.3916C118.747 24.7273 118.792 25.0962 118.733 25.4559C118.705 25.6987 118.702 25.9436 118.723 26.187C118.771 26.4608 118.881 26.7206 119.042 26.9475C119.127 27.0799 119.199 27.2197 119.258 27.365C119.32 27.5218 119.34 27.6919 119.317 27.8589C119.269 28.2019 119.066 28.492 118.963 28.8114C118.91 28.9656 118.895 29.1306 118.922 29.2916C118.956 29.4474 119.019 29.5955 119.108 29.7287C119.275 30.0012 119.502 30.2344 119.646 30.5029C119.911 30.975 120.052 31.5053 120.057 32.0454C120.063 32.407 120.007 32.7669 119.891 33.1097C119.859 33.2025 119.821 33.2929 119.776 33.3802C119.764 33.4124 119.748 33.4428 119.727 33.4704Z" fill="#455A64"/>
<path d="M111.69 69.99C111.69 69.99 110.36 57.4774 110.283 52.8538C110.206 48.2301 112.377 43.6672 112.377 43.6672L120.878 43.3164C120.878 43.3164 122.559 48.0067 122.589 49.9804C122.648 53.8102 121.565 57.5911 121.689 60.6291L121.973 69.9979" fill="#263238"/>
<path d="M122.26 54.6055C122.215 54.6437 122.169 54.6791 122.12 54.7113L122.043 54.7642L121.96 54.8446C121.887 54.9074 121.821 54.9777 121.762 55.0543C121.488 55.3875 121.289 55.9853 121.097 56.7281C121 57.1402 120.855 57.5399 120.667 57.9198C120.61 58.0239 120.544 58.1229 120.47 58.2158C120.434 58.2628 120.401 58.3138 120.359 58.3589L120.229 58.4882C120.043 58.6614 119.826 58.7995 119.59 58.8959C119.114 59.1037 118.575 59.2017 118.086 59.4467C117.585 59.7146 117.197 60.153 116.995 60.6815C116.754 61.2126 116.6 61.7693 116.403 62.2906C116.206 62.812 115.939 63.3098 115.515 63.6273C115.109 63.9073 114.628 64.0584 114.134 64.0605C113.676 64.0879 113.251 64.0742 112.871 64.1311C112.528 64.1664 112.2 64.2893 111.919 64.4878C111.714 64.647 111.561 64.8623 111.477 65.1071C111.424 65.2616 111.413 65.4271 111.444 65.5873C111.468 65.6971 111.497 65.75 111.491 65.752C111.459 65.7028 111.437 65.6484 111.424 65.5913C111.383 65.4278 111.388 65.2559 111.44 65.0954C111.518 64.8384 111.673 64.6109 111.884 64.4427C112.172 64.227 112.512 64.0917 112.871 64.0507C113.265 63.988 113.686 63.9958 114.137 63.9664C114.617 63.9633 115.084 63.8157 115.477 63.5431C115.876 63.1969 116.171 62.7478 116.328 62.2455C116.525 61.7301 116.669 61.1715 116.92 60.6305C117.132 60.0803 117.537 59.6245 118.06 59.3467C118.57 59.0958 119.108 58.9998 119.572 58.7999C119.799 58.7065 120.008 58.5738 120.188 58.4079L120.312 58.2844C120.351 58.2413 120.385 58.1923 120.421 58.1472C120.49 58.0581 120.552 57.963 120.604 57.863C120.793 57.4884 120.939 57.0939 121.04 56.687C121.238 55.9461 121.453 55.3405 121.743 55.0053C121.8 54.9289 121.867 54.8592 121.94 54.7975C121.972 54.7701 121.999 54.7427 122.027 54.7211L122.108 54.6701C122.157 54.6456 122.208 54.624 122.26 54.6055Z" fill="#FAFAFA"/>
<path d="M122.311 48.8164C122.32 48.8715 122.324 48.9272 122.323 48.983C122.323 49.1448 122.303 49.306 122.264 49.4632C122.094 50.0366 121.76 50.5486 121.303 50.9371C121.001 51.2127 120.67 51.4552 120.316 51.6604C119.935 51.8838 119.515 52.0974 119.083 52.3405C118.629 52.5822 118.206 52.8777 117.824 53.2205C117.432 53.607 117.109 54.0571 116.869 54.5514C116.627 55.0524 116.351 55.5363 116.042 55.9998C115.885 56.2158 115.704 56.4131 115.501 56.5878C115.302 56.7564 115.083 56.9005 114.848 57.017C114.424 57.2239 113.982 57.3925 113.528 57.5208C113.106 57.6501 112.711 57.7658 112.368 57.9128C112.056 58.0359 111.76 58.1937 111.484 58.3832C111.276 58.5262 111.09 58.697 110.929 58.8908C110.795 59.0589 110.683 59.2433 110.596 59.4396C110.61 59.3853 110.628 59.3322 110.651 59.2808C110.716 59.1328 110.798 58.9932 110.898 58.8653C111.055 58.6633 111.241 58.485 111.45 58.3361C111.727 58.1399 112.026 57.9756 112.34 57.8461C112.72 57.6923 113.108 57.5582 113.502 57.4443C113.95 57.3131 114.386 57.1439 114.805 56.9386C115.027 56.8236 115.235 56.6842 115.426 56.5231C115.621 56.3509 115.796 56.1576 115.947 55.9469C116.252 55.4856 116.525 55.0051 116.766 54.5082C117.014 54.003 117.348 53.5441 117.753 53.1519C118.142 52.804 118.573 52.5051 119.036 52.2621C119.47 52.021 119.89 51.8113 120.271 51.5898C120.624 51.3915 120.955 51.1562 121.258 50.8881C121.711 50.5112 122.048 50.0145 122.229 49.4554C122.279 49.246 122.307 49.0317 122.311 48.8164Z" fill="#FAFAFA"/>
<path d="M110.326 53.5067C110.319 53.4946 110.313 53.4814 110.309 53.4675C110.294 53.4297 110.281 53.3911 110.271 53.3519C110.237 53.196 110.244 53.034 110.291 52.8815C110.401 52.4895 110.838 51.9857 111.54 51.7368C111.891 51.6173 112.288 51.5408 112.702 51.4389C113.046 51.3823 113.372 51.2447 113.652 51.0378C113.931 50.8308 114.157 50.5605 114.311 50.2492C114.423 50.0207 114.521 49.7858 114.605 49.5455C114.759 49.0238 114.969 48.5199 115.23 48.0422C115.53 47.5727 115.985 47.2214 116.517 47.0485C117.001 46.8925 117.495 46.7681 117.995 46.6761C118.441 46.591 118.874 46.4445 119.279 46.241C119.623 46.0459 119.92 45.7783 120.148 45.457C120.485 44.9931 120.677 44.441 120.7 43.8694C120.701 43.6596 120.687 43.45 120.659 43.2422C120.718 43.4458 120.746 43.6574 120.74 43.8694C120.732 44.4533 120.546 45.0212 120.207 45.4981C119.976 45.8301 119.673 46.1066 119.321 46.3076C118.91 46.5187 118.471 46.6712 118.017 46.7604C117.521 46.8538 117.032 46.9789 116.552 47.1347C116.042 47.301 115.605 47.6384 115.317 48.0893C115.06 48.5604 114.853 49.0571 114.699 49.571C114.614 49.8156 114.513 50.0546 114.397 50.2864C114.281 50.5092 114.132 50.7139 113.955 50.894C113.609 51.2079 113.182 51.4215 112.722 51.5114C112.304 51.6173 111.909 51.6839 111.564 51.7976C110.879 52.0289 110.445 52.5051 110.328 52.8854C110.281 53.032 110.268 53.1877 110.291 53.3401C110.308 53.3945 110.319 53.4503 110.326 53.5067Z" fill="#FAFAFA"/>
<path d="M121.58 64.0938C121.588 64.1345 121.592 64.1758 121.594 64.2172C121.597 64.336 121.585 64.4547 121.556 64.57C121.432 64.995 121.17 65.3672 120.81 65.6284C120.57 65.8184 120.304 65.9741 120.021 66.091C119.719 66.2184 119.385 66.3203 119.034 66.4281C118.67 66.5339 118.313 66.6649 117.967 66.8201C117.607 66.9908 117.284 67.2298 117.017 67.5238C116.729 67.8217 116.481 68.149 116.204 68.4391C115.94 68.72 115.633 68.9581 115.295 69.1447C114.719 69.4568 114.074 69.6238 113.418 69.6308C112.979 69.6355 112.542 69.5631 112.128 69.4171C112.015 69.3786 111.906 69.3321 111.8 69.278C111.761 69.2621 111.725 69.2417 111.691 69.2172C111.731 69.2281 111.77 69.2418 111.808 69.2584C111.916 69.3044 112.027 69.3449 112.139 69.3799C112.553 69.5086 112.985 69.5689 113.418 69.5582C114.06 69.5417 114.688 69.3716 115.249 69.0624C115.577 68.8779 115.875 68.6445 116.131 68.3705C116.402 68.0843 116.648 67.759 116.942 67.4532C117.225 67.1482 117.566 66.9018 117.945 66.728C118.296 66.5721 118.658 66.4411 119.028 66.336C119.376 66.2302 119.707 66.14 120.015 66.0106C120.29 65.8987 120.549 65.7503 120.785 65.5696C121.138 65.3216 121.402 64.9669 121.536 64.5583C121.565 64.4051 121.58 64.2496 121.58 64.0938Z" fill="#FAFAFA"/>
<path d="M120.612 38.1147L118.966 38.1539C118.903 38.4835 118.777 38.7982 118.595 39.081C117.214 36.7094 116.154 33.5342 115.89 32.2582C115.929 32.1308 115.975 31.9897 116.032 31.8329C116.073 31.5948 116.066 31.3508 116.01 31.1156C115.963 30.8314 115.884 30.4492 115.86 30.2728C115.787 29.7318 115.699 29.6475 115.509 29.7083C115.253 29.7926 115.616 31.2234 115.405 31.2547C115.29 31.2704 115.152 30.7804 115.113 30.3786C115.073 29.9768 114.888 28.7381 114.755 28.6558C114.558 28.5342 114.386 28.7263 114.438 29.1262C114.489 29.526 114.55 30.7412 114.337 30.7588C114.124 30.7765 113.942 28.7224 113.942 28.7224C113.942 28.7224 113.976 28.2755 113.727 28.2853C113.281 28.3049 113.631 30.4688 113.668 30.6746C113.696 30.8157 113.471 30.8431 113.443 30.6883C113.415 30.5334 113.313 28.6362 112.851 28.6518C112.5 28.6518 113.121 30.4335 112.924 30.8451C112.727 31.2567 112.593 29.4496 112.259 29.4731C112.135 29.4829 112.042 29.5064 112.271 30.5276C112.49 31.3389 112.754 32.1378 113.06 32.9207C113.589 35.7529 115.91 44.814 119.547 43.1558C121.583 42.2268 122.408 38.1147 122.408 38.1147H120.612Z" fill="#B78876"/>
<path d="M113.596 30.8095C113.612 30.8134 113.628 30.8134 113.644 30.8095C113.667 30.8023 113.688 30.7869 113.701 30.766C113.715 30.7452 113.72 30.7203 113.717 30.6958C113.717 30.5743 113.693 30.3979 113.665 30.1686C113.619 29.8922 113.589 29.6134 113.574 29.3336C113.574 29.169 113.574 28.9926 113.584 28.8064C113.587 28.7117 113.597 28.6174 113.614 28.5242C113.63 28.436 113.689 28.3282 113.758 28.3458H113.77C113.839 28.3458 113.894 28.3968 113.916 28.4791C113.94 28.5644 113.95 28.6532 113.943 28.7417C113.984 29.2906 114.055 29.837 114.155 30.3783C114.17 30.4508 114.186 30.5253 114.21 30.5998C114.22 30.6379 114.234 30.6752 114.249 30.7115C114.259 30.7317 114.271 30.7513 114.283 30.7703C114.292 30.7846 114.304 30.7967 114.318 30.8056C114.333 30.8144 114.349 30.8198 114.366 30.8213C114.395 30.8181 114.422 30.8066 114.444 30.7881C114.466 30.7696 114.482 30.745 114.49 30.7174C114.507 30.6791 114.52 30.639 114.528 30.5978C114.543 30.5188 114.554 30.439 114.559 30.3587C114.577 30.0321 114.573 29.7047 114.545 29.3787C114.52 29.216 114.514 29.051 114.526 28.8868C114.533 28.8158 114.567 28.7505 114.622 28.7045C114.635 28.697 114.649 28.6923 114.664 28.6906C114.678 28.6889 114.693 28.6903 114.707 28.6947C114.724 28.6987 114.74 28.7053 114.755 28.7143C114.765 28.7217 114.772 28.732 114.776 28.7437C114.838 28.9026 114.884 29.0675 114.912 29.2356C114.948 29.4081 114.978 29.5865 115.005 29.7648C115.033 29.9432 115.058 30.1235 115.08 30.3058C115.097 30.4939 115.127 30.6806 115.171 30.8644C115.194 30.9584 115.224 31.0507 115.26 31.1408C115.28 31.1912 115.308 31.2381 115.343 31.2799C115.356 31.2973 115.374 31.3106 115.395 31.3182C115.415 31.3258 115.437 31.3275 115.459 31.323C115.479 31.3165 115.497 31.3049 115.511 31.2895C115.525 31.274 115.535 31.2552 115.54 31.2348C115.563 31.1347 115.571 31.0315 115.562 30.9291C115.562 30.8311 115.55 30.7331 115.54 30.639C115.526 30.4744 115.51 30.3117 115.504 30.151C115.499 30.072 115.499 29.9928 115.504 29.9138C115.508 29.8788 115.517 29.8445 115.53 29.8119C115.534 29.8011 115.54 29.7911 115.548 29.7825H115.573C115.704 29.7296 115.747 29.9099 115.783 30.0549C115.818 30.2 115.832 30.3646 115.864 30.5194C115.915 30.8272 115.982 31.1349 116.015 31.4289C116.038 31.5697 116.033 31.7135 116 31.8522C115.952 31.9934 115.905 32.1325 115.86 32.2717V32.2854V32.2972C116.091 33.2601 116.385 34.2068 116.742 35.1313C117.053 35.9682 117.367 36.6993 117.642 37.2873C117.916 37.8753 118.164 38.3359 118.334 38.6456L118.531 38.9964C118.553 39.0382 118.579 39.0777 118.608 39.114C118.592 39.0705 118.571 39.0285 118.547 38.9886L118.35 38.6299C118.188 38.3144 117.955 37.8459 117.687 37.2579C117.419 36.6699 117.115 35.9388 116.811 35.1019C116.463 34.1788 116.174 33.2348 115.946 32.2756V32.303C115.992 32.1658 116.037 32.0267 116.085 31.8875C116.126 31.7348 116.134 31.5751 116.108 31.4191C116.073 31.1114 116.008 30.8134 115.956 30.5038C115.927 30.3509 115.907 30.1941 115.875 30.0334C115.873 29.9508 115.859 29.8689 115.834 29.7903C115.811 29.7425 115.773 29.7038 115.725 29.6806C115.675 29.6641 115.62 29.6641 115.57 29.6806H115.538C115.521 29.6859 115.506 29.6945 115.493 29.706C115.471 29.7245 115.454 29.7481 115.443 29.7746C115.425 29.8171 115.414 29.862 115.41 29.9079C115.404 29.9927 115.404 30.0779 115.41 30.1627C115.41 30.3274 115.433 30.492 115.447 30.6566C115.447 30.7527 115.463 30.8526 115.467 30.9408C115.475 31.0292 115.47 31.1183 115.453 31.2054C115.453 31.225 115.437 31.2211 115.453 31.2309L115.441 31.2192C115.416 31.1871 115.396 31.1514 115.382 31.1133C115.348 31.0285 115.319 30.9414 115.297 30.8526C115.254 30.6741 115.224 30.4926 115.208 30.3097C115.187 30.1255 115.162 29.9432 115.131 29.7629C115.104 29.5826 115.072 29.4062 115.037 29.2298C115.007 29.0502 114.957 28.8746 114.887 28.7064C114.873 28.6783 114.852 28.6546 114.826 28.6378C114.803 28.6246 114.778 28.6141 114.753 28.6065C114.724 28.5991 114.695 28.5974 114.666 28.6015C114.638 28.6055 114.61 28.6152 114.585 28.63C114.544 28.6602 114.51 28.6984 114.485 28.7423C114.46 28.7861 114.444 28.8346 114.439 28.8848C114.426 28.9738 114.426 29.0643 114.439 29.1533C114.439 29.2376 114.459 29.3199 114.464 29.4022C114.492 29.7229 114.498 30.0451 114.482 30.3666C114.478 30.4429 114.468 30.5189 114.453 30.5939C114.447 30.629 114.437 30.6632 114.423 30.6958C114.418 30.7088 114.411 30.7207 114.401 30.7311C114.401 30.7488 114.387 30.7311 114.389 30.7546C114.389 30.735 114.389 30.7546 114.389 30.7292C114.381 30.7159 114.373 30.7022 114.366 30.688C114.352 30.6566 114.34 30.6214 114.328 30.588C114.307 30.5175 114.291 30.445 114.275 30.3744C114.172 29.8377 114.098 29.296 114.052 28.7515C114.058 28.653 114.047 28.5542 114.018 28.4595C114.005 28.4101 113.979 28.3653 113.942 28.3301C113.922 28.3116 113.899 28.2972 113.874 28.2877C113.849 28.2783 113.822 28.274 113.795 28.2752H113.807C113.774 28.2704 113.74 28.2754 113.709 28.2897C113.679 28.304 113.653 28.3269 113.636 28.3556C113.606 28.4023 113.586 28.4542 113.576 28.5085C113.56 28.6057 113.551 28.7039 113.549 28.8025C113.549 28.9985 113.549 29.169 113.549 29.3356C113.568 29.6172 113.604 29.8973 113.657 30.1745C113.691 30.4018 113.717 30.5782 113.728 30.6978C113.732 30.7187 113.729 30.7403 113.718 30.7589C113.708 30.7775 113.691 30.7919 113.671 30.7997C113.612 30.8056 113.594 30.8076 113.596 30.8095Z" fill="#A36957"/>
<path d="M100.744 40.8135C100.359 40.8053 99.9745 40.8495 99.6015 40.9448C98.5812 41.2113 96.823 42.2697 96.75 43.5771H98.0287C98.0287 43.5771 97.3124 45.0902 97.5216 44.9491C98.0682 44.5845 99.1535 43.4889 99.1535 43.4889L100.744 40.8135Z" fill="#B78876"/>
<path d="M118.174 18.0321C118.145 18.0321 118.03 16.9855 117.916 15.6801C117.801 14.3748 117.73 13.3281 117.758 13.3281C117.786 13.3281 117.902 14.3748 118.016 15.6801C118.131 16.9855 118.202 18.0321 118.174 18.0321Z" fill="#263238"/>
<path d="M123.781 13.4103C123.803 13.426 122.94 14.6706 121.853 16.1896C120.766 17.7086 119.864 18.9336 119.84 18.9101C119.817 18.8865 120.681 17.6498 121.768 16.1308C122.856 14.6118 123.757 13.3946 123.781 13.4103Z" fill="#263238"/>
<path d="M126.109 19.0496C126.109 19.077 125.106 19.3063 123.859 19.5611C122.612 19.8159 121.594 20.0002 121.588 19.9727C121.582 19.9453 122.588 19.716 123.838 19.4612C125.087 19.2064 126.095 19.0221 126.109 19.0496Z" fill="#263238"/>
<path d="M59.0027 45.9713L52.0171 81.6041L51.1094 86.2689L97.68 86.0455C99.7718 86.0357 101.627 84.1913 102.296 81.4512L110.556 47.8118C111.067 45.7322 109.946 43.5684 108.36 43.5703L61.2128 43.6193C60.1867 43.6174 59.2671 44.5817 59.0027 45.9713Z" fill="#FD7E14"/>
<g opacity="0.5">
<path d="M59.0027 45.9713L52.0171 81.6041L51.1094 86.2689L97.68 86.0455C99.7718 86.0357 101.627 84.1913 102.296 81.4512L110.556 47.8118C111.067 45.7322 109.946 43.5684 108.36 43.5703L61.2128 43.6193C60.1867 43.6174 59.2671 44.5817 59.0027 45.9713Z" fill="black"/>
</g>
<path d="M93.2186 79.1855L88.2853 39.7091C88.088 38.0921 86.7875 36.8848 85.2543 36.8906L74.4404 36.924C74.0385 36.9285 73.6418 37.0142 73.2744 37.1759C72.9069 37.3377 72.5765 37.5721 72.3033 37.8648L67.1726 43.2881L37.099 43.4488C35.2618 43.4586 33.8489 45.1873 34.0916 47.1277L38.6718 83.6131C38.8691 85.2282 40.1695 86.4336 41.6988 86.4316L94.1204 86.3277C99.9576 86.4473 100.516 84.7362 100.516 84.7362C93.8146 86.2082 93.2186 79.1953 93.2186 79.1855Z" fill="#FD7E14"/>
<g opacity="0.5">
<path d="M70.6146 71.2927L68.8465 73.1782L55.2305 61.0105L56.9986 59.125L70.6146 71.2927Z" fill="white"/>
<path d="M68.1066 58.707L70.0602 60.4534L57.7407 73.5952L55.7852 71.8488L68.1066 58.707Z" fill="white"/>
</g>
<path d="M100.704 20.3408C100.64 20.314 100.585 20.2698 100.545 20.2132C100.506 20.1567 100.483 20.0901 100.481 20.0213L100.402 18.2024C100.399 18.1459 100.409 18.0895 100.432 18.0377C100.455 17.9859 100.49 17.9402 100.534 17.904C100.578 17.8679 100.629 17.8424 100.685 17.8296C100.74 17.8167 100.798 17.8169 100.854 17.83C101.006 17.8628 101.164 17.8642 101.318 17.8342C101.471 17.8042 101.617 17.7434 101.746 17.6556C101.864 17.581 101.966 17.483 102.045 17.3677C102.124 17.2524 102.179 17.1223 102.205 16.9853C102.223 16.8465 102.213 16.7057 102.175 16.571C102.137 16.4363 102.072 16.3106 101.984 16.2013C101.892 16.0769 101.776 15.9718 101.642 15.8921C101.509 15.8124 101.361 15.7596 101.207 15.7367C100.896 15.7196 100.589 15.807 100.335 15.9849C100.081 16.1627 99.8941 16.4206 99.8058 16.7167C99.7763 16.8065 99.7131 16.8814 99.6293 16.9261C99.5456 16.9707 99.4477 16.9815 99.3562 16.9562C99.2646 16.9309 99.1864 16.8716 99.1378 16.7904C99.0892 16.7093 99.074 16.6127 99.0954 16.5207C99.2296 16.0549 99.5213 15.6492 99.9212 15.3719C100.321 15.0945 100.805 14.9624 101.292 14.9978C101.545 15.0313 101.789 15.115 102.009 15.244C102.229 15.373 102.42 15.5445 102.572 15.7485C102.72 15.9375 102.828 16.1541 102.89 16.3854C102.952 16.6167 102.967 16.858 102.933 17.095C102.889 17.3317 102.795 17.5568 102.66 17.7563C102.524 17.9559 102.349 18.1257 102.144 18.2553C101.848 18.4533 101.502 18.5653 101.146 18.5787L101.207 19.9821C101.209 20.0438 101.196 20.105 101.168 20.1601C101.14 20.2153 101.098 20.2625 101.047 20.2975C100.996 20.3325 100.937 20.3541 100.875 20.3603C100.813 20.3665 100.751 20.3571 100.694 20.3329L100.704 20.3408Z" fill="#FD7E14"/>
<path d="M101.244 21.0877C101.248 21.1469 101.234 21.206 101.205 21.2575C101.175 21.309 101.131 21.3506 101.077 21.3771C101.024 21.4035 100.963 21.4136 100.904 21.4061C100.845 21.3985 100.789 21.3737 100.744 21.3347C100.699 21.2957 100.667 21.2444 100.651 21.1871C100.636 21.1298 100.637 21.0693 100.656 21.013C100.675 20.9568 100.711 20.9074 100.758 20.8712C100.805 20.8349 100.862 20.8134 100.922 20.8094C100.962 20.8065 101.001 20.8114 101.039 20.8238C101.077 20.8363 101.111 20.856 101.141 20.8819C101.171 20.9078 101.196 20.9393 101.213 20.9746C101.231 21.01 101.241 21.0484 101.244 21.0877Z" fill="#FD7E14"/>
<path d="M94.3636 17.7767C94.372 17.7379 94.378 17.6986 94.3813 17.6591C94.3813 17.5728 94.403 17.4631 94.4188 17.3082C94.4382 17.1181 94.4705 16.9295 94.5155 16.7438C94.5412 16.634 94.555 16.5125 94.5944 16.389C94.6339 16.2655 94.6734 16.1322 94.7168 15.997C94.9453 15.3269 95.2782 14.6966 95.7035 14.1291C96.2608 13.3942 96.9674 12.7839 97.7774 12.3377C98.2385 12.0795 98.7295 11.8781 99.2397 11.7379C99.7902 11.593 100.357 11.5192 100.927 11.5184C101.227 11.5136 101.527 11.5293 101.825 11.5654C101.977 11.5811 102.127 11.6203 102.279 11.6458C102.432 11.6719 102.584 11.7086 102.732 11.7556C103.354 11.9282 103.946 12.1946 104.487 12.5454C105.689 13.3199 106.605 14.4619 107.096 15.799C107.36 16.5153 107.494 17.2726 107.49 18.0354C107.498 18.8212 107.358 19.6017 107.078 20.3364L106.989 20.5599L106.977 20.5893L106.989 20.6187C107.484 21.7496 107.976 22.8609 108.439 23.937L108.522 23.8429L105.562 22.7159L105.527 22.7022L105.497 22.7296C104.714 23.4832 103.755 24.0326 102.707 24.329C101.811 24.574 100.873 24.6275 99.9541 24.4859C99.0357 24.3443 98.158 24.0109 97.3788 23.5077C96.7406 23.092 96.1781 22.5718 95.7153 21.9691C95.0445 21.0894 94.6099 20.0548 94.4524 18.9625C94.4287 18.7665 94.4089 18.6018 94.3912 18.4529C94.3734 18.3039 94.3912 18.1824 94.3813 18.0785C94.3715 17.9746 94.3813 17.906 94.3813 17.8492C94.3912 17.8477 94.4001 17.8426 94.4063 17.8349C94.4125 17.8271 94.4155 17.8173 94.4148 17.8075C94.414 17.7976 94.4095 17.7884 94.4022 17.7817C94.3949 17.775 94.3854 17.7712 94.3754 17.7712C94.3655 17.7712 94.3559 17.775 94.3486 17.7817C94.3413 17.7884 94.3368 17.7976 94.336 17.8075C94.3353 17.8173 94.3383 17.8271 94.3445 17.8349C94.3507 17.8426 94.3596 17.8477 94.3695 17.8492C94.3695 17.906 94.3695 17.9825 94.3695 18.0785C94.3695 18.1746 94.3695 18.3078 94.3695 18.4568C94.3695 18.6058 94.403 18.7763 94.4228 18.9703C94.4877 19.4417 94.6007 19.9054 94.7602 20.3541C94.9861 20.9466 95.29 21.5068 95.664 22.0201C96.1287 22.6335 96.6953 23.1637 97.3393 23.5881C98.1281 24.1039 99.0183 24.4472 99.9508 24.5952C100.883 24.7432 101.837 24.6925 102.748 24.4466C103.81 24.1472 104.78 23.5924 105.574 22.8315L105.509 22.8452L108.469 23.9781L108.617 24.035L108.552 23.884C108.082 22.808 107.597 21.6986 107.103 20.5658V20.6226L107.194 20.3933C107.482 19.6425 107.625 18.8446 107.616 18.0413C107.623 17.2622 107.489 16.4884 107.222 15.7559C106.72 14.3922 105.784 13.2284 104.556 12.4416C104.002 12.0825 103.394 11.8114 102.756 11.638C102.605 11.5905 102.451 11.5545 102.294 11.5302C102.14 11.5027 101.989 11.4635 101.835 11.4498C101.533 11.4126 101.229 11.3956 100.925 11.3988C100.346 11.4013 99.7704 11.479 99.212 11.6301C98.6951 11.7759 98.1976 11.9825 97.7301 12.2456C96.9119 12.7027 96.2009 13.3274 95.6443 14.0782C95.2203 14.6551 94.8918 15.2956 94.6714 15.9754C94.63 16.1166 94.5905 16.2518 94.555 16.3674C94.5236 16.4856 94.4986 16.6053 94.48 16.7261C94.4377 16.9132 94.41 17.1032 94.3971 17.2945C94.3853 17.4454 94.3774 17.5611 94.3715 17.6473C94.3632 17.6899 94.3605 17.7334 94.3636 17.7767Z" fill="#263238"/>
</svg>
