<svg width="148" height="98" fill="none" xmlns="http://www.w3.org/2000/svg"><path d="M43.391 23.965 21.25 38.675l21.809 32.383 22.14-14.711-21.808-32.382Z" fill="#F5F5F5"/><path d="m53.758 54.814-.25 1.545L42.5 54.783l.25-1.545 11.008 1.576Z" fill="#E0E0E0"/><path d="m48.215 49.305 1.579.225-1.75 10.764-1.581-.227 1.752-10.762ZM38.087 35.621c.015.022-2.203 1.525-4.956 3.352-2.752 1.827-4.996 3.293-5.012 3.27-.016-.024 2.203-1.526 4.955-3.354 2.753-1.829 4.987-3.291 5.013-3.268ZM46.22 33.594c.016.023-3.674 2.5-8.24 5.535-4.567 3.034-8.288 5.474-8.3 5.453-.012-.022 3.67-2.503 8.242-5.537 4.573-3.034 8.282-5.475 8.298-5.451ZM47.853 36.016c.016.023-3.674 2.503-8.24 5.537-4.567 3.034-8.289 5.474-8.3 5.45-.012-.023 3.674-2.5 8.242-5.536 4.568-3.036 8.282-5.475 8.298-5.451ZM49.484 38.438c.015.023-3.675 2.503-8.24 5.535-4.567 3.032-8.289 5.476-8.289 5.452 0-.023 3.672-2.502 8.24-5.537 4.569-3.034 8.273-5.474 8.289-5.45ZM51.11 40.863c.017.024-3.674 2.501-8.24 5.535-4.566 3.035-8.288 5.475-8.298 5.451-.01-.023 3.679-2.5 8.25-5.535 4.573-3.034 8.289-5.474 8.289-5.45Z" fill="#E0E0E0"/><path d="M117.427 45.66 98.832 58.017l18.315 27.194 18.595-12.354-18.315-27.195Z" fill="#F5F5F5"/><path d="m126.136 71.577-.211 1.297-9.245-1.323.213-1.297 9.243 1.323Z" fill="#E0E0E0"/><path d="m121.482 66.95 1.326.19-1.47 9.039-1.328-.19 1.472-9.04ZM112.967 55.47c.015.023-1.845 1.287-4.158 2.822-2.313 1.535-4.199 2.761-4.215 2.744-.016-.018 1.847-1.286 4.158-2.823 2.31-1.536 4.199-2.777 4.215-2.744ZM119.804 53.754c.016.024-3.08 2.11-6.906 4.655-3.827 2.546-6.958 4.596-6.974 4.573-.016-.024 3.08-2.11 6.907-4.657 3.826-2.548 6.952-4.594 6.973-4.57ZM121.175 55.79c.016.023-3.08 2.108-6.906 4.656-3.827 2.548-6.958 4.594-6.974 4.57-.016-.023 3.07-2.098 6.907-4.646 3.836-2.548 6.962-4.602 6.973-4.58ZM122.545 57.82c.015.024-3.083 2.11-6.907 4.657-3.824 2.548-6.958 4.595-6.974 4.571-.016-.023 3.08-2.107 6.907-4.657 3.826-2.55 6.96-4.59 6.974-4.57ZM123.925 59.86c.016.023-3.08 2.107-6.906 4.655-3.827 2.548-6.958 4.594-6.974 4.572-.016-.021 3.08-2.109 6.907-4.657 3.826-2.548 6.948-4.594 6.973-4.57Z" fill="#E0E0E0"/><path d="M88.01 25.153 67.72 14.375 51.743 44.049l20.29 10.778L88.01 25.153Z" fill="#F5F5F5"/><path d="m68.558 45.543-1.286.437-3.268-8.97 1.288-.44 3.266 8.973Z" fill="#E0E0E0"/><path d="m70.531 39.11.47 1.287-8.97 3.052-.47-1.288 8.97-3.052ZM76.906 25.871c-.016.03-2.072-1.033-4.596-2.371-2.524-1.34-4.554-2.45-4.538-2.48.015-.03 2.074 1.033 4.597 2.372 2.524 1.338 4.553 2.448 4.537 2.48ZM81.776 31.208c-.015.03-3.421-1.75-7.607-3.973-4.185-2.222-7.564-4.049-7.548-4.078.016-.03 3.42 1.748 7.605 3.973 4.186 2.224 7.566 4.049 7.55 4.078ZM80.58 33.43c-.017.03-3.423-1.747-7.608-3.972-4.186-2.225-7.564-4.05-7.548-4.079.016-.03 3.42 1.75 7.605 3.973 4.186 2.223 7.566 4.05 7.55 4.079ZM79.384 35.652c-.016.03-3.422-1.748-7.607-3.971-4.186-2.223-7.564-4.044-7.548-4.079.015-.035 3.42 1.748 7.605 3.971 4.185 2.223 7.566 4.05 7.55 4.079ZM78.189 37.87c-.016.03-3.422-1.748-7.608-3.97-4.185-2.223-7.566-4.05-7.548-4.08.018-.029 3.42 1.749 7.605 3.972 4.186 2.222 7.566 4.049 7.55 4.078Z" fill="#E0E0E0"/><path opacity=".2" d="M78.292 0h-.509v8.62h.51V0Z" fill="#000"/><path d="M66.152 19.05h23.771S87.73 8.625 77.858 8.625c-8.78 0-11.706 10.425-11.706 10.425ZM78.292 0h-.509v8.62h.51V0Z" fill="#FD7E14"/><path d="M130.964 86.207c0 .028-25.506.051-56.963.051s-56.966-.017-56.966-.05c0-.034 25.501-.052 56.966-.052s56.963.022 56.963.051Z" fill="#263238"/><path d="M23.342 73.932a2.506 2.506 0 0 1 1.732.882c.427.513.728 1.116.882 1.764.334 1.238.129 2.703-.226 3.935-1.35-.48-2.185-1.91-2.566-2.663-.592-1.188-.945-3.697.172-3.92M27.674 82.018a2.095 2.095 0 0 1-.098-2.113 2.8 2.8 0 0 1 1.697-1.354c.33-.102.712-.143.998.047a.898.898 0 0 1 .35.845 1.811 1.811 0 0 1-.395.866c-.657.884-1.455 1.619-2.566 1.71" fill="#FD7E14"/><path d="M27.824 86.159c-.03-.084-.05-.17-.061-.257a94.26 94.26 0 0 0-.14-.706 7.356 7.356 0 0 1-.146-2.373 4.49 4.49 0 0 1 .886-2.198c.149-.191.32-.364.511-.515a1.801 1.801 0 0 1 .221-.15c-.25.213-.478.448-.68.705a4.657 4.657 0 0 0-.845 2.171c-.127.914.03 1.75.12 2.352.047.3.087.543.108.712.016.085.025.172.026.258Z" fill="#263238"/><path d="M23.775 75.82c.023.031.042.065.056.1.035.079.082.177.138.3.12.26.288.64.491 1.108.407.938.951 2.244 1.52 3.698a95.19 95.19 0 0 1 1.38 3.748c.17.482.303.874.396 1.146l.098.314a.509.509 0 0 1 .03.112.483.483 0 0 1-.047-.106l-.117-.308-.416-1.137c-.353-.958-.847-2.283-1.413-3.736a196.035 196.035 0 0 0-1.494-3.706c-.197-.465-.35-.843-.462-1.12l-.124-.305a.68.68 0 0 1-.036-.108Z" fill="#263238"/><path d="M26.22 83.418a4.951 4.951 0 0 0-1.638-1.65 4.99 4.99 0 0 0-2.215-.727c-.394-.028-.88.039-1.058.392-.177.352.06.784.332 1.07a4.267 4.267 0 0 0 4.592 1.02" fill="#FD7E14"/><path d="M22.975 82.103c.083-.004.167 0 .25.01.098.005.194.016.29.033.113.022.245.034.383.073.154.032.307.074.456.125a5.494 5.494 0 0 1 1.577.825c.327.256.624.548.884.87.112.141.215.289.31.442a4.274 4.274 0 0 1 .39.762c.04.09.073.181.1.275.03.078.052.159.066.24-.022 0-.116-.336-.383-.838a4.327 4.327 0 0 0-.239-.392 4.924 4.924 0 0 0-.311-.43 5.255 5.255 0 0 0-1.922-1.473 5.441 5.441 0 0 0-.496-.196 4.339 4.339 0 0 0-.448-.136c-.552-.15-.91-.168-.907-.19ZM112.55 20.673c-.58.132-.862.796-.917 1.384-.056.588.019 1.211-.229 1.748-.281.604-.95 1.05-.971 1.715-.014.406.229.784.217 1.194-.02.666-.703 1.176-.74 1.835-.026.48.296.938.219 1.413-.059.368-.349.658-.472 1.011-.242.706.245 1.48.878 1.876a2.897 2.897 0 0 0 3.482-.317c.309-.282.552-.627.712-1.012.351-.847.274-1.801.197-2.713a201.36 201.36 0 0 1-.529-8.541" fill="#263238"/><path d="M110.865 30.706a.669.669 0 0 0 .267-.311c.057-.154.079-.317.067-.48a2.645 2.645 0 0 0-.144-.634 1.803 1.803 0 0 1-.103-.803c.049-.306.27-.557.47-.804.107-.12.197-.256.266-.402a.644.644 0 0 0 .032-.47c-.103-.32-.419-.555-.563-.925a.98.98 0 0 1-.031-.572 2.24 2.24 0 0 1 .197-.512c.167-.292.299-.601.395-.923.138-.622.073-1.215.167-1.703.053-.391.228-.756.5-1.043.077-.077.164-.143.26-.196a.404.404 0 0 1 .105-.037 1.534 1.534 0 0 0-.338.25c-.252.29-.411.649-.456 1.03-.034.26-.053.521-.055.784 0 .308-.031.616-.091.919a4.38 4.38 0 0 1-.394.945c-.148.307-.284.668-.154 1.005.13.337.444.57.564.93a.755.755 0 0 1-.037.54c-.077.16-.177.309-.296.44-.198.248-.413.483-.46.757-.028.26.003.524.091.77.07.212.114.43.13.652.01.17-.021.34-.089.497a.594.594 0 0 1-.197.247.313.313 0 0 1-.103.05Z" fill="#455A64"/><path d="m109.322 35.352-1.776 5.096-7.428.392-1.24 2.744 7.756.784a2.953 2.953 0 0 0 2.304-.034 2.926 2.926 0 0 0 1.568-1.678l2.07-5.738-3.254-1.566ZM124.676 83.439s-5.442-17.174-5.558-17.73c-.105-.506 1.973-12.864 2.237-16.072l-7.354.272v.073l-3.126.172 2.798 35.108h3.384l-.335-11.653c2.088 5.565 5.079 11.237 5.079 11.237l2.875-1.407Z" fill="#B78876"/><path d="M116.86 77.787c0-.106-.042-3.904-.042-3.904-.041.227-1.296-3.297-1.267-3.51.016-.112 1.309 7.414 1.309 7.414Z" fill="#A36957"/><path d="M115.411 68.703a.733.733 0 0 0-.022.214 5.243 5.243 0 0 0 0 .588c0 .123.018.257.034.402.015.145.037.297.071.456.07.347.163.689.278 1.023.245.712.517 1.333.708 1.784.091.196.17.382.237.531.024.07.057.135.099.196a.786.786 0 0 0-.059-.196c-.046-.13-.115-.315-.198-.545-.173-.458-.434-1.086-.677-1.79a8.576 8.576 0 0 1-.282-1.007 6.925 6.925 0 0 1-.128-.84c-.024-.244-.034-.44-.04-.577a.874.874 0 0 0-.021-.239Z" fill="#A36957"/><path d="M113.611 85.44v-.316l3.467-.151.01 1.303-.213.014c-.953.055-4.845.215-5.48.025-.712-.211 2.216-.876 2.216-.876Z" fill="#455A64"/><path d="M117.132 86.195a.447.447 0 0 1-.059 0l-.17.012-.627.028a59.43 59.43 0 0 1-4.14.02l-.626-.026H111.279a.363.363 0 0 1 .059 0h.172l.628.011c.529 0 1.261.016 2.068.012.807-.004 1.541-.017 2.07-.031l.627-.016h.229v-.01Z" fill="#263238"/><path d="M112.48 86.307a1.565 1.565 0 0 0-.118-.296 1.425 1.425 0 0 0-.216-.238.456.456 0 0 1 .251.216.467.467 0 0 1 .083.318ZM113.502 85.792s-.058-.052-.109-.13c-.051-.08-.083-.148-.073-.154.01-.006.057.051.109.13.051.078.083.148.073.154ZM113.782 85.652c0 .01-.063-.027-.122-.08-.059-.053-.103-.102-.095-.11.008-.008.064.028.123.08.059.053.102.093.094.11ZM113.957 85.318a.42.42 0 0 1-.182.024.394.394 0 0 1-.179-.018.409.409 0 0 1 .179-.023.398.398 0 0 1 .182.017ZM114.016 85.09a.37.37 0 0 1-.198.059.374.374 0 0 1-.197-.028 1.14 1.14 0 0 1 .197-.015c.066-.012.132-.017.198-.016Z" fill="#263238"/><path d="M113.386 85.49a.61.61 0 0 1-.223 0 1.27 1.27 0 0 1-.371-.105.125.125 0 0 1-.056-.069.091.091 0 0 1 .004-.049.083.083 0 0 1 .03-.039.413.413 0 0 1 .576.265c.004.02.004.04 0 .059a.631.631 0 0 0-.102-.196.408.408 0 0 0-.198-.122.353.353 0 0 0-.264.02c-.034.025-.02.066.018.09.04.022.082.04.126.053.074.024.15.043.227.057.148.031.233.031.233.037Z" fill="#263238"/><path d="M113.329 85.501a.206.206 0 0 1-.028-.152.36.36 0 0 1 .061-.161.224.224 0 0 1 .078-.08.223.223 0 0 1 .106-.034.093.093 0 0 1 .055.038.087.087 0 0 1 .014.064.245.245 0 0 1-.037.098.792.792 0 0 1-.105.135.325.325 0 0 1-.126.089s.043-.04.104-.11a.726.726 0 0 0 .093-.132c.03-.046.051-.13 0-.14-.051-.01-.111.05-.144.094a.36.36 0 0 0-.063.143c-.008.049-.011.099-.008.148ZM117.059 85.262s-.099 0-.255.01a1.093 1.093 0 0 0-.901.719c-.052.147-.056.247-.064.245-.007-.002 0-.026 0-.069a.846.846 0 0 1 .036-.186c.063-.2.184-.378.347-.511.166-.131.367-.21.578-.226a.84.84 0 0 1 .198 0c.021.003.041.01.061.018ZM115.401 85.922a1.946 1.946 0 0 1-.505.049 1.873 1.873 0 0 1-.503-.043c0-.012.225 0 .503 0s.503-.018.505-.006Z" fill="#263238"/><path d="M116.075 85.916s-.017.047-.041.098c-.024.05-.036.098-.048.096-.011-.002-.017-.053.01-.114.028-.06.071-.09.079-.08ZM116.33 85.6s-.014.043-.05.078c-.035.036-.071.06-.08.051-.01-.007.013-.043.049-.08.035-.037.071-.059.081-.049ZM116.693 85.457c0 .012-.047.012-.098.03-.052.017-.087.044-.097.037-.01-.008.02-.055.083-.077.063-.021.116-.002.112.01ZM116.951 85.386c0 .012-.014.03-.044.04-.029.01-.055.011-.059 0-.004-.012.016-.03.044-.04.027-.01.055-.01.059 0Z" fill="#263238"/><path d="m121.733 85.135-.13-.288 3.1-1.546.546 1.176-.197.1c-.847.437-4.329 2.166-4.989 2.252-.728.104 1.67-1.694 1.67-1.694Z" fill="#455A64"/><path d="m125.262 84.39-.052.032-.152.078-.56.283a62.053 62.053 0 0 1-3.769 1.701l-.582.233-.158.06a.23.23 0 0 1-.057.019l.053-.026.156-.069.576-.244a95.52 95.52 0 0 0 3.769-1.702l.564-.268.156-.073.056-.023Z" fill="#263238"/><path d="M121.068 86.384a1.479 1.479 0 0 0-.231-.223 1.376 1.376 0 0 0-.294-.13.558.558 0 0 1 .525.353ZM121.781 85.499s-.075-.024-.154-.075-.136-.1-.13-.11c.005-.01.074.024.153.075.079.05.137.1.131.11ZM121.974 85.261c0 .01-.068 0-.144-.023-.077-.024-.135-.053-.133-.065.05-.005.1.004.146.024.075.017.135.045.131.064ZM122.001 84.883c0 .012-.065.053-.155.096a.422.422 0 0 1-.172.057c0-.012.065-.053.154-.096a.43.43 0 0 1 .173-.057ZM121.961 84.653s-.058.079-.16.136a.344.344 0 0 1-.197.058c.056-.037.116-.07.179-.096.097-.052.168-.107.178-.098Z" fill="#263238"/><path d="M121.556 85.278a.642.642 0 0 1-.197.09 1.558 1.558 0 0 1-.237.049.594.594 0 0 1-.146 0 .115.115 0 0 1-.079-.04.087.087 0 0 1 0-.093.405.405 0 0 1 .507-.099c.049.026.092.061.126.104.024.032.034.051.032.053a.598.598 0 0 0-.172-.131.397.397 0 0 0-.352.006.35.35 0 0 0-.104.086c-.021.037 0 .069.054.075.045.003.09.003.136 0 .078-.008.156-.022.233-.042.112-.031.199-.064.199-.058Z" fill="#263238"/><path d="M121.502 85.308a.218.218 0 0 1-.087-.13.379.379 0 0 1-.012-.17.232.232 0 0 1 .038-.105.228.228 0 0 1 .085-.073c.049-.016.164.084.172.121.007.038-.058.018-.062.05a.652.652 0 0 1-.039.162.306.306 0 0 1-.079.133s.024-.053.051-.14c.014-.053.024-.106.03-.16 0-.054 0-.139-.063-.125-.063.014-.081.09-.095.145a.337.337 0 0 0 0 .155.858.858 0 0 0 .061.137ZM124.806 83.566s-.094.034-.229.114a1.098 1.098 0 0 0-.412.435c-.091.182-.13.386-.112.588.011.157.049.247.041.251a.246.246 0 0 1-.03-.063 1.053 1.053 0 0 1 .063-.793 1.043 1.043 0 0 1 .61-.516.245.245 0 0 1 .069-.016ZM123.566 84.848a2.823 2.823 0 0 1-.918.416c0-.012.208-.09.46-.196.253-.106.452-.23.458-.22Z" fill="#263238"/><path d="M124.18 84.567c.01 0 0 .049 0 .106v.108c0 .003-.039-.044-.039-.108 0-.065.029-.112.039-.106ZM124.28 84.176c.01 0 0 .045-.012.092s-.041.082-.051.079c-.01-.004 0-.045.012-.093.012-.047.039-.082.051-.078ZM124.552 83.888c0 .011-.04.029-.079.066-.039.038-.061.077-.071.073-.01-.004 0-.059.043-.104.044-.045.105-.035.107-.035ZM124.76 83.729s0 .031-.024.053-.045.033-.053.025c-.008-.007 0-.031.023-.053.024-.021.046-.033.054-.025Z" fill="#263238"/><path d="m120.879 43.835-.576-6.997 2.96.053s.136-1.033-.3-3.295c-.269-1.387-1.198-2.238-2.242-2.744v-.02l-.091-.023a8.495 8.495 0 0 0-2.715-.704l-3.641.042s-2.78-.353-4.314 1.625c-.592.758-2.429 5.95-2.429 5.95l4.371 2.09-.408-2.88s.083 2.087.351 2.744c.148.369.592 1.513.592 1.513l-.057 3.454 8.499-.808Z" fill="#FD7E14"/><path d="m118.871 35.822-.541 2.285h5.097l-.335-3.834-4.221 1.549Z" fill="#FD7E14"/><path d="M123.428 38.108a4.106 4.106 0 0 0-.675-.066 26.474 26.474 0 0 0-1.634-.041c-.647.003-1.217.03-1.636.062a3.883 3.883 0 0 0-.672.082c.225.018.452.018.678 0a67.267 67.267 0 0 1 3.262-.022c.226.013.452.008.677-.015Z" fill="#263238"/><path d="M118.65 34.254a3.123 3.123 0 0 0-.016.588c0 .359.016.852.038 1.4.022.546.047 1.042.071 1.399.001.197.022.394.063.588.024-.195.03-.392.016-.588 0-.359-.016-.855-.038-1.402a51.706 51.706 0 0 0-.071-1.4c0-.196-.022-.392-.063-.585Z" fill="#263238"/><path d="M114.014 36.234s1.132 8.344 4.317 8.123c0 0 1.435-.016 1.895-.963v-.372l-6.212-6.788ZM118.651 34.746l-.61 4.09.395.718.651-1.403-.276-.008-.16-3.397Z" fill="#000" opacity=".3"/><path d="M112.419 41.192a.783.783 0 0 1-.087-.196 22.911 22.911 0 0 1-.197-.546 16.699 16.699 0 0 1-.488-1.853 13.054 13.054 0 0 1-.241-1.899c-.011-.245-.015-.443-.011-.588a.752.752 0 0 1 .013-.212c.016 0 .028.302.069.784.056.633.146 1.261.271 1.884.146.73.321 1.382.456 1.85l.159.557c.028.07.046.144.056.22ZM113.705 43.589c-.027 0-.106-.17-.175-.392a.926.926 0 0 1-.077-.431c.087.12.147.257.175.401a.968.968 0 0 1 .077.422ZM114.144 43.559a1.797 1.797 0 0 1-.018-1.223c.016.203.016.408 0 .611.022.204.028.408.018.612Z" fill="#263238"/><path d="M111.99 39.905c-.014.024-1.031-.454-2.272-1.07-1.241-.615-2.238-1.137-2.226-1.162.012-.026 1.03.455 2.272 1.07 1.241.615 2.237 1.137 2.226 1.162Z" fill="#263238"/><path d="M113.782 30.822c.022-.992.027-2.035.027-2.035s-1.28-.245-1.503-1.919c-.213-1.595.383-5.34.383-5.34 1.87-.702 3.814-.066 5.095 1.44l-.318 8.05c-.037.934-.876 1.648-1.882 1.6-1.019-.048-1.824-.852-1.802-1.797Z" fill="#B78876"/><path d="M112.59 24.52a.216.216 0 0 0 .28.213.205.205 0 0 0 .144-.187.214.214 0 0 0-.197-.22.197.197 0 0 0-.227.194ZM112.511 24.241c.026.028.198-.088.425-.08.227.008.394.125.422.098.028-.027-.012-.063-.085-.12a.594.594 0 0 0-.339-.111.558.558 0 0 0-.338.098c-.073.053-.098.102-.085.115ZM114.94 24.665a.212.212 0 0 0 .197.222.2.2 0 0 0 .21-.114.212.212 0 0 0 .017-.082.21.21 0 0 0-.197-.22.201.201 0 0 0-.159.045.19.19 0 0 0-.05.067.193.193 0 0 0-.018.082ZM114.925 24.386c.025.03.197-.087.424-.08.227.005.395.125.424.097.03-.027-.014-.062-.087-.117a.567.567 0 0 0-.337-.114.573.573 0 0 0-.339.098c-.072.053-.097.102-.085.116ZM114.04 26.07a1.515 1.515 0 0 0-.375-.077c-.06 0-.115-.022-.123-.061a.29.29 0 0 1 .044-.174l.185-.441c.173-.375.315-.763.425-1.16-.203.36-.375.735-.517 1.122l-.18.445a.345.345 0 0 0-.036.23.15.15 0 0 0 .095.09c.033.01.067.014.101.015.126.02.254.023.381.01Z" fill="#263238"/><path d="M113.809 28.785a4.297 4.297 0 0 0 2.261-.539s-.574 1.131-2.25.933l-.011-.394Z" fill="#A36957"/><path d="M115.666 23.718c-.047.072-.224.041-.422 0-.197-.041-.371-.075-.394-.159-.024-.084.183-.196.447-.143.265.053.417.24.369.302ZM113.363 23.384c-.018.085-.207.116-.425.126-.217.01-.408 0-.434-.087-.025-.086.158-.207.421-.219.262-.012.455.1.438.18Z" fill="#263238"/><path d="M114.043 26.62a.115.115 0 0 0-.128.059.136.136 0 0 0-.017.065.136.136 0 0 0 .067.113.134.134 0 0 0 .131 0 .136.136 0 0 0 .049-.048.135.135 0 0 0 .018-.065.136.136 0 0 0-.081-.124.135.135 0 0 0-.088-.006" fill="#A36957"/><path d="M114.098 26.644c0-.01-.038-.067-.138-.045a.178.178 0 0 0-.127.123.195.195 0 0 0 .07.208.2.2 0 0 0 .223 0 .168.168 0 0 0 .071-.163c-.02-.104-.097-.12-.101-.106-.004.014.028.05.022.11a.105.105 0 0 1-.015.042.086.086 0 0 1-.033.03.098.098 0 0 1-.05.014.098.098 0 0 1-.05-.013.101.101 0 0 1-.036-.096.087.087 0 0 1 .018-.043.094.094 0 0 1 .035-.03c.056-.033.105-.018.111-.031ZM117.018 24.933c-.197.459-.687.814-.62 1.31.044.319.251.617.211.938-.051.392-.471.682-.532 1.084-.073.492.41.874.602 1.333.282.67-.077 1.423-.087 2.156a2.29 2.29 0 0 0 .603 1.502c.377.411.892.673 1.449.736.45.038.957-.098 1.184-.482.197-.317.154-.721.268-1.072.174-.525.677-.91.79-1.45.197-.98-1.007-1.803-.928-2.807.034-.43.3-.802.413-1.217a1.784 1.784 0 0 0-.352-1.586c-.298-.35-.728-.588-.986-.964-.286-.433-.296-.98-.395-1.492a3.74 3.74 0 0 0-.84-1.68 3.807 3.807 0 0 0-5.171-.52s-.286 1.29 1.05 1.508c1.336.218 1.954-.033 2.104.498a1.394 1.394 0 0 0 .394 1.213c.545.585 1.064.46.843.992Z" fill="#263238"/><path d="M119.14 33.892a.484.484 0 0 1-.123-.012 1.954 1.954 0 0 1-.339-.092 2.411 2.411 0 0 1-1.034-.759 2.7 2.7 0 0 1-.438-.784 3.107 3.107 0 0 1-.18-1.005 4.146 4.146 0 0 1 .34-1.686c.081-.183.153-.371.215-.562a1.045 1.045 0 0 0 0-.576 3.168 3.168 0 0 0-.223-.538 3.448 3.448 0 0 1-.231-.53 1.131 1.131 0 0 1-.041-.563c.079-.369.303-.643.438-.923.127-.26.189-.547.177-.835a1.961 1.961 0 0 0-.44-1.157 3.517 3.517 0 0 0-.333-.323c.138.077.262.178.365.298.287.328.457.742.481 1.176.017.301-.043.601-.173.874-.137.29-.356.566-.423.904-.067.337.093.691.269 1.032.096.177.174.363.233.555.058.205.058.422 0 .627a6.363 6.363 0 0 1-.227.582 4.027 4.027 0 0 0-.342 1.646c-.006.629.198 1.241.58 1.741.256.337.596.602.987.767.294.113.464.131.462.143Z" fill="#455A64"/><path d="M118.943 24.002c-.096.025-.195.04-.294.044a3.083 3.083 0 0 1-.813-.022 1.554 1.554 0 0 1-1.026-.617 3.337 3.337 0 0 1-.269-.659 1.091 1.091 0 0 0-.45-.55c-.432-.273-.939-.306-1.381-.36a2.416 2.416 0 0 1-1.15-.356 1.127 1.127 0 0 1-.472-.653.66.66 0 0 1-.014-.221c0-.051.012-.077.016-.077a1.4 1.4 0 0 0 .037.288c.082.25.25.464.474.604a2.4 2.4 0 0 0 1.119.322c.442.05.967.076 1.429.366.226.141.398.353.489.602.062.222.147.438.255.643.229.313.574.524.959.588.26.048.525.065.789.053.101-.006.202-.004.302.005ZM118.453 22.408a.664.664 0 0 1-.231.033 1.413 1.413 0 0 1-.987-.392 1.787 1.787 0 0 1-.306-.406c-.177-.297-.349-.664-.718-.817a2.382 2.382 0 0 0-1.105-.096c-.313.044-.63.044-.943 0a1.185 1.185 0 0 1-.592-.259.642.642 0 0 1-.115-.129c-.023-.034-.033-.052-.029-.053 0 0 .055.063.169.151.169.12.365.195.571.22.307.034.617.029.923-.016.387-.063.784-.03 1.155.098.19.085.353.22.471.392.104.153.2.311.286.474.078.143.174.274.286.392.099.1.213.184.338.25.183.094.385.15.592.162.152-.002.233-.014.235-.004ZM119.727 33.47c-.01 0 .053-.129.126-.372.099-.341.143-.696.131-1.05a3.187 3.187 0 0 0-.421-1.496c-.144-.257-.363-.486-.542-.768a1.38 1.38 0 0 1-.198-.473 1.047 1.047 0 0 1 .044-.529c.11-.339.308-.623.351-.935.043-.312-.107-.588-.256-.849a4.171 4.171 0 0 1-.212-.392 1.456 1.456 0 0 1-.112-.41c-.019-.248-.011-.499.024-.746.063-.35.03-.71-.095-1.043a.948.948 0 0 0-.233-.305s.01 0 .024.011a.693.693 0 0 1 .246.278c.143.336.188.705.129 1.065a3.646 3.646 0 0 0-.01.731c.048.274.158.534.319.76.085.133.157.273.216.418a.98.98 0 0 1 .059.494c-.048.343-.251.633-.354.952a.98.98 0 0 0-.041.48c.034.156.097.305.186.438.167.272.394.505.538.774.265.472.406 1.002.411 1.542.006.362-.05.722-.166 1.065-.032.093-.07.183-.115.27a.35.35 0 0 1-.049.09Z" fill="#455A64"/><path d="M111.69 69.99s-1.33-12.513-1.407-17.136c-.077-4.624 2.094-9.187 2.094-9.187l8.501-.35s1.681 4.69 1.711 6.663c.059 3.83-1.024 7.611-.9 10.65l.284 9.368" fill="#263238"/><path d="M122.26 54.605a1.427 1.427 0 0 1-.14.106l-.077.053-.083.08a1.414 1.414 0 0 0-.198.21c-.274.334-.473.931-.665 1.674a5.56 5.56 0 0 1-.43 1.192 2.074 2.074 0 0 1-.197.296c-.036.047-.069.098-.111.143l-.13.13a2.107 2.107 0 0 1-.639.407c-.476.208-1.015.306-1.504.55a2.356 2.356 0 0 0-1.091 1.236c-.241.53-.395 1.087-.592 1.609-.197.521-.464 1.019-.888 1.336a2.45 2.45 0 0 1-1.381.434c-.458.027-.883.013-1.263.07a2.006 2.006 0 0 0-.952.357 1.33 1.33 0 0 0-.442.62.933.933 0 0 0-.033.48c.024.11.053.162.047.164a.495.495 0 0 1-.067-.16.9.9 0 0 1 .016-.497c.078-.257.233-.484.444-.652.288-.216.628-.351.987-.392.394-.063.815-.055 1.266-.085.48-.003.947-.15 1.34-.423.399-.346.694-.795.851-1.297.197-.516.341-1.075.592-1.616a2.454 2.454 0 0 1 1.14-1.283c.51-.251 1.048-.347 1.512-.547.227-.093.436-.226.616-.392l.124-.124c.039-.043.073-.092.109-.137a1.89 1.89 0 0 0 .183-.284c.189-.375.335-.77.436-1.176.198-.74.413-1.346.703-1.682.057-.076.124-.146.197-.208.032-.027.059-.054.087-.076l.081-.05c.049-.025.1-.047.152-.066ZM122.311 48.816a.93.93 0 0 1 .012.167c0 .162-.02.323-.059.48a3.087 3.087 0 0 1-.961 1.474 5.72 5.72 0 0 1-.987.723c-.381.224-.801.437-1.233.68a6.36 6.36 0 0 0-1.259.88 4.835 4.835 0 0 0-.955 1.331c-.242.501-.518.985-.827 1.449a3.227 3.227 0 0 1-1.194 1.017 7.925 7.925 0 0 1-1.32.504c-.422.13-.817.245-1.16.392a4.44 4.44 0 0 0-.884.47 2.738 2.738 0 0 0-.555.508 2.516 2.516 0 0 0-.333.549.998.998 0 0 1 .055-.16c.065-.147.147-.287.247-.415.157-.202.343-.38.552-.529.277-.196.576-.36.89-.49.38-.154.768-.288 1.162-.402.448-.13.884-.3 1.303-.505a3.36 3.36 0 0 0 .621-.416c.195-.172.37-.365.521-.576.305-.461.578-.942.819-1.439.248-.505.582-.964.987-1.356.389-.348.82-.647 1.283-.89.434-.241.854-.45 1.235-.672a5.71 5.71 0 0 0 .987-.702c.453-.377.79-.873.971-1.433.05-.209.078-.423.082-.639ZM110.326 53.507a.953.953 0 0 1-.055-.155.927.927 0 0 1 .02-.47c.11-.392.547-.896 1.249-1.145.351-.12.748-.196 1.162-.298a2.193 2.193 0 0 0 1.609-1.19c.112-.228.21-.463.294-.703a7.658 7.658 0 0 1 .625-1.504c.3-.47.755-.82 1.287-.994.484-.156.978-.28 1.478-.372a4.913 4.913 0 0 0 1.284-.435c.344-.195.641-.463.869-.784a2.9 2.9 0 0 0 .552-1.588c.001-.21-.013-.419-.041-.627.059.204.087.415.081.627a2.88 2.88 0 0 1-1.419 2.439c-.411.21-.85.363-1.304.452-.496.094-.985.219-1.465.375-.51.166-.947.503-1.235.954a7.723 7.723 0 0 0-.618 1.482 6 6 0 0 1-.302.715 2.542 2.542 0 0 1-.442.608 2.569 2.569 0 0 1-1.233.617c-.418.106-.813.173-1.158.287-.685.23-1.119.707-1.236 1.087a1 1 0 0 0-.037.455.95.95 0 0 1 .035.167ZM121.58 64.094c.008.04.012.082.014.123a1.31 1.31 0 0 1-.038.353 2 2 0 0 1-.746 1.058c-.24.19-.506.346-.789.463-.302.127-.636.23-.987.337a8.202 8.202 0 0 0-1.067.392c-.36.17-.683.41-.95.704-.288.298-.536.625-.813.915-.264.281-.571.52-.909.706a4.032 4.032 0 0 1-1.877.486 3.76 3.76 0 0 1-1.29-.214 2.478 2.478 0 0 1-.437-.2.85.85 0 0 1 .117.041c.108.046.219.087.331.122a3.978 3.978 0 0 0 3.11-.318c.328-.184.626-.418.882-.691.271-.287.517-.612.811-.918a3.172 3.172 0 0 1 1.003-.725 8.163 8.163 0 0 1 1.083-.392c.348-.106.679-.196.987-.325.275-.112.534-.26.77-.441.353-.248.617-.603.751-1.012.029-.153.044-.308.044-.464Z" fill="#FAFAFA"/><path d="m120.612 38.115-1.646.039c-.063.33-.189.644-.371.927-1.381-2.372-2.441-5.547-2.705-6.823.039-.127.085-.268.142-.425a1.787 1.787 0 0 0-.022-.717c-.047-.285-.126-.667-.15-.843-.073-.541-.161-.625-.351-.565-.256.085.107 1.515-.104 1.547-.115.015-.253-.475-.292-.876-.04-.402-.225-1.64-.358-1.723-.197-.122-.369.07-.317.47.051.4.112 1.615-.101 1.633-.213.017-.395-2.037-.395-2.037s.034-.447-.215-.437c-.446.02-.096 2.184-.059 2.39.028.14-.197.168-.225.013-.028-.155-.13-2.052-.592-2.036-.351 0 .27 1.781.073 2.193-.197.412-.331-1.395-.665-1.372-.124.01-.217.033.012 1.055.219.81.483 1.61.789 2.393.529 2.832 2.85 11.893 6.487 10.235 2.036-.93 2.861-5.041 2.861-5.041h-1.796Z" fill="#B78876"/><path d="M113.596 30.81a.1.1 0 0 0 .048 0 .104.104 0 0 0 .057-.044.103.103 0 0 0 .016-.07c0-.122-.024-.298-.052-.527a7.547 7.547 0 0 1-.091-.835c0-.165 0-.341.01-.528a1.91 1.91 0 0 1 .03-.282c.016-.088.075-.196.144-.178h.012c.069 0 .124.05.146.133a.751.751 0 0 1 .027.263c.041.549.112 1.095.212 1.636a2.105 2.105 0 0 0 .094.334c.01.02.022.04.034.058a.113.113 0 0 0 .035.036.114.114 0 0 0 .048.015.146.146 0 0 0 .124-.104.557.557 0 0 0 .038-.12c.015-.078.026-.158.031-.238a6.969 6.969 0 0 0-.014-.98 2.188 2.188 0 0 1-.019-.492.272.272 0 0 1 .096-.183.107.107 0 0 1 .085-.01c.017.005.033.011.048.02a.06.06 0 0 1 .021.03c.062.159.108.323.136.492a15.349 15.349 0 0 1 .168 1.07c.017.188.047.375.091.558.023.094.053.187.089.277a.51.51 0 0 0 .083.139c.013.017.031.03.052.038.02.008.042.01.064.005a.12.12 0 0 0 .081-.088.982.982 0 0 0 .022-.306c0-.098-.012-.196-.022-.29-.014-.165-.03-.327-.036-.488a1.877 1.877 0 0 1 0-.237.398.398 0 0 1 .026-.102c.004-.01.01-.02.018-.03h.025c.131-.052.174.128.21.273.035.145.049.31.081.464.051.308.118.616.151.91.023.14.018.285-.015.423-.048.141-.095.28-.14.42v.025c.231.963.525 1.91.882 2.834.311.837.625 1.568.9 2.156.274.588.522 1.049.692 1.359l.197.35a.744.744 0 0 0 .077.118.74.74 0 0 0-.061-.125l-.197-.36a29.744 29.744 0 0 1-1.539-3.528 23.262 23.262 0 0 1-.865-2.825v.027c.046-.137.091-.276.139-.415.041-.153.049-.313.023-.469-.035-.308-.1-.606-.152-.915-.029-.153-.049-.31-.081-.47a.872.872 0 0 0-.041-.244.234.234 0 0 0-.109-.11.249.249 0 0 0-.155 0h-.032a.122.122 0 0 0-.045.026.18.18 0 0 0-.05.069.439.439 0 0 0-.033.133c-.006.085-.006.17 0 .255 0 .164.023.329.037.494 0 .096.016.196.02.284a.94.94 0 0 1-.014.264c0 .02-.016.016 0 .026l-.012-.012a.393.393 0 0 1-.059-.106 1.984 1.984 0 0 1-.085-.26 3.693 3.693 0 0 1-.089-.543 9.732 9.732 0 0 0-.077-.547c-.027-.18-.059-.357-.094-.533-.03-.18-.08-.355-.15-.524a.174.174 0 0 0-.061-.068.355.355 0 0 0-.073-.032.223.223 0 0 0-.168.024.362.362 0 0 0-.146.255.93.93 0 0 0 0 .268c0 .085.02.167.025.25.028.32.034.642.018.964a1.582 1.582 0 0 1-.029.227.45.45 0 0 1-.03.102.104.104 0 0 1-.022.035c0 .018-.014 0-.012.024v-.026a.566.566 0 0 1-.023-.041c-.014-.031-.026-.067-.038-.1-.021-.07-.037-.143-.053-.214a15.56 15.56 0 0 1-.223-1.622.825.825 0 0 0-.034-.293.274.274 0 0 0-.076-.129.2.2 0 0 0-.147-.055h.012a.17.17 0 0 0-.171.08.424.424 0 0 0-.06.154 2.068 2.068 0 0 0-.027.293v.534c.019.281.055.561.108.838.034.228.06.404.071.524a.09.09 0 0 1-.057.102.309.309 0 0 0-.075.01Z" fill="#A36957"/><path d="M100.744 40.813a4.25 4.25 0 0 0-1.142.132c-1.02.266-2.779 1.325-2.852 2.632h1.279s-.717 1.513-.507 1.372c.546-.364 1.631-1.46 1.631-1.46l1.591-2.675Z" fill="#B78876"/><path d="M118.174 18.032c-.029 0-.144-1.047-.258-2.352-.115-1.305-.186-2.352-.158-2.352.028 0 .144 1.047.258 2.352.115 1.305.186 2.352.158 2.352ZM123.781 13.41c.022.016-.841 1.26-1.928 2.78-1.087 1.519-1.989 2.744-2.013 2.72-.023-.023.841-1.26 1.928-2.78 1.088-1.518 1.989-2.735 2.013-2.72ZM126.109 19.05c0 .027-1.003.256-2.25.511s-2.265.44-2.271.412c-.006-.028 1-.257 2.25-.512 1.249-.255 2.257-.439 2.271-.411Z" fill="#263238"/><path d="m59.003 45.971-6.986 35.633-.908 4.665 46.571-.224c2.092-.01 3.947-1.854 4.616-4.594l8.26-33.64c.511-2.079-.61-4.243-2.196-4.24l-47.147.048c-1.026-.002-1.946.963-2.21 2.352Z" fill="#FD7E14"/><path d="m59.003 45.971-6.986 35.633-.908 4.665 46.571-.224c2.092-.01 3.947-1.854 4.616-4.594l8.26-33.64c.511-2.079-.61-4.243-2.196-4.24l-47.147.048c-1.026-.002-1.946.963-2.21 2.352Z" fill="#000" opacity=".5"/><path d="m93.219 79.186-4.934-39.477c-.197-1.617-1.498-2.824-3.03-2.818l-10.815.033a2.977 2.977 0 0 0-2.137.94l-5.13 5.424-30.074.16c-1.837.01-3.25 1.74-3.007 3.68l4.58 36.485c.197 1.615 1.498 2.82 3.027 2.819l52.421-.104c5.838.12 6.396-1.592 6.396-1.592-6.701 1.472-7.297-5.54-7.297-5.55Z" fill="#FD7E14"/><g opacity=".5" fill="#fff"><path d="m70.615 71.293-1.768 1.885L55.23 61.011l1.768-1.886 13.616 12.168Z"/><path d="m68.107 58.707 1.953 1.746-12.32 13.142-1.955-1.746 12.322-13.142Z"/></g><path d="M100.704 20.34a.357.357 0 0 1-.223-.32l-.079-1.818a.359.359 0 0 1 .132-.298.365.365 0 0 1 .32-.074 1.154 1.154 0 0 0 .892-.174 1.03 1.03 0 0 0 .459-.67 1.035 1.035 0 0 0-.221-.785 1.186 1.186 0 0 0-.777-.465 1.387 1.387 0 0 0-1.401.98.367.367 0 0 1-.45.24.369.369 0 0 1-.26-.435 2.11 2.11 0 0 1 .825-1.15c.4-.277.884-.409 1.371-.373a1.915 1.915 0 0 1 1.28.75 1.78 1.78 0 0 1 .361 1.347 1.754 1.754 0 0 1-.789 1.16c-.296.198-.642.31-.998.324l.061 1.403a.366.366 0 0 1-.332.378.368.368 0 0 1-.181-.027l.01.008ZM101.244 21.088a.302.302 0 0 1-.34.318.304.304 0 0 1-.253-.219.302.302 0 0 1 .388-.363.297.297 0 0 1 .174.15.299.299 0 0 1 .031.114Z" fill="#FD7E14"/><path d="M94.364 17.777a.917.917 0 0 0 .017-.118c0-.086.022-.196.038-.35.02-.19.052-.38.097-.565.025-.11.039-.232.078-.355.04-.123.08-.257.123-.392.228-.67.561-1.3.987-1.868a6.597 6.597 0 0 1 2.073-1.791 6.54 6.54 0 0 1 1.463-.6 6.664 6.664 0 0 1 1.687-.22c.3-.004.6.011.898.047.152.016.302.055.454.08.153.027.305.064.453.11a6.344 6.344 0 0 1 1.755.79 6.565 6.565 0 0 1 2.609 3.254 6.37 6.37 0 0 1 .394 2.236 6.282 6.282 0 0 1-.412 2.301l-.089.224-.012.03.012.029c.495 1.13.987 2.242 1.45 3.318l.083-.094-2.96-1.127-.035-.014-.03.028a6.623 6.623 0 0 1-2.79 1.599 6.617 6.617 0 0 1-5.328-.821 6.724 6.724 0 0 1-1.664-1.539 6.485 6.485 0 0 1-1.263-3.007l-.06-.51c-.019-.148 0-.27-.01-.374-.01-.103 0-.172 0-.229a.04.04 0 0 0 .034-.042.04.04 0 0 0-.04-.036.04.04 0 0 0-.04.037.04.04 0 0 0 .034.041v.608c0 .149.033.32.053.513.065.472.178.935.337 1.384.226.593.53 1.153.904 1.666a6.786 6.786 0 0 0 1.675 1.568 6.687 6.687 0 0 0 5.409.859 6.718 6.718 0 0 0 2.826-1.616l-.065.014 2.96 1.133.148.057-.065-.151-1.449-3.318v.057l.091-.23c.288-.75.431-1.548.422-2.352a6.502 6.502 0 0 0-.394-2.285 6.677 6.677 0 0 0-4.466-4.118 3.136 3.136 0 0 0-.462-.108c-.154-.027-.305-.066-.459-.08a6.853 6.853 0 0 0-.91-.051 6.667 6.667 0 0 0-1.713.231 6.767 6.767 0 0 0-1.482.616 6.607 6.607 0 0 0-2.086 1.832 6.685 6.685 0 0 0-.973 1.897c-.041.142-.08.277-.116.392a3.43 3.43 0 0 0-.075.36c-.042.186-.07.376-.083.567l-.026.353a.493.493 0 0 0-.007.13Z" fill="#263238"/></svg>