<svg width="149" height="149" viewBox="0 0 149 149" fill="none" xmlns="http://www.w3.org/2000/svg">
<path d="M17.3458 52.2083C23.8487 27.5971 27.1002 15.2914 36.7661 9.66593C46.4321 4.04042 58.7377 7.2919 83.3489 13.7949L96.7909 17.3466C121.402 23.8496 133.708 27.101 139.333 36.767C144.959 46.4329 141.707 58.7385 135.204 83.3497L131.653 96.7917C125.15 121.403 121.898 133.709 112.232 139.334C102.566 144.96 90.2606 141.708 65.6494 135.205L52.2074 131.653C27.5962 125.15 15.2906 121.899 9.66509 112.233C4.03958 102.567 7.29106 90.2615 13.794 65.6503L17.3458 52.2083Z" fill="#07D974"/>
<path fill-rule="evenodd" clip-rule="evenodd" d="M42.5388 41.9249C38.9864 45.5608 36.3172 50.078 34.9636 53.1038C34.6271 53.8559 33.7446 54.1929 32.9924 53.8564C32.2403 53.5199 31.9033 52.6374 32.2398 51.8852C33.7043 48.6117 36.5553 43.7794 40.4045 39.8396C44.2284 35.9257 49.2787 32.6558 55.1006 33.1037C55.9222 33.1669 56.5369 33.8841 56.4737 34.7056C56.4105 35.5272 55.6933 36.1419 54.8718 36.0788C50.3495 35.7309 46.1166 38.263 42.5388 41.9249Z" fill="black"/>
<path fill-rule="evenodd" clip-rule="evenodd" d="M92.2851 34.9873C92.3438 34.1654 93.0577 33.5467 93.8796 33.6054C99.026 33.973 110.066 38.2339 115.068 51.9897C115.35 52.7641 114.95 53.6201 114.176 53.9017C113.401 54.1833 112.545 53.7838 112.264 53.0094C107.717 40.507 97.8037 36.8772 93.667 36.5817C92.8451 36.523 92.2264 35.8092 92.2851 34.9873Z" fill="black"/>
<path d="M72.3893 76.8681C59.2603 70.9003 44.0425 75.7077 38.0747 78.8573C35.5881 70.2372 35.0908 51.0077 53.9887 50.5104C72.7867 50.0157 74.0471 67.2533 72.3893 76.8681Z" fill="white"/>
<path fill-rule="evenodd" clip-rule="evenodd" d="M71.7691 59.4839C74.3419 65.1889 74.2173 72.1288 73.372 77.0317L73.1531 78.3013L71.9802 77.7681C65.6385 74.8856 58.7554 74.5906 52.6842 75.4237C46.6106 76.2571 41.4253 78.2095 38.5414 79.7316L37.4603 80.3021L37.1215 79.1276C35.8438 74.6984 35.061 67.5219 37.0688 61.3258C38.0789 58.2086 39.8081 55.3037 42.5704 53.1478C45.3377 50.988 49.0656 49.6397 53.965 49.5108C58.8195 49.383 62.623 50.3995 65.5541 52.2174C68.4859 54.0357 70.4737 56.6116 71.7691 59.4839ZM64.5056 53.9079C61.9652 52.3324 58.5619 51.3797 54.0174 51.4993C49.4679 51.619 46.1711 52.8609 43.7944 54.7159C41.4126 56.5748 39.8782 59.1092 38.9612 61.939C37.2769 67.1369 37.7191 73.2088 38.7274 77.416C41.9121 75.9079 46.8067 74.2222 52.4138 73.4529C58.3553 72.6376 65.1637 72.8425 71.6035 75.4426C72.2189 70.8775 72.097 65.0496 69.9557 60.3017C68.7935 57.7246 67.0452 55.483 64.5056 53.9079Z" fill="black"/>
<path d="M112.464 77.1862C99.8613 70.174 84.3039 73.7322 78.1005 76.3879C76.3207 67.5946 77.3835 48.3881 96.2596 49.424C115.036 50.4544 114.895 67.7374 112.464 77.1862Z" fill="white"/>
<path fill-rule="evenodd" clip-rule="evenodd" d="M113.248 59.808C115.35 65.7027 114.663 72.6096 113.423 77.4279L113.102 78.6756L111.977 78.0492C105.889 74.6621 99.0528 73.8102 92.9341 74.1485C86.8129 74.4869 81.4864 76.0127 78.4887 77.296L77.3649 77.7771L77.1224 76.579C76.2079 72.0608 76.0093 64.8445 78.5126 58.8315C79.772 55.8064 81.7309 53.0512 84.6589 51.1262C87.5922 49.1978 91.417 48.1561 96.3108 48.4247C101.16 48.6908 104.868 50.0122 107.642 52.0616C110.417 54.1116 112.19 56.8402 113.248 59.808ZM106.46 53.6616C104.056 51.8854 100.741 50.6601 96.2018 50.4109C91.6576 50.1616 88.271 51.1322 85.7517 52.7884C83.2272 54.4481 81.4924 56.8499 80.3491 59.5961C78.249 64.6404 78.1977 70.7281 78.8617 75.0032C82.1581 73.7582 87.1733 72.4747 92.8243 72.1623C98.8123 71.8313 105.582 72.5873 111.79 75.7008C112.773 71.2005 113.124 65.3819 111.374 60.4761C110.425 57.8133 108.864 55.4374 106.46 53.6616Z" fill="black"/>
<path d="M51.998 69.9053C51.998 73.2012 49.3262 75.873 46.0303 75.873C42.7344 75.873 40.0625 73.2012 40.0625 69.9053C40.0625 66.6094 42.7344 63.9375 46.0303 63.9375C49.3262 63.9375 51.998 66.6094 51.998 69.9053Z" fill="black"/>
<path d="M92.2251 68.8608C91.958 72.1458 89.0784 74.5924 85.7933 74.3252C82.5082 74.0581 80.0617 71.1785 80.3288 67.8934C80.596 64.6084 83.4756 62.1619 86.7606 62.429C90.0457 62.6961 92.4922 65.5757 92.2251 68.8608Z" fill="black"/>
<path d="M45.0332 71.8955C45.0332 72.9941 44.1426 73.8848 43.0439 73.8848C41.9453 73.8848 41.0547 72.9941 41.0547 71.8955C41.0547 70.7969 41.9453 69.9062 43.0439 69.9062C44.1426 69.9062 45.0332 70.7969 45.0332 71.8955Z" fill="white"/>
<path d="M85.9683 70.2192C85.8792 71.3142 84.9194 72.1297 83.8243 72.0407C82.7293 71.9517 81.9138 70.9918 82.0028 69.8968C82.0919 68.8018 83.0518 67.9862 84.1468 68.0753C85.2418 68.1643 86.0573 69.1242 85.9683 70.2192Z" fill="white"/>
<path fill-rule="evenodd" clip-rule="evenodd" d="M105.955 95.4255C106.414 96.1093 106.233 97.0363 105.549 97.496C80.579 114.279 54.2535 104.478 44.1876 97.4829C43.5109 97.0127 43.3436 96.083 43.8138 95.4063C44.284 94.7297 45.2137 94.5623 45.8903 95.0326C55.3854 101.631 80.3164 110.86 103.884 95.0195C104.568 94.5598 105.495 94.7416 105.955 95.4255Z" fill="black"/>
<path fill-rule="evenodd" clip-rule="evenodd" d="M43.7546 94.2247C42.3041 95.4548 41.3953 97.2554 41.0194 98.5334C40.8644 99.0604 40.3115 99.362 39.7845 99.207C39.2576 99.052 38.956 98.4991 39.111 97.9721C39.564 96.432 40.6444 94.2541 42.4679 92.7076C44.3458 91.1149 46.9835 90.2273 50.326 91.3414C50.8471 91.5151 51.1288 92.0784 50.9551 92.5996C50.7814 93.1207 50.2181 93.4023 49.6969 93.2286C47.0717 92.3535 45.1507 93.0407 43.7546 94.2247Z" fill="black"/>
<path fill-rule="evenodd" clip-rule="evenodd" d="M99.7449 91.7108C99.7852 91.163 100.262 90.7515 100.81 90.7918C102.58 90.922 105.194 91.5536 107.293 93.0776C109.451 94.6433 111.053 97.1555 110.609 100.854C110.544 101.399 110.048 101.788 109.503 101.723C108.958 101.657 108.568 101.162 108.634 100.617C108.98 97.7345 107.785 95.8919 106.125 94.6875C104.408 93.4413 102.184 92.8874 100.664 92.7757C100.116 92.7354 99.7046 92.2586 99.7449 91.7108Z" fill="black"/>
</svg>
