<svg width="139" height="138" viewBox="0 0 139 138" fill="none" xmlns="http://www.w3.org/2000/svg">
<path d="M8.11359 70.6012C4.52451 45.3996 2.72997 32.7989 9.44535 23.8636C16.1607 14.9283 28.7635 13.1479 53.9691 9.58715L67.8981 7.61943C93.1037 4.05869 105.706 2.27832 114.652 9.00126C123.597 15.7242 125.392 28.325 128.981 53.5265L130.964 67.4533C134.553 92.6549 136.348 105.256 129.632 114.191C122.917 123.126 110.314 124.907 85.1086 128.467L71.1796 130.435C45.9741 133.996 33.3713 135.776 24.4259 129.053C15.4806 122.33 13.6861 109.73 10.097 84.528L8.11359 70.6012Z" fill="url(#paint0_radial_4451_9298)"/>
<path fill-rule="evenodd" clip-rule="evenodd" d="M52.5335 31.3663C47.2961 33.4195 42.0233 36.9125 38.7788 39.5081C38.1345 40.0235 37.1944 39.9191 36.679 39.2748C36.1636 38.6305 36.268 37.6904 36.9123 37.1749C40.3076 34.4587 45.841 30.7807 51.443 28.5845C54.243 27.4868 57.1445 26.7254 59.8518 26.6889C62.579 26.6521 65.2023 27.3545 67.2545 29.2859C67.8553 29.8514 67.8839 30.7969 67.3184 31.3977C66.753 31.9985 65.8075 32.0272 65.2067 31.4617C63.8725 30.206 62.0845 29.6469 59.8921 29.6765C57.6797 29.7063 55.1533 30.3393 52.5335 31.3663Z" fill="black"/>
<path fill-rule="evenodd" clip-rule="evenodd" d="M89.6489 31.9993C86.4335 32.7108 83.4062 34.5411 81.6251 36.0124C80.989 36.5379 80.0474 36.4482 79.5219 35.8121C78.9964 35.176 79.0861 34.2343 79.7222 33.7088C81.759 32.0262 85.2055 29.9224 89.0033 29.0819C92.8508 28.2305 97.231 28.6586 100.687 32.3449C101.251 32.9468 101.221 33.8922 100.619 34.4565C100.017 35.0208 99.0714 34.9903 98.5071 34.3884C95.9872 31.7005 92.8147 31.2987 89.6489 31.9993Z" fill="black"/>
<path d="M71.2141 63.7399C71.2141 73.6409 63.1877 81.6672 53.2867 81.6672C43.3857 81.6672 35.3594 73.6409 35.3594 63.7399C35.3594 53.8389 43.3857 45.8125 53.2867 45.8125C63.1877 45.8125 71.2141 53.8389 71.2141 63.7399Z" fill="white"/>
<path fill-rule="evenodd" clip-rule="evenodd" d="M53.2867 79.6753C62.0876 79.6753 69.2222 72.5408 69.2222 63.7399C69.2222 54.939 62.0876 47.8044 53.2867 47.8044C44.4858 47.8044 37.3513 54.939 37.3513 63.7399C37.3513 72.5408 44.4858 79.6753 53.2867 79.6753ZM53.2867 81.6672C63.1877 81.6672 71.2141 73.6409 71.2141 63.7399C71.2141 53.8389 63.1877 45.8125 53.2867 45.8125C43.3857 45.8125 35.3594 53.8389 35.3594 63.7399C35.3594 73.6409 43.3857 81.6672 53.2867 81.6672Z" fill="black"/>
<path d="M107.066 63.7399C107.066 73.6409 99.0393 81.6672 89.1383 81.6672C79.2373 81.6672 71.2109 73.6409 71.2109 63.7399C71.2109 53.8389 79.2373 45.8125 89.1383 45.8125C99.0393 45.8125 107.066 53.8389 107.066 63.7399Z" fill="white"/>
<path fill-rule="evenodd" clip-rule="evenodd" d="M89.1383 79.6753C97.9392 79.6753 105.074 72.5408 105.074 63.7399C105.074 54.939 97.9392 47.8044 89.1383 47.8044C80.3374 47.8044 73.2029 54.939 73.2029 63.7399C73.2029 72.5408 80.3374 79.6753 89.1383 79.6753ZM89.1383 81.6672C99.0393 81.6672 107.066 73.6409 107.066 63.7399C107.066 53.8389 99.0393 45.8125 89.1383 45.8125C79.2373 45.8125 71.2109 53.8389 71.2109 63.7399C71.2109 73.6409 79.2373 81.6672 89.1383 81.6672Z" fill="black"/>
<path d="M54.2794 55.7764C54.2794 59.6268 51.1581 62.7482 47.3077 62.7482C43.4573 62.7482 40.3359 59.6268 40.3359 55.7764C40.3359 51.926 43.4573 48.8047 47.3077 48.8047C51.1581 48.8047 54.2794 51.926 54.2794 55.7764Z" fill="black"/>
<path fill-rule="evenodd" clip-rule="evenodd" d="M47.3077 60.7563C50.058 60.7563 52.2875 58.5267 52.2875 55.7764C52.2875 53.0262 50.058 50.7966 47.3077 50.7966C44.5574 50.7966 42.3279 53.0262 42.3279 55.7764C42.3279 58.5267 44.5574 60.7563 47.3077 60.7563ZM47.3077 62.7482C51.1581 62.7482 54.2794 59.6268 54.2794 55.7764C54.2794 51.926 51.1581 48.8047 47.3077 48.8047C43.4573 48.8047 40.3359 51.926 40.3359 55.7764C40.3359 59.6268 43.4573 62.7482 47.3077 62.7482Z" fill="black"/>
<path d="M90.1388 55.7764C90.1388 59.6268 87.0175 62.7482 83.1671 62.7482C79.3167 62.7482 76.1953 59.6268 76.1953 55.7764C76.1953 51.926 79.3167 48.8047 83.1671 48.8047C87.0175 48.8047 90.1388 51.926 90.1388 55.7764Z" fill="black"/>
<path fill-rule="evenodd" clip-rule="evenodd" d="M83.1671 60.7563C85.9173 60.7563 88.1469 58.5267 88.1469 55.7764C88.1469 53.0262 85.9173 50.7966 83.1671 50.7966C80.4168 50.7966 78.1872 53.0262 78.1872 55.7764C78.1872 58.5267 80.4168 60.7563 83.1671 60.7563ZM83.1671 62.7482C87.0175 62.7482 90.1388 59.6268 90.1388 55.7764C90.1388 51.926 87.0175 48.8047 83.1671 48.8047C79.3167 48.8047 76.1953 51.926 76.1953 55.7764C76.1953 59.6268 79.3167 62.7482 83.1671 62.7482Z" fill="black"/>
<path d="M49.3039 53.7848C49.3039 55.4349 47.9662 56.7727 46.316 56.7727C44.6659 56.7727 43.3281 55.4349 43.3281 53.7848C43.3281 52.1346 44.6659 50.7969 46.316 50.7969C47.9662 50.7969 49.3039 52.1346 49.3039 53.7848Z" fill="white"/>
<path d="M85.1555 53.7848C85.1555 55.4349 83.8177 56.7727 82.1676 56.7727C80.5174 56.7727 79.1797 55.4349 79.1797 53.7848C79.1797 52.1346 80.5174 50.7969 82.1676 50.7969C83.8177 50.7969 85.1555 52.1346 85.1555 53.7848Z" fill="white"/>
<path fill-rule="evenodd" clip-rule="evenodd" d="M71.3993 89.6611C62.9655 90.8493 54.7014 95.1735 49.6841 98.8151C49.0164 99.2997 48.0822 99.1513 47.5975 98.4836C47.1129 97.8158 47.2613 96.8816 47.929 96.397C53.2033 92.5689 61.9204 87.9792 70.9824 86.7024C80.1199 85.415 89.7746 87.5005 96.3578 97.2691C96.8189 97.9533 96.638 98.8818 95.9538 99.3429C95.2696 99.804 94.3411 99.6231 93.88 98.9389C88.1132 90.3818 79.7576 88.4834 71.3993 89.6611Z" fill="black"/>
<path fill-rule="evenodd" clip-rule="evenodd" d="M74.0721 95.7126C70.3249 96.2759 66.8074 97.7692 64.736 98.9642C64.2596 99.2391 63.6505 99.0757 63.3756 98.5992C63.1008 98.1228 63.2642 97.5137 63.7406 97.2388C65.9851 95.9439 69.7381 94.3498 73.776 93.7428C77.8042 93.1373 82.2866 93.4929 85.7816 96.3326C86.2085 96.6795 86.2734 97.3067 85.9266 97.7336C85.5797 98.1605 84.9524 98.2254 84.5255 97.8786C81.6463 95.5392 77.8291 95.1479 74.0721 95.7126Z" fill="black"/>
<path fill-rule="evenodd" clip-rule="evenodd" d="M38.9312 95.1213C39.479 95.1711 39.8827 95.6556 39.8329 96.2034C39.6788 97.8991 39.8946 100.461 40.9967 102.605C42.0664 104.685 43.97 106.394 47.3591 106.572C47.9084 106.601 48.3302 107.07 48.3013 107.619C48.2724 108.168 47.8037 108.59 47.2544 108.561C43.0742 108.341 40.579 106.149 39.2251 103.515C37.9037 100.945 37.6713 97.9792 37.8492 96.023C37.899 95.4752 38.3834 95.0715 38.9312 95.1213Z" fill="black"/>
<path d="M67.2308 67.7533C67.2308 71.8672 62.989 78.6781 53.5319 78.6781C44.0748 78.6781 39.3438 71.8672 39.3438 67.7533C39.3438 63.6395 44.0748 73.2157 53.5319 73.2157C62.989 73.2157 67.2308 63.6395 67.2308 67.7533Z" fill="#DFECF1"/>
<path d="M103.082 67.7533C103.082 71.8672 98.8405 78.6781 89.3834 78.6781C79.9263 78.6781 75.1953 71.8672 75.1953 67.7533C75.1953 63.6395 79.9263 73.2157 89.3834 73.2157C98.8405 73.2157 103.082 63.6395 103.082 67.7533Z" fill="#DFECF1"/>
<defs>
<radialGradient id="paint0_radial_4451_9298" cx="0" cy="0" r="1" gradientUnits="userSpaceOnUse" gradientTransform="translate(69.5389 69.0273) rotate(81.8947) scale(61.0336 61.0336)">
<stop stop-color="#FFDAA4"/>
<stop offset="1" stop-color="#FF9E0C"/>
</radialGradient>
</defs>
</svg>
