<svg width="20" height="16" fill="none" xmlns="http://www.w3.org/2000/svg"><path d="M13.908 12.226a.645.645 0 0 0-.078-.084l-.228-.267-.856-.975L8.49 6.023a.482.482 0 0 1-.078-.084l-.905-1.034-.856-.975-.439-.514-.023-.029-.052-.059L3.47.27a.65.65 0 1 0-.976.852l2.174 2.49C2.814 4.711 1.46 6.18.53 7.187c-.111.12-.212.234-.326.325l-.03.03-.028.035a.591.591 0 0 0-.094.156.65.65 0 0 0 .094.663l.029.036.03.03c.097.104.2.214.325.325 1.633 1.814 4.685 5.117 9.472 5.117 1.083 0 2.159-.175 3.186-.517l2.047 2.344a.65.65 0 1 0 .976-.852l-2.304-2.653Zm-3.905 1.063a5.291 5.291 0 0 1-4.728-2.905A5.278 5.278 0 0 1 5.75 4.86l.882 1.01a3.98 3.98 0 0 0 1.34 5.567 3.989 3.989 0 0 0 2.031.552c.57 0 1.133-.124 1.65-.364l.595.682.29.325a5.299 5.299 0 0 1-2.535.657Zm4.42-2.415-.04.052a.197.197 0 0 0 .04-.052Zm-1.605-3.817a.65.65 0 0 0 .065-.75 3.302 3.302 0 0 0-2.063-1.535 3.394 3.394 0 0 0-1.712 0l-.465-.533a3.889 3.889 0 0 1 1.36-.228c.053-.003.107-.003.16 0A3.992 3.992 0 0 1 13.996 8c0 .128-.007.256-.02.384a3.797 3.797 0 0 1-.442 1.472l-3.39-3.885a2.061 2.061 0 0 1 1.626.998.65.65 0 0 0 .892.228.57.57 0 0 0 .156-.14ZM19.997 8a.601.601 0 0 1 0 .13.905.905 0 0 1-.04.124.596.596 0 0 1-.094.156l-.03.035-.028.03-.297.325c-.86.973-1.801 1.87-2.814 2.682-.349.267-.712.516-1.087.744l-.87-.975-.302-.345a5.287 5.287 0 0 0-2.663-7.882 5.302 5.302 0 0 0-2.68-.225 4.97 4.97 0 0 0-1.35.435l-.6-.689a8.24 8.24 0 0 1 1.436-.325 9.738 9.738 0 0 1 1.425-.124c4.787 0 7.84 3.303 9.48 5.091.107.124.21.234.308.325.023.02.042.041.06.065.015.017.03.036.041.056v.016a.684.684 0 0 1 .082.208.588.588 0 0 1 .023.143Z" fill="#000" fill-opacity=".7"/></svg>