<svg width="16" height="16" viewBox="0 0 16 16" fill="none" xmlns="http://www.w3.org/2000/svg">
<path fill-rule="evenodd" clip-rule="evenodd" d="M9.06927 4.86927C9.06927 4.40705 8.66483 4.0026 8.2026 4.0026C7.74038 4.0026 7.33594 4.40705 7.33594 4.86927C7.33594 5.33149 7.6826 5.73594 8.2026 5.73594C8.7226 5.73594 9.06927 5.33149 9.06927 4.86927ZM7.22483 11.3359H9.44705C9.78038 11.3359 10.0026 11.1786 10.0026 10.864C10.0026 10.5494 9.78038 10.3397 9.44705 10.3397H9.0026C8.94705 10.3397 8.89149 10.2872 8.89149 10.2348V7.71796C8.89149 7.14118 8.39149 6.66927 7.78038 6.66927H7.22483C6.89149 6.66927 6.66927 6.87901 6.66927 7.19361C6.66927 7.50822 6.89149 7.71796 7.22483 7.71796H7.66927C7.72483 7.71796 7.78038 7.77039 7.78038 7.82283V10.1824C7.78038 10.2348 7.72483 10.2872 7.66927 10.2872H7.22483C6.89149 10.2872 6.66927 10.497 6.66927 10.8116C6.66927 11.1262 6.89149 11.3359 7.22483 11.3359ZM8.0026 1.33594C4.33594 1.33594 1.33594 4.33594 1.33594 8.0026C1.33594 11.6693 4.33594 14.6693 8.0026 14.6693C11.6693 14.6693 14.6693 11.6693 14.6693 8.0026C14.6693 4.33594 11.6693 1.33594 8.0026 1.33594Z" fill="#2D7738"/>
</svg>
