<svg width="151" height="16" fill="none" xmlns="http://www.w3.org/2000/svg"><g clip-path="url(#a)" fill="#FD7E14"><path d="M3.276 6.51c1.182 0 2.42-.068 3.603-.136.507 0 .957-.067 1.464-.067L14.76 5.9c2.59-.136 5.123-.34 7.713-.475 3.659-.271 7.318-.475 10.977-.746.845-.068 1.69-.068 2.534-.135 2.14-.136 4.278-.272 6.418-.34 2.139-.135 4.278-.27 6.418-.339.844-.067 1.689-.135 2.533-.135 3.378-.136 6.812-.272 10.19-.407 2.083-.068 4.166-.136 6.305-.271.844 0 1.633-.068 2.477-.068l9.852-.204c3.265-.067 6.474-.135 9.74-.203h8.95c3.322 0 6.588 0 9.909-.068h10.528c-5.067.068-10.19.136-15.257.271-2.139.068-4.222.068-6.362.136-.9 0-1.857 0-2.758.068-3.096.068-6.136.203-9.233.271-3.546.136-7.093.203-10.64.34-.62 0-1.182.067-1.801.067-1.915.136-3.772.203-5.687.339l-11.484.61c-.563 0-1.126.068-1.689.136-1.858.136-3.772.339-5.63.475-3.378.27-6.7.542-10.077.813-.9.068-1.858.204-2.758.272-2.14.203-4.28.407-6.418.678-2.703.271-5.461.542-8.163.814-3.772.406-7.6.813-11.372 1.22-.901.068-1.802.204-2.76.271L2.32 9.9c-.169 0-.338.136-.338.408 0 .203.17.406.338.406.62 0 1.182.068 1.802.068-.113.34-.17.543-.17.746 0 .746.507 1.424 1.183 1.424 4.673-.339 9.289-.746 13.962-1.017 4.053-.203 8.107-.475 12.16-.678 4.447-.271 8.951-.543 13.399-.746 1.407-.068 2.814-.135 4.222-.271.394 0 .788-.068 1.238-.068 7.206-.203 14.413-.475 21.619-.678 3.828-.136 7.712-.271 11.54-.34 1.408-.067 2.759-.067 4.166-.135l22.125-.407 9.458-.203c2.702-.068 5.405-.068 8.107-.204 2.252-.067 4.447-.203 6.699-.27 1.126-.069 2.252-.069 3.322-.136l7.6-.61c-.169.27-.169.677-.113.949.057.339.226.61.507.746.225.135.563.27.788.135.563-.271 1.126-.542 1.633-.814h-.056c.056 0 .056-.067.112-.067s.113-.068.113-.068h-.057c.282-.136.563-.271.901-.475.282-.136.619-.339.901-.475.338-.203.619-.406.957-.61.338-.203.563-.746.563-1.22 0-.272-.056-.475-.169-.746-.113-.272-.394-.61-.675-.679-.282-.067-.563-.135-.845-.135h-.169c-.169 0-.394 0-.563.068-.45.067-.844.135-1.295.135-.337 0-.675.068-1.069.068-.957.068-1.858.136-2.815.271-.225 0-.507.068-.732.068a.636.636 0 0 0 .169-.407c.056-.135.056-.271.056-.407 0-.068 0-.203.056-.27 0-.137 0-.272-.056-.34 0 0 .056 0 .056-.068.169-.135.338-.271.451-.542a1.59 1.59 0 0 0 .169-.746c0-.272-.057-.475-.169-.746-.056-.068-.113-.204-.169-.271-.169-.204-.338-.272-.507-.34A3.065 3.065 0 0 0 141.598 0h-18.409c-5.798 0-11.541.068-17.339.136-4.335.067-8.67.135-13.005.135-1.914 0-3.885.068-5.799.136-4.335.136-8.67.203-13.004.339-1.239 0-2.477.068-3.716.068-.732 0-1.407.068-2.14.068l-12.835.61c-1.295.068-2.59.136-3.94.203-.733 0-1.465.068-2.196.136-4.279.271-8.501.542-12.78.814-2.195.135-4.391.271-6.587.474-3.771.272-7.543.543-11.259.882-3.265.271-6.53.475-9.796.678-.506.068-1.013.068-1.576.136-.845.068-1.689.068-2.533.135-.732.272-1.52.272-2.252.272-.057-.272-.282-.475-.45-.407-.507 0-.958.068-1.464.135-.226.068-.45.204-.507.475-.056.34.113.678.338.746l.675.203c.225.068.394.068.62.068.563.068 1.07.068 1.632.068Zm131.736-2.17h2.083c.056.204.168.34.281.475-.281 0-.563.068-.788.068-.507 0-1.013.067-1.52.067-2.252.068-4.448.204-6.699.272-1.014.067-2.027.135-3.041.135-1.576 0-3.208.068-4.785.068l-10.921.204-21.225.406c-5.066.068-10.133.272-15.2.475-7.6.271-15.256.475-22.856.746-1.52.068-3.04.136-4.56.271-4.335.272-8.67.475-13.005.746-4.222.271-8.501.475-12.723.746-.394 0-.788.068-1.183.068 1.126-.136 2.309-.203 3.435-.34 3.997-.338 7.994-.745 11.99-1.084 1.408-.136 2.816-.271 4.167-.407.732-.068 1.464-.136 2.14-.136 4.222-.27 8.388-.61 12.554-.881.788-.068 1.632-.136 2.42-.204 1.182-.067 2.365-.135 3.49-.135l12.836-.61c.957-.068 1.915-.068 2.815-.136h.732c.676 0 1.351 0 1.97-.068 4.28-.136 8.614-.203 12.893-.34 1.97-.067 3.94-.135 5.91-.135l19.142-.203c6.643 0 13.173-.068 19.648-.068ZM11.71 16c.17 0 .308-.17.308-.381 0-.21-.138-.381-.308-.381-.17 0-.308.17-.308.381 0 .21.138.38.308.38Z"/></g><defs><clipPath id="a"><path fill="#fff" d="M0 0h151v16H0z"/></clipPath></defs></svg>