<svg width="20" height="20" fill="none" xmlns="http://www.w3.org/2000/svg"><g clip-path="url(#a)" stroke="#303030" stroke-width="1.5" stroke-linecap="round" stroke-linejoin="round"><path d="M14.167 9.167H5.834c-.92 0-1.667.746-1.667 1.666v5c0 .92.746 1.667 1.667 1.667h8.333c.92 0 1.667-.746 1.667-1.667v-5c0-.92-.746-1.666-1.667-1.666Z"/><path d="M10 14.167a.833.833 0 1 0 0-1.667.833.833 0 0 0 0 1.667ZM6.667 9.167V5.833a3.333 3.333 0 0 1 6.667 0v3.334"/></g><defs><clipPath id="a"><path fill="#fff" d="M0 0h20v20H0z"/></clipPath></defs></svg>