<svg width="18" height="16" viewBox="0 0 18 16" fill="none" xmlns="http://www.w3.org/2000/svg">
<path d="M7 3C7 2.46957 7.21071 1.96086 7.58579 1.58579C7.96086 1.21071 8.46957 1 9 1C9.53043 1 10.0391 1.21071 10.4142 1.58579C10.7893 1.96086 11 2.46957 11 3C12.1484 3.54303 13.1274 4.38833 13.8321 5.4453C14.5367 6.50227 14.9404 7.73107 15 9V12C15.0753 12.6217 15.2954 13.2171 15.6428 13.7381C15.9902 14.2592 16.4551 14.6914 17 15H1C1.54494 14.6914 2.00981 14.2592 2.35719 13.7381C2.70457 13.2171 2.92474 12.6217 3 12V9C3.05956 7.73107 3.4633 6.50227 4.16795 5.4453C4.8726 4.38833 5.85159 3.54303 7 3" stroke="#9A4D0C" stroke-width="1.5" stroke-linecap="round" stroke-linejoin="round"/>
</svg>
