<svg width="56" height="56" fill="none" xmlns="http://www.w3.org/2000/svg"><rect x="4" y="4" width="48" height="48" rx="24" fill="#FEB477"/><path d="M38 32.92v3a2.001 2.001 0 0 1-2.18 2 19.79 19.79 0 0 1-8.63-3.07 19.499 19.499 0 0 1-6-6 19.788 19.788 0 0 1-3.07-8.67A1.999 1.999 0 0 1 20.11 18h3a2 2 0 0 1 2 1.72c.127.96.361 1.903.7 2.81a2 2 0 0 1-.45 2.11l-1.27 1.27a16 16 0 0 0 6 6l1.27-1.27a1.999 1.999 0 0 1 2.11-.45c.907.339 1.85.573 2.81.7A2 2 0 0 1 38 32.92Z" stroke="#B1580E" stroke-width="2" stroke-linecap="round" stroke-linejoin="round"/><rect x="4" y="4" width="48" height="48" rx="24" stroke="#FFF2E8" stroke-width="8"/></svg>