<svg width="628" height="716" fill="none" xmlns="http://www.w3.org/2000/svg"><path d="M653.93 358.001c0 93.696-35.866 183.554-99.709 249.806C490.379 674.06 403.789 711.28 313.502 711.28S136.626 674.06 72.783 607.807c-63.842-66.252-99.709-156.11-99.709-249.806 0-93.695 35.867-183.553 99.71-249.805C136.625 41.943 223.214 4.723 313.501 4.723c90.287 0 176.877 37.22 240.719 103.473 63.843 66.252 99.709 156.11 99.709 249.805Z" fill="#fff"/><path d="M313.5 715.059c-45.197.05-89.96-9.152-131.726-27.078-41.767-17.926-79.716-44.225-111.675-77.391-31.96-33.166-57.302-72.548-74.576-115.89C-21.75 451.357-30.618 404.904-30.57 358c0-46.889 8.9-93.32 26.19-136.64 17.292-43.321 42.636-82.682 74.586-115.838 31.95-33.156 69.88-59.457 111.624-77.401C223.575 10.177 268.316.94 313.5.94c45.184 0 89.926 9.236 131.671 27.18 41.744 17.944 79.674 44.245 111.624 77.401 31.95 33.156 57.294 72.517 74.585 115.838 17.291 43.32 26.191 89.751 26.191 136.64 0 46.89-8.9 93.32-26.191 136.641-17.291 43.32-42.635 82.682-74.585 115.838-31.95 33.156-69.88 59.457-111.624 77.401-41.745 17.943-86.487 27.179-131.671 27.179Zm0-706.558c-64.919.077-128.438 19.585-182.941 56.186-54.503 36.601-97.676 88.74-124.34 150.165-19.548 44.99-29.607 93.796-29.504 143.148 0 45.897 8.711 91.345 25.636 133.748 16.925 42.403 41.733 80.931 73.006 113.385 31.274 32.454 68.401 58.198 109.261 75.762 40.861 17.564 84.655 26.604 128.882 26.604 44.228 0 88.022-9.04 128.883-26.604 40.86-17.564 77.987-43.308 109.261-75.762 31.273-32.454 56.081-70.982 73.006-113.385 16.925-42.403 25.636-87.851 25.636-133.748.103-49.352-9.956-98.158-29.504-143.148-26.665-61.425-69.837-113.564-124.34-150.165C441.939 28.087 378.42 8.577 313.5 8.5Z" fill="#093F68"/><path d="m105.878 252.651 77.84 11.113s84.944-26.952 93.94-26.952c8.997 0 46.952 47.704 46.952 47.704s168.867 135.853 174.84 147.231c5.974 11.378 0 48.233-38.974 40.975 0 0 0 28.501-15.991 32.66a56.974 56.974 0 0 1-29.14 0s-.947 22.075-19.924 27.253c-18.978 5.179-26.044-1.323-26.044-1.323s-11.219 30.921-32.2 24.684c-20.981-6.237-42.544-25.364-54.638-36.78-12.093-11.415-105.122-81.232-105.122-81.232l-113.573-8.165 42.034-177.168Z" fill="#FFC9B0"/><path d="M343.043 560.648a22.498 22.498 0 0 1-6.666-1.021c-16.063-4.763-34.349-17.048-55.949-37.8-10.927-10.546-94.705-73.332-103.956-80.325l-112.918-8.24a3.543 3.543 0 0 1-1.5-.464 3.684 3.684 0 0 1-1.175-1.074 3.853 3.853 0 0 1-.632-1.487 3.922 3.922 0 0 1 .029-1.625l41.961-176.866a3.783 3.783 0 0 1 1.487-2.247 3.544 3.544 0 0 1 2.557-.626l77.038 11.038c11.729-3.78 85.162-26.876 94.232-26.876 9.07 0 37.59 34.02 49.501 48.762 29.14 23.361 169.486 136.685 175.496 148.138 3.97 7.56 3.643 22.68-4.225 33.642-4.298 6.237-14.388 15.839-34.495 13.495-.728 8.807-4.006 28.199-18.54 31.979a61.824 61.824 0 0 1-26.736.945c-.878 6.142-3.43 11.895-7.353 16.583-3.924 4.688-9.056 8.114-14.793 9.877-12.822 3.477-20.836 2.003-25.206.264-3.461 7.598-12.859 23.928-28.157 23.928ZM68.399 426.231 178 434.207a3.772 3.772 0 0 1 1.894.718c3.643 2.835 93.431 70.119 105.633 81.535 20.726 19.731 38.1 31.487 53.035 35.91 17.52 5.216 27.719-22.113 27.828-22.378a3.813 3.813 0 0 1 .979-1.493 3.61 3.61 0 0 1 1.535-.851 3.52 3.52 0 0 1 1.757-.011 3.597 3.597 0 0 1 1.557.843s6.265 4.99 22.657.491c16.391-4.498 17.192-22.982 17.229-23.776a3.877 3.877 0 0 1 .457-1.644 3.729 3.729 0 0 1 1.109-1.266c.457-.328.98-.542 1.53-.627a3.52 3.52 0 0 1 1.639.135 54.666 54.666 0 0 0 26.991 0c10.927-2.797 13.222-21.886 13.259-28.992a3.91 3.91 0 0 1 .342-1.608c.227-.503.558-.948.969-1.303a3.589 3.589 0 0 1 1.391-.733 3.51 3.51 0 0 1 1.559-.061c14.243 2.646 25.097-.756 31.399-9.866 6.301-9.109 6.228-20.865 3.642-25.59-4.917-8.467-106.689-92.005-173.893-146.059a4.331 4.331 0 0 1-.582-.567c-17.302-21.735-39.121-45.625-44.22-46.343-6.083 0-60.175 16.443-92.811 26.8a3.512 3.512 0 0 1-1.567 0l-74.598-10.66-40.323 169.42Z" fill="#093F68"/><path d="M204.003 436.781c8.616-8.196 9.203-22.082 1.312-31.016-7.891-8.933-21.272-9.531-29.888-1.335l-28.033 26.666c-8.615 8.196-9.203 22.082-1.312 31.015 7.891 8.934 21.272 9.532 29.888 1.336l28.033-26.666Z" fill="#E28362"/><path d="M161.719 472.988a24.047 24.047 0 0 1-9.945-2.18 24.859 24.859 0 0 1-8.268-6.136c-4.442-5.033-6.777-11.692-6.49-18.511.287-6.819 3.172-13.241 8.02-17.853l28.084-26.687a24.816 24.816 0 0 1 8.289-5.976 24.012 24.012 0 0 1 9.898-2.054c3.4.026 6.759.777 9.867 2.207a24.845 24.845 0 0 1 8.203 6.105 25.95 25.95 0 0 1 5.179 8.99 26.652 26.652 0 0 1 1.3 10.388 26.507 26.507 0 0 1-2.796 10.065 25.57 25.57 0 0 1-6.429 8.075l-28.084 26.725c-4.577 4.402-10.588 6.846-16.828 6.842Zm-12.895-13.419c3.142 3.545 7.511 5.651 12.148 5.857 4.637.205 9.163-1.507 12.585-4.761l28.047-26.687a18.076 18.076 0 0 0 4.35-5.708 18.71 18.71 0 0 0 1.845-7.021 18.824 18.824 0 0 0-.956-7.209 18.345 18.345 0 0 0-3.604-6.243 17.58 17.58 0 0 0-5.675-4.276 16.944 16.944 0 0 0-13.737-.336 17.46 17.46 0 0 0-5.863 3.993l-28.083 26.725c-3.416 3.26-5.446 7.794-5.644 12.606-.198 4.812 1.452 9.509 4.587 13.06Z" fill="#093F68"/><path d="M244.772 459.093c8.616-8.196 9.204-22.082 1.313-31.015-7.891-8.934-21.273-9.532-29.889-1.336l-41.672 39.642c-8.616 8.196-9.204 22.082-1.313 31.015 7.891 8.934 21.272 9.532 29.888 1.336l41.673-39.642Z" fill="#E28362"/><path d="M188.892 508.294h-1.093c-4.9-.221-9.627-1.945-13.583-4.952-3.956-3.008-6.965-7.166-8.645-11.947a26.667 26.667 0 0 1-.794-14.918c1.162-4.945 3.71-9.421 7.323-12.863l41.706-39.652a24.733 24.733 0 0 1 8.28-5.785 23.99 23.99 0 0 1 9.808-1.924 24.02 24.02 0 0 1 9.743 2.25 24.827 24.827 0 0 1 8.096 6.058 25.911 25.911 0 0 1 5.135 8.883 26.608 26.608 0 0 1 1.339 10.264 26.46 26.46 0 0 1-2.674 9.98 25.546 25.546 0 0 1-6.252 8.074l-41.67 39.879c-4.569 4.319-10.539 6.695-16.719 6.653Zm41.634-83.538c-4.37-.002-8.582 1.697-11.802 4.762l-41.707 39.653c-2.546 2.42-4.346 5.568-5.173 9.047a18.827 18.827 0 0 0 .521 10.506c1.167 3.372 3.269 6.311 6.041 8.448a17.127 17.127 0 0 0 9.539 3.562 16.815 16.815 0 0 0 6.781-1.061 17.278 17.278 0 0 0 5.858-3.702l41.78-39.69c2.594-2.477 4.408-5.709 5.205-9.272a18.824 18.824 0 0 0-.74-10.704c-1.278-3.41-3.519-6.339-6.427-8.407a17.08 17.08 0 0 0-9.876-3.18v.038Z" fill="#093F68"/><path d="M317.944 515.149c8.521-8.302 8.95-22.194.958-31.03-7.993-8.835-21.38-9.268-29.902-.967l-41.216 40.152c-8.522 8.302-8.951 22.194-.958 31.03 7.992 8.835 21.38 9.268 29.901.967l41.217-40.152Z" fill="#E28362"/><path d="M262.289 565.03h-.801a23.94 23.94 0 0 1-9.43-2.251 24.725 24.725 0 0 1-7.872-5.838c-4.489-4.979-6.894-11.601-6.69-18.416.205-6.815 3.003-13.268 7.783-17.947l41.233-40.182c4.837-4.39 11.126-6.66 17.544-6.334 6.418.327 12.464 3.225 16.864 8.085 4.399 4.86 6.81 11.302 6.725 17.97-.086 6.668-2.662 13.041-7.185 17.777l-41.233 40.181c-4.584 4.477-10.644 6.965-16.938 6.955Zm41.197-84.029c-4.452-.005-8.738 1.752-11.984 4.914l-41.233 40.144c-3.378 3.308-5.355 7.87-5.498 12.688-.144 4.817 1.558 9.497 4.733 13.016 3.181 3.502 7.572 5.553 12.208 5.702 4.636.149 9.14-1.616 12.524-4.909l41.233-40.143c2.552-2.496 4.323-5.729 5.085-9.281a18.837 18.837 0 0 0-.812-10.642c-1.291-3.383-3.53-6.287-6.428-8.335a17.078 17.078 0 0 0-9.828-3.154Z" fill="#093F68"/><path d="M284.902 484.266c8.331-8.507 8.444-22.406.253-31.044-8.191-8.638-21.584-8.743-29.915-.236l-47.537 48.546c-8.331 8.507-8.444 22.406-.253 31.044 8.191 8.638 21.584 8.743 29.915.236l47.537-48.546Z" fill="#E28362"/><path d="M222.619 542.918h-.182a23.714 23.714 0 0 1-9.475-1.954 24.45 24.45 0 0 1-8.009-5.606c-4.602-4.866-7.155-11.427-7.101-18.244.055-6.817 2.713-13.334 7.392-18.119l47.535-48.574a24.838 24.838 0 0 1 8.097-5.883 24.05 24.05 0 0 1 9.667-2.135 24.041 24.041 0 0 1 9.704 1.952 24.787 24.787 0 0 1 8.198 5.729 25.867 25.867 0 0 1 5.393 8.597 26.62 26.62 0 0 1 1.729 10.099 26.548 26.548 0 0 1-2.208 9.998 25.728 25.728 0 0 1-5.794 8.309l-47.353 48.573a24.636 24.636 0 0 1-8.101 5.445 23.915 23.915 0 0 1-9.492 1.813Zm47.571-92.459c-4.605-.007-9.028 1.866-12.312 5.217l-47.352 48.573c-2.476 2.515-4.177 5.738-4.885 9.258a18.784 18.784 0 0 0 .908 10.513c1.3 3.333 3.525 6.191 6.392 8.21a17.05 17.05 0 0 0 9.714 3.128c4.636.001 9.091-1.869 12.421-5.216l47.571-48.573a18.197 18.197 0 0 0 3.835-5.859 18.733 18.733 0 0 0 1.381-6.935 18.737 18.737 0 0 0-1.283-6.956 18.207 18.207 0 0 0-3.751-5.917 17.306 17.306 0 0 0-5.644-4.014 16.788 16.788 0 0 0-6.704-1.429h-.291Z" fill="#093F68"/><path d="M541.487 243.051s-83.778 13.457-95.944 11.34c-12.166-2.116-91.973-40.37-109.894-46.607-17.921-6.237-51.978 9.563-67.969 23.436-15.99 13.873-60.939 63.655-54.965 93.744 5.974 30.089 42.981 10.357 71.976-29.03l40.067-11.34 164.75 137.667 43.965-5.141 8.014-174.069Z" fill="#E28362"/><path d="M489.505 426.04a3.559 3.559 0 0 1-2.295-.831L323.807 288.524l-37.008 10.546c-22.219 29.862-47.68 47.364-63.561 43.584-5.1-1.21-11.693-5.141-14.097-17.086-6.775-34.02 43.419-86.297 56.204-97.411 16.792-14.59 52.088-30.807 71.43-24.116 7.867 2.722 26.99 11.34 47.352 20.412 24.805 11.34 55.657 24.986 61.923 26.12 8.341 1.436 61.23-6.048 94.705-11.34a3.51 3.51 0 0 1 1.61.097 3.61 3.61 0 0 1 1.413.81c.401.374.716.836.924 1.353.208.516.303 1.074.278 1.633l-8.014 174.258a3.863 3.863 0 0 1-.921 2.536 3.602 3.602 0 0 1-2.321 1.244l-43.819 4.876h-.4Zm-164.86-145.454a3.558 3.558 0 0 1 2.295.832L490.597 418.48l39.376-4.611 7.649-166.32c-18.65 2.948-81.701 12.587-92.665 10.697-6.812-1.172-29.687-11.34-63.817-26.46-20.106-9.034-39.12-17.577-46.66-20.185-16.719-5.783-49.356 9.601-64.472 22.68-15.663 13.608-59.264 62.181-53.727 90.077 1.311 6.502 4.116 10.169 8.56 11.34 12.93 3.062 36.862-14.515 56.932-41.806a3.636 3.636 0 0 1 1.93-1.361l40.068-11.34c.266-.199.561-.352.874-.454v-.151ZM460.55 476.502a3.558 3.558 0 0 1-2.295-.832l-76.966-64.751a3.835 3.835 0 0 1-1.196-2.516 3.874 3.874 0 0 1 .805-2.679 3.608 3.608 0 0 1 2.363-1.365 3.54 3.54 0 0 1 2.618.701l76.966 64.714c.371.314.679.702.906 1.14a3.907 3.907 0 0 1 .276 2.886 3.83 3.83 0 0 1-.672 1.303 3.668 3.668 0 0 1-1.252 1.026 3.533 3.533 0 0 1-1.553.373ZM415.49 509.2a3.555 3.555 0 0 1-2.149-.718l-80.936-61.728a3.802 3.802 0 0 1-1.423-2.464 3.888 3.888 0 0 1 .658-2.79 3.62 3.62 0 0 1 2.366-1.496 3.544 3.544 0 0 1 2.697.664l80.936 61.69a3.783 3.783 0 0 1 1.328 1.892 3.92 3.92 0 0 1-.001 2.341 3.775 3.775 0 0 1-1.329 1.892 3.548 3.548 0 0 1-2.147.717ZM369.594 535.093a3.573 3.573 0 0 1-2.44-.983l-64.582-61.198a3.858 3.858 0 0 1-1.041-2.646c0-.99.374-1.94 1.041-2.646a3.59 3.59 0 0 1 2.523-1.214 3.561 3.561 0 0 1 2.613.987l64.473 61.16c.545.515.928 1.19 1.096 1.935a3.914 3.914 0 0 1-.154 2.239 3.76 3.76 0 0 1-1.349 1.753 3.559 3.559 0 0 1-2.07.651l-.11-.038Z" fill="#093F68"/><path d="M399.645 321.676c-33.256 0-75.108-32.508-77.184-34.02a3.731 3.731 0 0 1-.949-1.099 3.908 3.908 0 0 1-.394-2.864c.119-.48.327-.932.614-1.329a3.68 3.68 0 0 1 1.059-.985 3.547 3.547 0 0 1 1.34-.489 3.502 3.502 0 0 1 1.419.08c.464.123.899.34 1.282.638.583.453 57.551 44.717 87.129 29.521a3.52 3.52 0 0 1 2.733-.129 3.69 3.69 0 0 1 2.048 1.881c.422.88.497 1.895.209 2.831a3.749 3.749 0 0 1-1.749 2.184 37.822 37.822 0 0 1-17.557 3.78Z" fill="#093F68"/><path d="m126.497 237.417-2.441 17.804L99.87 432.352l-2.076 15.12-116.014-9.715a368.732 368.732 0 0 1-8.706-79.758c-.056-49.878 10.1-99.2 29.796-144.698l123.627 24.116Z" fill="#68E1FD"/><path d="M97.792 451.292h-.291l-116.014-9.714a3.582 3.582 0 0 1-2.077-.909 3.805 3.805 0 0 1-1.165-2.002 374.063 374.063 0 0 1-8.815-80.665c-.098-50.418 10.172-100.278 30.124-146.248a3.726 3.726 0 0 1 1.635-1.822 3.524 3.524 0 0 1 2.372-.371l123.59 24.154a3.628 3.628 0 0 1 2.293 1.503c.55.789.785 1.767.657 2.731l-28.703 210.092a3.82 3.82 0 0 1-1.218 2.325 3.565 3.565 0 0 1-2.388.926Zm-112.917-17.048 109.93 9.224 27.683-202.986L5.163 217.575c-18.829 44.233-28.52 92.07-28.448 140.427a363.797 363.797 0 0 0 8.05 76.242h.11Z" fill="#093F68"/><path d="M46.653 424.149c8.489 0 15.371-7.141 15.371-15.951s-6.882-15.952-15.371-15.952c-8.49 0-15.372 7.142-15.372 15.952 0 8.81 6.882 15.951 15.372 15.951Z" fill="#093F68"/><path d="M46.65 427.893c-3.76 0-7.436-1.157-10.563-3.325-3.127-2.169-5.564-5.25-7.003-8.856a20.423 20.423 0 0 1-1.082-11.4c.734-3.828 2.545-7.344 5.204-10.103 2.659-2.76 6.047-4.639 9.735-5.4a18.363 18.363 0 0 1 10.986 1.123c3.474 1.493 6.444 4.022 8.533 7.267a20.266 20.266 0 0 1 3.205 10.962c0 2.592-.492 5.157-1.448 7.551a19.807 19.807 0 0 1-4.122 6.402 18.993 18.993 0 0 1-6.168 4.277 18.409 18.409 0 0 1-7.276 1.502Zm0-31.866c-2.32.001-4.59.715-6.52 2.054a12.093 12.093 0 0 0-4.319 5.469 12.6 12.6 0 0 0-.661 7.038 12.32 12.32 0 0 0 3.22 6.231 11.596 11.596 0 0 0 6.015 3.322c2.277.466 4.637.219 6.78-.708a11.84 11.84 0 0 0 5.255-4.499 12.506 12.506 0 0 0 1.96-6.773c-.01-3.221-1.25-6.307-3.449-8.582-2.198-2.274-5.176-3.552-8.28-3.552Z" fill="#093F68"/><path d="M653.93 358a368.741 368.741 0 0 1-8.706 79.796l-116.013 9.715-4.007-29.257-23.13-169.344-1.566-11.34 123.626-24.117c19.676 45.452 29.831 94.72 29.796 144.547Z" fill="#68E1FD"/><path d="M529.212 451.292a3.565 3.565 0 0 1-2.411-.914 3.817 3.817 0 0 1-1.232-2.337l-28.703-210.092a3.888 3.888 0 0 1 .657-2.731 3.63 3.63 0 0 1 2.294-1.503l123.59-24.154a3.522 3.522 0 0 1 2.371.371 3.723 3.723 0 0 1 1.635 1.822c19.965 45.967 30.247 95.827 30.16 146.248a374.081 374.081 0 0 1-8.96 80.627 3.808 3.808 0 0 1-1.165 2.003 3.574 3.574 0 0 1-2.077.908l-116.014 9.714-.145.038Zm-24.587-210.81 27.719 202.986 109.894-9.224a363.737 363.737 0 0 0 8.05-76.242c.106-48.349-9.547-96.185-28.338-140.427l-117.325 22.907Z" fill="#093F68"/><path d="M580.352 424.149c8.489 0 15.371-7.141 15.371-15.951s-6.882-15.952-15.371-15.952c-8.49 0-15.372 7.142-15.372 15.952 0 8.81 6.882 15.951 15.372 15.951Z" fill="#093F68"/><path d="M580.35 427.893a18.527 18.527 0 0 1-10.564-3.325c-3.127-2.169-5.564-5.25-7.003-8.856a20.43 20.43 0 0 1-1.082-11.4c.734-3.828 2.545-7.344 5.204-10.103 2.659-2.76 6.047-4.639 9.735-5.4a18.363 18.363 0 0 1 10.986 1.123c3.474 1.493 6.444 4.022 8.533 7.267a20.26 20.26 0 0 1 3.205 10.962c0 5.233-2.004 10.252-5.569 13.953-3.566 3.7-8.402 5.779-13.445 5.779Zm0-31.866a11.436 11.436 0 0 0-6.52 2.054 12.095 12.095 0 0 0-4.32 5.469 12.61 12.61 0 0 0-.661 7.038 12.322 12.322 0 0 0 3.22 6.231 11.6 11.6 0 0 0 6.015 3.322 11.33 11.33 0 0 0 6.78-.708 11.845 11.845 0 0 0 5.256-4.499 12.51 12.51 0 0 0 1.959-6.773c-.01-3.221-1.25-6.307-3.448-8.582-2.199-2.274-5.177-3.552-8.281-3.552Z" fill="#093F68"/></svg>