<svg width="628" height="716" viewBox="0 0 628 716" fill="none" xmlns="http://www.w3.org/2000/svg">
<path d="M653.93 358.001C653.93 451.697 618.064 541.555 554.221 607.807C490.379 674.06 403.789 711.28 313.502 711.28C223.215 711.28 136.626 674.06 72.7833 607.807C8.94065 541.555 -26.9258 451.697 -26.9258 358.001C-26.9258 264.306 8.94065 174.448 72.7833 108.196C136.626 41.943 223.215 4.72266 313.502 4.72266C403.789 4.72266 490.379 41.943 554.221 108.196C618.064 174.448 653.93 264.306 653.93 358.001Z" fill="white"/>
<path d="M313.5 715.059C268.303 715.109 223.54 705.907 181.774 687.981C140.007 670.055 102.058 643.756 70.0989 610.59C38.1395 577.424 12.7973 538.042 -4.47691 494.7C-21.7511 451.357 -30.618 404.904 -30.5701 358C-30.5701 311.111 -21.6705 264.68 -4.37931 221.36C12.9119 178.039 38.2559 138.678 70.2058 105.522C102.156 72.3656 140.086 46.0648 181.83 28.1209C223.575 10.177 268.316 0.941406 313.5 0.941406C358.684 0.941406 403.426 10.177 445.171 28.1209C486.915 46.0648 524.845 72.3656 556.795 105.522C588.745 138.678 614.089 178.039 631.38 221.36C648.671 264.68 657.571 311.111 657.571 358C657.571 404.89 648.671 451.32 631.38 494.641C614.089 537.961 588.745 577.323 556.795 610.479C524.845 643.635 486.915 669.936 445.171 687.88C403.426 705.823 358.684 715.059 313.5 715.059ZM313.5 8.50142C248.581 8.57793 185.062 28.0863 130.559 64.6869C76.0556 101.288 32.8833 153.427 6.21913 214.852C-13.3287 259.842 -23.388 308.648 -23.2851 358C-23.2851 403.897 -14.5739 449.345 2.35114 491.748C19.2762 534.151 44.0837 572.679 75.3571 605.133C106.631 637.587 143.758 663.331 184.618 680.895C225.479 698.459 269.273 707.499 313.5 707.499C357.728 707.499 401.522 698.459 442.383 680.895C483.243 663.331 520.37 637.587 551.644 605.133C582.917 572.679 607.725 534.151 624.65 491.748C641.575 449.345 650.286 403.897 650.286 358C650.389 308.648 640.33 259.842 620.782 214.852C594.117 153.427 550.945 101.288 496.442 64.6869C441.939 28.0863 378.42 8.57793 313.5 8.50142Z" fill="#093F68"/>
<path d="M105.878 252.651L183.718 263.764C183.718 263.764 268.662 236.812 277.658 236.812C286.655 236.812 324.61 284.516 324.61 284.516C324.61 284.516 493.477 420.369 499.45 431.747C505.424 443.125 499.45 479.98 460.476 472.722C460.476 472.722 460.476 501.223 444.485 505.382C434.924 507.908 424.906 507.908 415.345 505.382C415.345 505.382 414.398 527.457 395.421 532.635C376.443 537.814 369.377 531.312 369.377 531.312C369.377 531.312 358.158 562.233 337.177 555.996C316.196 549.759 294.633 530.632 282.539 519.216C270.446 507.801 177.417 437.984 177.417 437.984L63.8438 429.819L105.878 252.651Z" fill="#FFC9B0"/>
<path d="M343.043 560.648C340.785 560.645 338.54 560.301 336.377 559.627C320.314 554.864 302.028 542.579 280.428 521.827C269.501 511.281 185.723 448.495 176.472 441.502L63.554 433.262C63.0273 433.222 62.5152 433.064 62.0533 432.798C61.5913 432.533 61.1906 432.166 60.8787 431.724C60.5669 431.282 60.3514 430.774 60.2473 430.237C60.1432 429.7 60.1529 429.145 60.2757 428.612L102.237 251.746C102.446 250.831 102.976 250.03 103.724 249.499C104.471 248.968 105.383 248.745 106.281 248.873L183.319 259.911C195.048 256.131 268.481 233.035 277.551 233.035C286.621 233.035 315.141 267.055 327.052 281.797C356.192 305.158 496.538 418.482 502.548 429.935C506.518 437.495 506.191 452.615 498.323 463.577C494.025 469.814 483.935 479.416 463.828 477.072C463.1 485.879 459.822 505.271 445.288 509.051C436.539 511.314 427.429 511.636 418.552 509.996C417.674 516.138 415.122 521.891 411.199 526.579C407.275 531.267 402.143 534.693 396.406 536.456C383.584 539.933 375.57 538.459 371.2 536.72C367.739 544.318 358.341 560.648 343.043 560.648ZM68.3985 426.231L178.001 434.207C178.683 434.268 179.337 434.516 179.895 434.925C183.538 437.76 273.326 505.044 285.528 516.46C306.254 536.191 323.628 547.947 338.563 552.37C356.083 557.586 366.282 530.257 366.391 529.992C366.597 529.42 366.933 528.908 367.37 528.499C367.808 528.091 368.335 527.799 368.905 527.648C369.481 527.496 370.084 527.492 370.662 527.637C371.239 527.782 371.774 528.071 372.219 528.48C372.219 528.48 378.484 533.47 394.876 528.971C411.267 524.473 412.068 505.989 412.105 505.195C412.134 504.618 412.29 504.056 412.562 503.551C412.834 503.046 413.213 502.613 413.671 502.285C414.128 501.957 414.651 501.743 415.201 501.658C415.75 501.573 416.311 501.619 416.84 501.793C425.706 504.049 434.965 504.049 443.831 501.793C454.758 498.996 457.053 479.907 457.09 472.801C457.089 472.245 457.206 471.696 457.432 471.193C457.659 470.69 457.99 470.245 458.401 469.89C458.808 469.544 459.283 469.294 459.792 469.157C460.302 469.02 460.834 468.999 461.351 469.096C475.594 471.742 486.448 468.34 492.75 459.23C499.051 450.121 498.978 438.365 496.392 433.64C491.475 425.173 389.703 341.635 322.499 287.581C322.288 287.411 322.093 287.221 321.917 287.014C304.615 265.279 282.796 241.389 277.697 240.671C271.614 240.671 217.522 257.114 184.886 267.471C184.37 267.589 183.835 267.589 183.319 267.471L108.721 256.811L68.3985 426.231Z" fill="#093F68"/>
<path d="M204.003 436.781C212.619 428.585 213.206 414.699 205.315 405.765C197.424 396.832 184.043 396.234 175.427 404.43L147.394 431.096C138.779 439.292 138.191 453.178 146.082 462.111C153.973 471.045 167.354 471.643 175.97 463.447L204.003 436.781Z" fill="#E28362"/>
<path d="M161.719 472.988C158.294 472.981 154.908 472.239 151.774 470.808C148.639 469.377 145.825 467.287 143.506 464.672C139.064 459.639 136.729 452.98 137.016 446.161C137.303 439.342 140.188 432.92 145.036 428.308L173.12 401.621C175.459 399.061 178.281 397.026 181.409 395.645C184.538 394.263 187.907 393.564 191.307 393.591C194.707 393.617 198.066 394.368 201.174 395.798C204.283 397.228 207.075 399.306 209.377 401.903C211.679 404.5 213.442 407.56 214.556 410.893C215.671 414.227 216.113 417.763 215.856 421.281C215.598 424.799 214.646 428.225 213.06 431.346C211.473 434.466 209.284 437.215 206.631 439.421L178.547 466.146C173.97 470.548 167.959 472.992 161.719 472.988ZM148.824 459.569C151.966 463.114 156.335 465.22 160.972 465.426C165.609 465.631 170.135 463.919 173.557 460.665L201.604 433.978C203.41 432.399 204.89 430.458 205.954 428.27C207.019 426.083 207.646 423.695 207.799 421.249C207.952 418.804 207.626 416.352 206.843 414.04C206.059 411.728 204.833 409.605 203.239 407.797C201.644 405.99 199.714 404.535 197.564 403.521C195.415 402.507 193.09 401.955 190.729 401.897C188.368 401.839 186.02 402.277 183.827 403.185C181.633 404.092 179.639 405.45 177.964 407.178L149.881 433.903C146.465 437.163 144.435 441.697 144.237 446.509C144.039 451.321 145.689 456.018 148.824 459.569Z" fill="#093F68"/>
<path d="M244.772 459.093C253.388 450.897 253.976 437.011 246.085 428.078C238.194 419.144 224.812 418.546 216.196 426.742L174.524 466.384C165.908 474.58 165.32 488.466 173.211 497.399C181.102 506.333 194.483 506.931 203.099 498.735L244.772 459.093Z" fill="#E28362"/>
<path d="M188.892 508.294H187.799C182.899 508.073 178.172 506.349 174.216 503.342C170.26 500.334 167.251 496.176 165.571 491.395C163.891 486.613 163.615 481.422 164.777 476.477C165.939 471.532 168.487 467.056 172.1 463.614L213.806 423.962C216.159 421.47 218.977 419.502 222.086 418.177C225.196 416.852 228.533 416.197 231.894 416.253C235.255 416.309 238.57 417.075 241.637 418.503C244.704 419.931 247.458 421.993 249.733 424.561C252.008 427.13 253.755 430.152 254.868 433.444C255.981 436.735 256.436 440.228 256.207 443.708C255.977 447.188 255.068 450.584 253.533 453.688C251.999 456.791 249.872 459.539 247.281 461.762L205.611 501.641C201.042 505.96 195.072 508.336 188.892 508.294ZM230.526 424.756C226.156 424.754 221.944 426.453 218.724 429.518L177.017 469.171C174.471 471.591 172.671 474.739 171.844 478.218C171.016 481.697 171.197 485.352 172.365 488.724C173.532 492.096 175.634 495.035 178.406 497.172C181.178 499.309 184.496 500.548 187.945 500.734C190.251 500.851 192.556 500.49 194.726 499.673C196.897 498.855 198.888 497.596 200.584 495.971L242.364 456.281C244.958 453.804 246.772 450.572 247.569 447.009C248.366 443.445 248.108 439.714 246.829 436.305C245.551 432.895 243.31 429.966 240.402 427.898C237.493 425.831 234.051 424.723 230.526 424.718V424.756Z" fill="#093F68"/>
<path d="M317.944 515.149C326.465 506.847 326.894 492.955 318.902 484.119C310.909 475.284 297.522 474.851 289 483.152L247.784 523.304C239.262 531.606 238.833 545.498 246.826 554.334C254.818 563.169 268.206 563.602 276.727 555.301L317.944 515.149Z" fill="#E28362"/>
<path d="M262.289 565.03H261.488C258.232 564.933 255.027 564.167 252.058 562.779C249.089 561.391 246.413 559.407 244.186 556.941C239.697 551.962 237.292 545.34 237.496 538.525C237.701 531.71 240.499 525.257 245.279 520.578L286.512 480.396C291.349 476.006 297.638 473.736 304.056 474.062C310.474 474.389 316.52 477.287 320.92 482.147C325.319 487.007 327.73 493.449 327.645 500.117C327.559 506.785 324.983 513.158 320.46 517.894L279.227 558.075C274.643 562.552 268.583 565.04 262.289 565.03ZM303.486 481.001C299.034 480.996 294.748 482.753 291.502 485.915L250.269 526.059C246.891 529.367 244.914 533.929 244.771 538.747C244.627 543.564 246.329 548.244 249.504 551.763C252.685 555.265 257.076 557.316 261.712 557.465C266.348 557.614 270.852 555.849 274.236 552.556L315.469 512.413C318.021 509.917 319.792 506.684 320.554 503.132C321.315 499.58 321.032 495.873 319.742 492.49C318.451 489.107 316.212 486.203 313.314 484.155C310.416 482.107 306.992 481.008 303.486 481.001Z" fill="#093F68"/>
<path d="M284.902 484.266C293.233 475.759 293.346 461.86 285.155 453.222C276.964 444.584 263.571 444.479 255.24 452.986L207.703 501.532C199.372 510.039 199.259 523.938 207.45 532.576C215.641 541.214 229.034 541.319 237.365 532.812L284.902 484.266Z" fill="#E28362"/>
<path d="M222.619 542.918H222.437C219.185 542.926 215.964 542.262 212.962 540.964C209.96 539.666 207.237 537.76 204.953 535.358C200.351 530.492 197.798 523.931 197.852 517.114C197.907 510.297 200.565 503.78 205.244 498.995L252.779 450.421C255.07 447.917 257.824 445.916 260.876 444.538C263.927 443.161 267.215 442.435 270.543 442.403C273.871 442.372 277.171 443.036 280.247 444.355C283.322 445.675 286.11 447.623 288.445 450.084C290.78 452.545 292.614 455.469 293.838 458.681C295.061 461.893 295.649 465.327 295.567 468.78C295.485 472.232 294.734 475.633 293.359 478.778C291.984 481.923 290.014 484.749 287.565 487.087L240.212 535.66C237.883 538.01 235.13 539.86 232.111 541.105C229.093 542.351 225.867 542.967 222.619 542.918ZM270.19 450.459C265.585 450.452 261.162 452.325 257.878 455.676L210.526 504.249C208.05 506.764 206.349 509.987 205.641 513.507C204.933 517.027 205.249 520.686 206.549 524.02C207.849 527.353 210.074 530.211 212.941 532.23C215.809 534.248 219.19 535.337 222.655 535.358C227.291 535.359 231.746 533.489 235.076 530.142L282.647 481.569C284.284 479.896 285.587 477.905 286.482 475.71C287.377 473.515 287.846 471.158 287.863 468.775C287.88 466.391 287.444 464.028 286.58 461.819C285.717 459.61 284.442 457.6 282.829 455.902C281.224 454.188 279.305 452.823 277.185 451.888C275.064 450.954 272.785 450.468 270.481 450.459H270.19Z" fill="#093F68"/>
<path d="M541.487 243.051C541.487 243.051 457.709 256.508 445.543 254.391C433.377 252.275 353.57 214.021 335.649 207.784C317.728 201.547 283.671 217.347 267.68 231.22C251.69 245.093 206.741 294.875 212.715 324.964C218.689 355.053 255.696 335.321 284.691 295.934L324.758 284.594L489.508 422.261L533.473 417.12L541.487 243.051Z" fill="#E28362"/>
<path d="M489.505 426.04C488.67 426.044 487.86 425.75 487.21 425.209L323.807 288.524L286.799 299.07C264.58 328.932 239.119 346.434 223.238 342.654C218.138 341.444 211.545 337.513 209.141 325.568C202.366 291.548 252.56 239.271 265.345 228.157C282.137 213.567 317.433 197.35 336.775 204.041C344.642 206.763 363.765 215.381 384.127 224.453C408.932 235.793 439.784 249.439 446.05 250.573C454.391 252.009 507.28 244.525 540.755 239.233C541.292 239.14 541.842 239.173 542.365 239.33C542.889 239.487 543.371 239.764 543.778 240.14C544.179 240.514 544.494 240.976 544.702 241.493C544.91 242.009 545.005 242.567 544.98 243.126L536.966 417.384C536.972 418.319 536.643 419.222 536.045 419.92C535.446 420.618 534.62 421.061 533.724 421.164L489.905 426.04H489.505ZM324.645 280.586C325.479 280.582 326.289 280.876 326.94 281.418L490.597 418.48L529.973 413.869L537.622 247.549C518.972 250.497 455.921 260.136 444.957 258.246C438.145 257.074 415.27 246.906 381.14 231.786C361.034 222.752 342.02 214.209 334.48 211.601C317.761 205.818 285.124 221.202 270.008 234.281C254.345 247.889 210.744 296.462 216.281 324.358C217.592 330.86 220.397 334.527 224.841 335.698C237.771 338.76 261.703 321.183 281.773 293.892C282.255 293.231 282.933 292.752 283.703 292.531L323.771 281.191C324.037 280.992 324.332 280.839 324.645 280.737V280.586Z" fill="#093F68"/>
<path d="M460.55 476.502C459.716 476.506 458.906 476.212 458.255 475.67L381.289 410.919C380.594 410.27 380.166 409.37 380.093 408.403C380.02 407.436 380.308 406.476 380.898 405.724C381.488 404.971 382.333 404.482 383.261 404.359C384.188 404.235 385.125 404.486 385.879 405.06L462.845 469.774C463.216 470.088 463.524 470.476 463.751 470.914C463.978 471.353 464.119 471.833 464.166 472.329C464.214 472.824 464.166 473.324 464.027 473.8C463.888 474.276 463.659 474.719 463.355 475.103C463.016 475.537 462.588 475.887 462.103 476.129C461.618 476.371 461.088 476.498 460.55 476.502Z" fill="#093F68"/>
<path d="M415.49 509.2C414.718 509.203 413.966 508.951 413.341 508.482L332.405 446.754C331.636 446.159 331.125 445.274 330.982 444.29C330.839 443.307 331.075 442.304 331.64 441.5C332.208 440.697 333.058 440.159 334.006 440.004C334.954 439.848 335.923 440.087 336.703 440.668L417.639 502.358C418.263 502.827 418.728 503.49 418.967 504.25C419.205 505.011 419.205 505.831 418.966 506.591C418.727 507.352 418.262 508.014 417.637 508.483C417.013 508.952 416.261 509.203 415.49 509.2Z" fill="#093F68"/>
<path d="M369.594 535.093C368.692 535.09 367.822 534.74 367.154 534.11L302.572 472.912C301.905 472.205 301.531 471.255 301.531 470.266C301.531 469.276 301.905 468.326 302.572 467.62C303.226 466.885 304.133 466.448 305.095 466.406C306.058 466.363 306.997 466.718 307.708 467.393L372.181 528.553C372.726 529.068 373.109 529.743 373.277 530.488C373.445 531.233 373.392 532.014 373.123 532.727C372.855 533.439 372.384 534.051 371.774 534.48C371.163 534.909 370.441 535.136 369.704 535.131L369.594 535.093Z" fill="#093F68"/>
<path d="M399.645 321.676C366.389 321.676 324.537 289.168 322.461 287.656C322.078 287.358 321.756 286.985 321.512 286.557C321.268 286.13 321.108 285.658 321.041 285.166C320.973 284.675 320.999 284.174 321.118 283.693C321.237 283.213 321.445 282.761 321.732 282.364C322.019 281.966 322.379 281.632 322.791 281.379C323.202 281.126 323.658 280.96 324.131 280.89C324.605 280.819 325.087 280.847 325.55 280.97C326.014 281.093 326.449 281.31 326.832 281.608C327.415 282.061 384.383 326.325 413.961 311.129C414.821 310.719 415.801 310.673 416.694 311C417.586 311.327 418.321 312.002 418.742 312.881C419.164 313.761 419.239 314.776 418.951 315.712C418.664 316.648 418.037 317.431 417.202 317.896C411.712 320.553 405.701 321.847 399.645 321.676Z" fill="#093F68"/>
<path d="M126.497 237.417L124.056 255.221L99.8699 432.352L97.7936 447.472L-18.22 437.757C-24.0109 411.597 -26.9313 384.841 -26.9255 357.999C-26.9817 308.121 -16.8256 258.799 2.8701 213.301L126.497 237.417Z" fill="#68E1FD"/>
<path d="M97.7921 451.292H97.5007L-18.5129 441.578C-19.2804 441.51 -20.0076 441.192 -20.5901 440.669C-21.1726 440.147 -21.5803 439.445 -21.7548 438.667C-27.6061 412.208 -30.5631 385.149 -30.5696 358.002C-30.668 307.584 -20.3982 257.724 -0.446148 211.754C-0.114876 210.972 0.461405 210.33 1.18891 209.932C1.91641 209.534 2.75234 209.403 3.56062 209.561L127.151 233.715C128.073 233.891 128.895 234.429 129.444 235.218C129.994 236.007 130.229 236.985 130.101 237.949L101.398 448.041C101.275 448.943 100.843 449.769 100.18 450.366C99.5178 450.963 98.6697 451.292 97.7921 451.292ZM-15.1254 434.244L94.8053 443.468L122.488 240.482L5.16331 217.575C-13.6656 261.808 -23.3564 309.645 -23.2846 358.002C-23.2924 383.645 -20.593 409.211 -15.2347 434.244H-15.1254Z" fill="#093F68"/>
<path d="M46.6526 424.149C55.142 424.149 62.024 417.008 62.024 408.198C62.024 399.388 55.142 392.246 46.6526 392.246C38.1632 392.246 31.2812 399.388 31.2812 408.198C31.2812 417.008 38.1632 424.149 46.6526 424.149Z" fill="#093F68"/>
<path d="M46.6506 427.893C42.89 427.893 39.2138 426.736 36.087 424.568C32.9602 422.399 30.5232 419.318 29.0841 415.712C27.645 412.107 27.2684 408.139 28.0021 404.312C28.7357 400.484 30.5466 396.968 33.2058 394.209C35.8649 391.449 39.2528 389.57 42.9412 388.809C46.6295 388.047 50.4525 388.438 53.9269 389.932C57.4012 391.425 60.3708 393.954 62.46 397.199C64.5493 400.444 65.6645 404.259 65.6645 408.161C65.6645 410.753 65.1726 413.318 64.2171 415.712C63.2616 418.106 61.861 420.281 60.0954 422.114C58.3298 423.946 56.2337 425.399 53.9269 426.391C51.62 427.383 49.1475 427.893 46.6506 427.893ZM46.6506 396.027C44.3293 396.028 42.0602 396.742 40.1306 398.081C38.201 399.421 36.6977 401.324 35.8111 403.55C34.9244 405.776 34.6943 408.226 35.1498 410.588C35.6054 412.95 36.726 415.118 38.37 416.819C40.0139 418.52 42.1072 419.676 44.3848 420.141C46.6624 420.607 49.0218 420.36 51.1643 419.433C53.3068 418.506 55.1361 416.94 56.4205 414.934C57.7049 412.927 58.3867 410.57 58.3795 408.161C58.3698 404.94 57.1298 401.854 54.9313 399.579C52.7327 397.305 49.755 396.027 46.6506 396.027Z" fill="#093F68"/>
<path d="M653.93 358C653.938 384.855 651.018 411.624 645.224 437.796L529.211 447.511L525.204 418.254L502.074 248.91L500.508 237.57L624.134 213.453C643.81 258.905 653.965 308.173 653.93 358Z" fill="#68E1FD"/>
<path d="M529.212 451.292C528.328 451.301 527.471 450.976 526.801 450.378C526.13 449.78 525.693 448.95 525.569 448.041L496.866 237.949C496.738 236.985 496.973 236.007 497.523 235.218C498.073 234.429 498.894 233.891 499.817 233.715L623.407 209.561C624.215 209.403 625.051 209.534 625.778 209.932C626.506 210.33 627.082 210.972 627.413 211.754C647.378 257.721 657.66 307.581 657.573 358.002C657.516 385.142 654.51 412.188 648.613 438.629C648.438 439.408 648.031 440.109 647.448 440.632C646.866 441.155 646.138 441.473 645.371 441.54L529.357 451.254L529.212 451.292ZM504.625 240.482L532.344 443.468L642.238 434.244C647.597 409.211 650.296 383.645 650.288 358.002C650.394 309.653 640.741 261.817 621.95 217.575L504.625 240.482Z" fill="#093F68"/>
<path d="M580.352 424.149C588.841 424.149 595.723 417.008 595.723 408.198C595.723 399.388 588.841 392.246 580.352 392.246C571.862 392.246 564.98 399.388 564.98 408.198C564.98 417.008 571.862 424.149 580.352 424.149Z" fill="#093F68"/>
<path d="M580.35 427.893C576.589 427.893 572.913 426.736 569.786 424.568C566.659 422.399 564.222 419.318 562.783 415.712C561.344 412.107 560.968 408.139 561.701 404.312C562.435 400.484 564.246 396.968 566.905 394.209C569.564 391.449 572.952 389.57 576.64 388.809C580.329 388.047 584.152 388.438 587.626 389.932C591.1 391.425 594.07 393.954 596.159 397.199C598.249 400.444 599.364 404.259 599.364 408.161C599.364 413.394 597.36 418.413 593.795 422.114C590.229 425.814 585.393 427.893 580.35 427.893ZM580.35 396.027C578.029 396.028 575.759 396.742 573.83 398.081C571.9 399.421 570.397 401.324 569.51 403.55C568.624 405.776 568.394 408.226 568.849 410.588C569.305 412.95 570.425 415.118 572.069 416.819C573.713 418.52 575.807 419.676 578.084 420.141C580.362 420.607 582.721 420.36 584.864 419.433C587.006 418.506 588.835 416.94 590.12 414.934C591.404 412.927 592.086 410.57 592.079 408.161C592.069 404.94 590.829 401.854 588.631 399.579C586.432 397.305 583.454 396.027 580.35 396.027Z" fill="#093F68"/>
</svg>
