<svg width="24" height="24" fill="none" xmlns="http://www.w3.org/2000/svg"><rect width="24" height="24" rx="4" fill="#9A4D0C"/><g clip-path="url(#a)" stroke="#fff" stroke-width="1.5" stroke-linecap="round" stroke-linejoin="round"><path d="M6 12a2 2 0 1 0 4 0 2 2 0 0 0-4 0ZM14 8a2 2 0 1 0 4 0 2 2 0 0 0-4 0ZM14 16a2 2 0 1 0 4 0 2 2 0 0 0-4 0ZM9.8 11.134l4.4-2.267M9.8 12.867l4.4 2.267"/></g><defs><clipPath id="a"><path fill="#fff" transform="translate(4 4)" d="M0 0h16v16H0z"/></clipPath></defs></svg>