<svg width="24" height="24" fill="none" xmlns="http://www.w3.org/2000/svg"><rect width="24" height="24" rx="4" fill="#9A4D0C"/><g clip-path="url(#a)" stroke="#fff" stroke-width="1.5" stroke-linecap="round" stroke-linejoin="round"><path d="M15.332 11.332H8.665c-.736 0-1.333.597-1.333 1.333v4c0 .737.597 1.334 1.333 1.334h6.667c.736 0 1.333-.597 1.333-1.334v-4c0-.736-.597-1.333-1.333-1.333Z"/><path d="M11.999 15.333a.667.667 0 1 0 0-1.333.667.667 0 0 0 0 1.333ZM9.332 11.332V7.999a2.667 2.667 0 1 1 5.333 0"/></g><defs><clipPath id="a"><path fill="#fff" transform="translate(4 4)" d="M0 0h16v16H0z"/></clipPath></defs></svg>